<?xml version="1.0" standalone="no"?>
<!DOCTYPE svg
  PUBLIC '-//W3C//DTD SVG 1.1//EN'
  'http://www.w3.org/Graphics/SVG/1.1/DTD/svg11.dtd'><svg version="1.1" xmlns="http://www.w3.org/2000/svg"><defs><font horiz-adv-x="0" id="font"><font-face ascent="750" bbox="-205 -261 1166 967" cap-height="700" descent="-250" font-family="Wonderbly Boing WEB Light" font-stretch="normal" font-style="normal" font-weight="700" units-per-em="1000" x-height="464" /><missing-glyph d="" horiz-adv-x="0" /><glyph d="" glyph-name=".null" horiz-adv-x="0" unicode="" /><glyph d="" glyph-name="nonmarkingreturn" horiz-adv-x="0" unicode="" /><glyph d="" glyph-name="space" horiz-adv-x="239" unicode=" " /><glyph d="M158 244Q158 237 153 232Q148 227 141 227H108Q100 227 95.5 232Q91 237 91 244L85 683Q85 690 90 695Q95 700 102 700H146Q153 700 158 695Q163 690 163 683ZM123 -13Q96 -13 77 6.5Q58 26 58 53Q58 80 77 99.5Q96 119 123 119Q151 119 170 99.5Q189 80 189 53Q189 26 170 6.5Q151 -13 123 -13Z" glyph-name="exclam" horiz-adv-x="249" unicode="!" /><glyph d="M241 435Q225 435 225 451V683Q225 690 229.5 695Q234 700 241 700H280Q287 700 292 695Q297 690 297 683V451Q297 444 292 439.5Q287 435 280 435ZM80 435Q73 435 68 439.5Q63 444 63 451V683Q63 690 68 695Q73 700 80 700H118Q125 700 130 695Q135 690 135 683V451Q135 444 130 439.5Q125 435 118 435Z" glyph-name="quotedbl" horiz-adv-x="360" unicode="&quot;" /><glyph d="M228 17Q228 10 223 5Q218 0 211 0H189Q182 0 177 5Q172 10 172 17V223H56Q49 223 44 228Q39 233 39 240V259Q39 266 44 271Q49 276 56 276H172V423H56Q49 423 44 428Q39 433 39 440V460Q39 467 44 471.5Q49 476 56 476H172V683Q172 690 177 695Q182 700 189 700H211Q218 700 223 695Q228 690 228 683V476H400V683Q400 690 405 695Q410 700 417 700H439Q446 700 451 695Q456 690 456 683V476H572Q579 476 584 471.5Q589 467 589 460V440Q589 433 584 428Q579 423 572 423H456V276H572Q579 276 584 271Q589 266 589 259V240Q589 233 584 228Q579 223 572 223H456V17Q456 10 451 5Q446 0 439 0H417Q410 0 405 5Q400 10 400 17V223H228ZM400 423 228 423V276H400Z" glyph-name="numbersign" horiz-adv-x="628" unicode="#" /><glyph d="M335 -72Q335 -82 328 -89Q321 -96 311 -96H297Q287 -96 280 -89Q273 -82 273 -72V-12Q226 -9 188 2Q150 13 120.5 29.5Q91 46 69.5 65.5Q48 85 35 104Q29 111 29.5 119.5Q30 128 38 133L63 152Q80 162 93 146Q120 112 164.5 84.5Q209 57 273 51V330L213 346Q125 369 89 415.5Q53 462 53 520Q53 560 69.5 593.5Q86 627 115 652Q144 677 184.5 692.5Q225 708 273 712V773Q273 783 280 789.5Q287 796 297 796H311Q321 796 328 789.5Q335 783 335 773V712Q401 706 453 681Q505 656 540 618Q548 610 546.5 602.5Q545 595 539 590L518 572Q504 560 489 573Q456 605 418.5 624.5Q381 644 335 649V385L396 368Q484 345 523.5 300Q563 255 563 187Q563 153 549.5 119.5Q536 86 507.5 58.5Q479 31 436.5 12Q394 -7 335 -12ZM273 402 273 650Q243 647 216.5 637Q190 627 170 611Q150 595 138.5 573Q127 551 127 524Q127 506 132 489.5Q137 473 149.5 458.5Q162 444 184.5 431.5Q207 419 242 410ZM335 314 335 52Q374 56 402.5 68Q431 80 450 98Q469 116 478.5 138Q488 160 488 182Q488 230 459 259Q430 288 367 305Z" glyph-name="dollar" horiz-adv-x="600" unicode="$" /><glyph d="M166 707Q197 707 221.5 693.5Q246 680 263 656Q280 632 289 598.5Q298 565 298 526Q298 486 289 452.5Q280 419 263 394.5Q246 370 221.5 356.5Q197 343 166 343Q135 343 110.5 356.5Q86 370 69.5 394.5Q53 419 44.5 452.5Q36 486 36 526Q36 565 44.5 598.5Q53 632 69.5 656Q86 680 110.5 693.5Q135 707 166 707ZM120 0Q109 0 105.5 8Q102 16 109 27L558 684Q568 700 585 700H600Q611 700 614.5 692Q618 684 611 673L162 16Q152 0 135 0ZM89 525Q89 455 111.5 422Q134 389 166 389Q198 389 221 422Q244 455 244 525Q244 596 221 628.5Q198 661 166 661Q134 661 111.5 628.5Q89 596 89 525ZM550 356Q581 356 605.5 342.5Q630 329 647 305Q664 281 673 247.5Q682 214 682 175Q682 94 647 43Q612 -8 550 -8Q488 -8 454 43Q420 94 420 175Q420 214 428.5 247.5Q437 281 453.5 305Q470 329 494.5 342.5Q519 356 550 356ZM473 173Q473 103 495.5 70Q518 37 550 37Q582 37 605 70Q628 103 628 173Q628 244 605 276.5Q582 309 550 309Q518 309 495.5 276.5Q473 244 473 173Z" glyph-name="percent" horiz-adv-x="718" unicode="%" /><glyph d="M488 88Q442 40 384.5 13.5Q327 -13 261 -13Q209 -13 168 2.5Q127 18 98.5 44.5Q70 71 55 105Q40 139 40 175Q40 229 70 276.5Q100 324 171 368L195 382Q150 427 132 468.5Q114 510 114 548Q114 585 127.5 615.5Q141 646 164.5 667.5Q188 689 220 701Q252 713 288 713Q327 713 357.5 701.5Q388 690 409 670Q430 650 441.5 623.5Q453 597 453 566Q453 519 423 476.5Q393 434 322 390L295 373L484 184Q510 228 527.5 280Q545 332 548 392Q550 408 566 408H602Q609 408 614 403.5Q619 399 619 391Q618 363 610.5 330.5Q603 298 591.5 264.5Q580 231 564.5 198.5Q549 166 531 137L653 16Q658 11 655.5 5.5Q653 0 648 0H587Q575 0 567 8ZM181 549Q181 516 198 484.5Q215 453 253 415L282 434Q336 469 361.5 499Q387 529 387 564Q387 588 378.5 605.5Q370 623 355.5 634.5Q341 646 323.5 651.5Q306 657 288 657Q269 657 249.5 650Q230 643 215 629Q200 615 190.5 595Q181 575 181 549ZM269 48Q321 48 366 71Q411 94 444 131L236 340L217 327Q161 288 136.5 253.5Q112 219 112 177Q112 153 122.5 130Q133 107 153 89Q173 71 202 59.5Q231 48 269 48Z" glyph-name="ampersand" horiz-adv-x="672" unicode="&amp;" /><glyph d="M98 584Q80 592 68 608.5Q56 625 56 647Q56 674 75.5 693.5Q95 713 123 713Q151 713 170.5 693Q190 673 190 643Q190 621 181.5 599Q173 577 160.5 556.5Q148 536 133.5 518Q119 500 108 488Q100 480 92.5 475.5Q85 471 77 476L66 482Q51 490 57 502Z" glyph-name="quotesingle" horiz-adv-x="227" unicode="'" /><glyph d="M113 315Q113 261 124 207Q135 153 154.5 101Q174 49 200.5 0Q227 -49 258 -92Q260 -95 263 -99.5Q266 -104 266 -109Q266 -112 263 -116Q260 -120 253 -120H228Q211 -120 200 -106Q166 -64 136.5 -16.5Q107 31 85.5 83.5Q64 136 52 194Q40 252 40 315Q40 378 52 436Q64 494 85.5 546.5Q107 599 136.5 646.5Q166 694 200 736Q211 750 228 750H253Q260 750 263 746Q266 742 266 739Q266 734 263 729.5Q260 725 258 722Q227 679 200.5 630Q174 581 154.5 529Q135 477 124 423Q113 369 113 315Z" glyph-name="parenleft" horiz-adv-x="280" unicode="(" /><glyph d="M167 315Q167 369 156 423Q145 477 125.5 529Q106 581 79.5 630Q53 679 22 722Q20 725 17 729.5Q14 734 14 739Q14 742 17 746Q20 750 27 750H52Q70 750 80 736Q114 694 143.5 646.5Q173 599 194.5 546.5Q216 494 228 436Q240 378 240 315Q240 252 228 194Q216 136 194.5 83.5Q173 31 143.5 -16.5Q114 -64 80 -106Q70 -120 52 -120H27Q20 -120 17 -116Q14 -112 14 -109Q14 -104 17 -99.5Q20 -95 22 -92Q53 -49 79.5 0Q106 49 125.5 101Q145 153 156 207Q167 261 167 315Z" glyph-name="parenright" horiz-adv-x="280" unicode=")" /><glyph d="M275 344Q275 327 264 316.5Q253 306 236 306Q220 306 209 316.5Q198 327 198 344Q198 350 201 369Q204 388 208 410Q212 432 216 453Q220 474 223 485Q214 479 197 465.5Q180 452 162 438.5Q144 425 128.5 413.5Q113 402 106 399Q92 391 77 395.5Q62 400 54 414Q48 429 52.5 444Q57 459 70 467Q78 471 97 477Q116 483 138 489Q160 495 180 500.5Q200 506 210 509Q200 514 179.5 520Q159 526 137.5 532.5Q116 539 97 545Q78 551 70 555Q57 563 52.5 578.5Q48 594 54 608Q62 622 77 626.5Q92 631 106 623Q112 620 127.5 608Q143 596 160.5 582.5Q178 569 195 555.5Q212 542 222 536Q220 547 216 568Q212 589 208 610.5Q204 632 201 650.5Q198 669 198 676Q198 692 209 703Q220 714 236 714Q253 714 264 703Q275 692 275 676Q275 669 272 650.5Q269 632 265 610.5Q261 589 257 568Q253 547 250 536Q260 542 277 555.5Q294 569 312 582.5Q330 596 345 608Q360 620 366 623Q380 631 395 626.5Q410 622 418 608Q425 594 420.5 578.5Q416 563 402 555Q395 551 376 545Q357 539 335 532.5Q313 526 292.5 520Q272 514 262 509Q272 506 292.5 500.5Q313 495 334.5 489Q356 483 375.5 477Q395 471 402 467Q416 459 420.5 444Q425 429 418 414Q410 400 395 395.5Q380 391 366 399Q360 402 344.5 413.5Q329 425 311 438.5Q293 452 275.5 465.5Q258 479 249 485Q252 474 256.5 453Q261 432 265 410Q269 388 272 369Q275 350 275 344Z" glyph-name="asterisk" horiz-adv-x="473" unicode="*" /><glyph d="M273 574Q280 574 285 569.5Q290 565 290 558V389H457Q464 389 469 384Q474 379 474 372V337Q474 330 469 325Q464 320 457 320H290V151Q290 144 285 139Q280 134 273 134H236Q229 134 224 139Q219 144 219 151V320H53Q46 320 41 325Q36 330 36 337V372Q36 379 41 384Q46 389 53 389H219V558Q219 565 224 569.5Q229 574 236 574Z" glyph-name="plus" horiz-adv-x="510" unicode="+" /><glyph d="M97 -8Q77 -1 64.5 15Q52 31 52 53Q52 81 71 100Q90 119 118 119Q144 119 163.5 99Q183 79 183 50Q183 29 174.5 7Q166 -15 154 -35.5Q142 -56 128 -73.5Q114 -91 103 -103Q95 -111 87.5 -115.5Q80 -120 72 -115L62 -110Q49 -101 54 -90Z" glyph-name="comma" horiz-adv-x="236" unicode="," /><glyph d="M77 232Q70 232 65 237Q60 242 60 249V286Q60 293 65 298Q70 303 77 303H271Q278 303 283 298Q288 293 288 286V249Q288 242 283 237Q278 232 271 232Z" glyph-name="hyphen" horiz-adv-x="348" unicode="-" /><glyph d="M117 -13Q90 -13 71 6.5Q52 26 52 53Q52 80 71 99.5Q90 119 117 119Q145 119 164 99.5Q183 80 183 53Q183 26 164 6.5Q145 -13 117 -13Z" glyph-name="period" horiz-adv-x="235" unicode="." /><glyph d="M353 685Q359 700 372 700H401Q409 700 412 694.5Q415 689 412 682L92 15Q87 0 73 0H42Q34 0 31 6Q28 12 31 18Z" glyph-name="slash" horiz-adv-x="443" unicode="/" /><glyph d="M301 713Q360 713 407 686.5Q454 660 486 612Q518 564 535 497.5Q552 431 552 351Q552 270 535 203Q518 136 486 88Q454 40 407 13.5Q360 -13 301 -13Q242 -13 195.5 13.5Q149 40 116.5 88Q84 136 67 203Q50 270 50 351Q50 431 67 497.5Q84 564 116.5 612Q149 660 195.5 686.5Q242 713 301 713ZM301 46Q337 46 370 64.5Q403 83 427.5 120.5Q452 158 466.5 215.5Q481 273 481 350Q481 428 466.5 485Q452 542 427.5 579.5Q403 617 370 635.5Q337 654 301 654Q265 654 232 635.5Q199 617 174.5 579.5Q150 542 135.5 485Q121 428 121 350Q121 273 135.5 215.5Q150 158 174.5 120.5Q199 83 232 64.5Q265 46 301 46Z" glyph-name="zero" horiz-adv-x="602" unicode="0" /><glyph d="M17 600Q17 615 33 615H47Q92 615 118 631Q144 647 155 684Q161 700 176 700H194Q210 700 210 684V17Q210 10 205 5Q200 0 193 0H160Q153 0 148 5Q143 10 143 17V559H33Q17 559 17 573Z" glyph-name="one" horiz-adv-x="299" unicode="1" /><glyph d="M64 0Q57 0 52 5Q47 10 47 17V44Q47 53 51 59.5Q55 66 60 71L275 271Q349 339 389 394Q429 449 429 509Q429 542 417 568.5Q405 595 384 613.5Q363 632 335 642Q307 652 275 652Q238 652 209.5 639.5Q181 627 159.5 606Q138 585 124.5 559Q111 533 104 506Q99 486 79 491L51 497Q44 499 40.5 505Q37 511 38 519Q46 560 66.5 595.5Q87 631 117.5 657Q148 683 188.5 698Q229 713 276 713Q325 713 366 698.5Q407 684 436.5 657.5Q466 631 482.5 594Q499 557 499 512Q499 483 491.5 453.5Q484 424 465.5 391.5Q447 359 414.5 321.5Q382 284 331 238L139 63H502Q509 63 513.5 58Q518 53 518 46V17Q518 10 513.5 5Q509 0 502 0Z" glyph-name="two" horiz-adv-x="556" unicode="2" /><glyph d="M291 397Q325 397 352.5 408Q380 419 399.5 437.5Q419 456 429.5 480Q440 504 440 530Q440 556 430 578.5Q420 601 401.5 618Q383 635 355 645Q327 655 291 655Q261 655 236 646.5Q211 638 191.5 624.5Q172 611 158 593.5Q144 576 135 559Q127 543 112 549L86 560Q78 563 75 569.5Q72 576 75 583Q86 608 105 631.5Q124 655 151.5 673Q179 691 214.5 702Q250 713 295 713Q343 713 381.5 699.5Q420 686 448 662.5Q476 639 491 606Q506 573 506 534Q506 480 474 437Q442 394 388 377Q421 371 448.5 355Q476 339 496.5 315.5Q517 292 528 262Q539 232 539 198Q539 153 521 114.5Q503 76 470.5 47.5Q438 19 391.5 3Q345 -13 288 -13Q231 -13 184 3Q137 19 103.5 48Q70 77 51.5 117Q33 157 33 204V216Q33 221 36.5 224.5Q40 228 45 228H88Q93 228 97 224.5Q101 221 101 216V206Q101 175 113 146Q125 117 149 95Q173 73 208 59.5Q243 46 288 46Q330 46 363.5 58Q397 70 420 90.5Q443 111 455 138.5Q467 166 467 198Q467 261 423.5 301Q380 341 300 341H267Q260 341 255 346Q250 351 250 358V380Q250 388 255 392.5Q260 397 267 397Z" glyph-name="three" horiz-adv-x="584" unicode="3" /><glyph d="M32 210Q25 210 20 215Q15 220 15 227V255Q15 272 24 284L340 686Q349 700 366 700H418Q425 700 430 695Q435 690 435 683V267H529Q536 267 541 262Q546 257 546 250V227Q546 220 541 215Q536 210 529 210H435V17Q435 10 430 5Q425 0 418 0H384Q377 0 372 5Q367 10 367 17V210ZM367 267 367 629L83 267Z" glyph-name="four" horiz-adv-x="567" unicode="4" /><glyph d="M274 -13Q186 -13 125.5 23.5Q65 60 38 115Q35 122 37.5 129.5Q40 137 46 140L73 154Q81 159 88 156Q95 153 99 147Q123 106 166 77Q209 48 275 48Q315 48 348.5 62Q382 76 406 100Q430 124 443 155.5Q456 187 456 222Q456 260 442.5 291.5Q429 323 406 345Q383 367 351 379Q319 391 281 391Q231 391 194 373.5Q157 356 134 337Q122 326 109 329L80 336Q65 340 67 353L93 683Q94 690 98.5 695Q103 700 111 700H477Q485 700 489.5 695Q494 690 494 683V652Q494 645 489.5 640Q485 635 477 635H150L130 397Q163 422 203.5 436Q244 450 293 450Q343 450 386 434Q429 418 460.5 388.5Q492 359 510 317.5Q528 276 528 226Q528 176 509 132.5Q490 89 456.5 56.5Q423 24 376.5 5.5Q330 -13 274 -13Z" glyph-name="five" horiz-adv-x="566" unicode="5" /><glyph d="M294 -13Q239 -13 193 6.5Q147 26 113.5 59Q80 92 61.5 136.5Q43 181 43 231Q43 297 68 360.5Q93 424 132.5 482.5Q172 541 222 594Q272 647 321 693Q328 700 340 700H394Q401 700 403 693.5Q405 687 400 682Q382 664 349 632Q316 600 278.5 559.5Q241 519 206 474Q171 429 148 386Q180 418 221.5 435Q263 452 314 452Q360 452 402 436Q444 420 476 390.5Q508 361 527 318.5Q546 276 546 223Q546 175 527 132Q508 89 474.5 57Q441 25 395 6Q349 -13 294 -13ZM295 397Q255 397 222 382.5Q189 368 165 343.5Q141 319 128 287.5Q115 256 115 222Q115 188 128 156Q141 124 165 100Q189 76 222 61.5Q255 47 295 47Q335 47 368 61.5Q401 76 425 100Q449 124 462 156Q475 188 475 222Q475 256 463 287.5Q451 319 428 343.5Q405 368 371.5 382.5Q338 397 295 397Z" glyph-name="six" horiz-adv-x="572" unicode="6" /><glyph d="M487 662Q487 652 485 645.5Q483 639 480 634L182 9Q178 0 167 0H117Q109 0 106 6Q103 12 106 18L410 635H33Q26 635 21 640Q16 645 16 652V683Q16 690 21 695Q26 700 33 700H470Q477 700 482 696.5Q487 693 487 685Z" glyph-name="seven" horiz-adv-x="507" unicode="7" /><glyph d="M307 -13Q248 -13 199.5 2.5Q151 18 116.5 45Q82 72 63.5 109.5Q45 147 45 191Q45 253 85 302.5Q125 352 194 373Q141 393 110.5 435Q80 477 80 531Q80 571 97.5 604.5Q115 638 145.5 662Q176 686 217.5 699.5Q259 713 307 713Q355 713 396.5 699.5Q438 686 468.5 662Q499 638 516.5 604.5Q534 571 534 531Q534 477 503 435Q472 393 419 373Q489 352 528.5 302.5Q568 253 568 191Q568 147 549.5 109.5Q531 72 496.5 45Q462 18 414 2.5Q366 -13 307 -13ZM307 399Q344 399 373.5 409.5Q403 420 424 438Q445 456 456 479.5Q467 503 467 529Q467 555 456 578.5Q445 602 424 619.5Q403 637 373.5 647.5Q344 658 307 658Q270 658 240.5 647.5Q211 637 190 619.5Q169 602 158 578.5Q147 555 147 529Q147 503 158 479.5Q169 456 190 438Q211 420 240.5 409.5Q270 399 307 399ZM307 341Q263 341 227.5 329Q192 317 167.5 296.5Q143 276 130 249.5Q117 223 117 193Q117 163 130 136Q143 109 167.5 89Q192 69 227.5 57Q263 45 307 45Q351 45 386.5 57Q422 69 446.5 89Q471 109 484 136Q497 163 497 193Q497 223 484 249.5Q471 276 446.5 296.5Q422 317 386.5 329Q351 341 307 341Z" glyph-name="eight" horiz-adv-x="613" unicode="8" /><glyph d="M178 0Q171 0 169 6.5Q167 13 172 18Q190 36 223.5 68.5Q257 101 294 141.5Q331 182 367 227Q403 272 425 315Q392 283 350.5 265.5Q309 248 258 248Q212 248 170 264Q128 280 96 309.5Q64 339 45 381.5Q26 424 26 477Q26 525 45 568Q64 611 97.5 643Q131 675 177 694Q223 713 278 713Q333 713 379 693.5Q425 674 458.5 641Q492 608 510.5 563.5Q529 519 529 469Q529 403 504 339.5Q479 276 439.5 217.5Q400 159 350.5 106Q301 53 251 7Q244 0 232 0ZM277 303Q317 303 350 317.5Q383 332 407 356.5Q431 381 444 412.5Q457 444 457 478Q457 513 444 544.5Q431 576 407 600Q383 624 350 638.5Q317 653 277 653Q237 653 204 638.5Q171 624 147 600Q123 576 110 544.5Q97 513 97 478Q97 444 109 412.5Q121 381 144 356.5Q167 332 200.5 317.5Q234 303 277 303Z" glyph-name="nine" horiz-adv-x="572" unicode="9" /><glyph d="M124 327Q97 327 78 345.5Q59 364 59 391Q59 419 78 437.5Q97 456 124 456Q150 456 169.5 437.5Q189 419 189 391Q189 364 169.5 345.5Q150 327 124 327ZM124 -13Q97 -13 78 6.5Q59 26 59 52Q59 80 78 98.5Q97 117 124 117Q150 117 169.5 98.5Q189 80 189 52Q189 26 169.5 6.5Q150 -13 124 -13Z" glyph-name="colon" horiz-adv-x="248" unicode=":" /><glyph d="M125 327Q99 327 79.5 345.5Q60 364 60 391Q60 419 79.5 437.5Q99 456 125 456Q152 456 171.5 437.5Q191 419 191 391Q191 364 171.5 345.5Q152 327 125 327ZM105 -8Q85 -1 72.5 15Q60 31 60 53Q60 81 79 100Q98 119 126 119Q152 119 172 99Q192 79 192 50Q192 29 183.5 7Q175 -15 162.5 -35.5Q150 -56 136 -73.5Q122 -91 111 -103Q103 -111 95.5 -115.5Q88 -120 80 -115L71 -110Q64 -105 61.5 -101Q59 -97 62 -90Z" glyph-name="semicolon" horiz-adv-x="252" unicode=";" /><glyph d="M469 156Q469 145 462 142.5Q455 140 448 143L56 310Q42 316 38.5 326Q35 336 35 347Q35 356 38.5 366Q42 376 56 382L448 548Q455 551 462 548.5Q469 546 469 535V493Q469 485 464 480.5Q459 476 451 473L129 346L451 218Q459 215 464 210.5Q469 206 469 197Z" glyph-name="less" horiz-adv-x="546" unicode="&lt;" /><glyph d="M82 420Q75 420 70 425Q65 430 65 437V470Q65 477 70 482Q75 487 82 487H483Q490 487 495 482Q500 477 500 470V437Q500 430 495 425Q490 420 483 420ZM82 212Q75 212 70 217Q65 222 65 229V262Q65 270 70 274.5Q75 279 82 279H483Q490 279 495 274.5Q500 270 500 262V229Q500 222 495 217Q490 212 483 212Z" glyph-name="equal" horiz-adv-x="565" unicode="=" /><glyph d="M77 197Q77 206 81.5 210.5Q86 215 94 218L417 346L94 473Q86 476 81.5 480.5Q77 485 77 493V535Q77 546 83.5 548.5Q90 551 97 548L490 382Q503 376 507 366Q511 356 511 347Q511 336 507 326Q503 316 490 310L97 143Q90 140 83.5 142.5Q77 145 77 156Z" glyph-name="greater" horiz-adv-x="546" unicode="&gt;" /><glyph d="M231 713Q275 713 311 699.5Q347 686 373 663Q399 640 413 608.5Q427 577 427 541Q427 485 402 444.5Q377 404 346.5 370Q316 336 291 302.5Q266 269 266 227V215Q266 209 261.5 205Q257 201 252 201H214Q208 201 203.5 205.5Q199 210 199 216V232Q199 283 223 320.5Q247 358 276.5 391.5Q306 425 330 459Q354 493 354 537Q354 563 344 584Q334 605 317 619.5Q300 634 277.5 642Q255 650 229 650Q184 650 148.5 627.5Q113 605 88 555Q85 548 76.5 546.5Q68 545 61 548L36 559Q30 562 27 569Q24 576 29 587Q54 641 107.5 677Q161 713 231 713ZM235 -13Q207 -13 188 6Q169 25 169 52Q169 79 188 98Q207 117 235 117Q261 117 280.5 98Q300 79 300 52Q300 25 280.5 6Q261 -13 235 -13Z" glyph-name="question" horiz-adv-x="471" unicode="?" /><glyph d="M476 -193Q383 -193 303.5 -161Q224 -129 166 -73Q108 -17 75.5 59.5Q43 136 43 226Q43 318 75.5 394.5Q108 471 165.5 527Q223 583 301.5 614Q380 645 472 645Q557 645 629.5 617Q702 589 755 538.5Q808 488 838 417.5Q868 347 868 262Q868 199 855 151.5Q842 104 819.5 72Q797 40 767.5 24Q738 8 705 8Q656 8 630 35Q604 62 598 95Q576 57 536 32.5Q496 8 444 8Q402 8 365 24Q328 40 300.5 68Q273 96 257 135Q241 174 241 220Q241 266 257 305Q273 344 300.5 372Q328 400 365 416Q402 432 444 432Q492 432 531 409.5Q570 387 593 352V403Q593 410 598 415Q603 420 610 420H638Q646 420 651 415Q656 410 656 403V145Q656 111 666.5 87.5Q677 64 714 64Q732 64 749 76.5Q766 89 779.5 114Q793 139 801 177Q809 215 809 266Q809 336 784.5 396Q760 456 715.5 499.5Q671 543 607.5 567.5Q544 592 466 592Q394 592 328 566Q262 540 212.5 492Q163 444 133.5 376Q104 308 104 225Q104 145 134 78Q164 11 215.5 -37.5Q267 -86 334.5 -113Q402 -140 477 -140Q513 -140 549.5 -134Q586 -128 618 -116Q651 -105 679 -87Q681 -85 687 -82.5Q693 -80 702 -82L744 -92Q749 -94 750 -98Q751 -102 748 -104Q698 -147 630.5 -170Q563 -193 476 -193ZM449 375Q418 375 392 363.5Q366 352 347 331.5Q328 311 317.5 283Q307 255 307 222Q307 190 317.5 162Q328 134 347 113.5Q366 93 392 81Q418 69 449 69Q480 69 506 81Q532 93 550.5 113.5Q569 134 579.5 162Q590 190 590 222Q590 255 579.5 283Q569 311 550.5 331.5Q532 352 506 363.5Q480 375 449 375Z" glyph-name="at" horiz-adv-x="917" unicode="@" /><glyph d="M85 16Q80 0 67 0H25Q17 0 13.5 5.5Q10 11 13 19L272 684Q278 700 293 700H353Q368 700 374 684L633 19Q637 11 633 5.5Q629 0 622 0H577Q563 0 557 16L486 202H156ZM463 263 321 636L179 263Z" glyph-name="A" horiz-adv-x="646" unicode="A" /><glyph d="M386 700Q440 700 479.5 685Q519 670 544.5 645.5Q570 621 582.5 590Q595 559 595 528Q595 468 564.5 429.5Q534 391 491 374Q557 357 595.5 310Q634 263 634 197Q634 158 620 122Q606 86 577.5 59Q549 32 506 16Q463 0 406 0H105Q98 0 93 5Q88 10 88 17V683Q88 690 93 695Q98 700 105 700ZM520 519Q520 578 482 608.5Q444 639 382 639H160V398H382Q443 398 481.5 428.5Q520 459 520 519ZM160 339 160 61H405Q434 61 462 69.5Q490 78 511.5 95.5Q533 113 546.5 139Q560 165 560 200Q560 234 547 260Q534 286 512.5 303.5Q491 321 462.5 330Q434 339 404 339Z" glyph-name="B" horiz-adv-x="672" unicode="B" /><glyph d="M394 -13Q320 -13 255 14.5Q190 42 142 90.5Q94 139 66.5 205.5Q39 272 39 350Q39 428 67 494.5Q95 561 143 609.5Q191 658 255.5 685.5Q320 713 394 713Q449 713 500 698Q551 683 594 654.5Q637 626 670 585.5Q703 545 722 494Q724 489 721.5 483.5Q719 478 711 477L667 470Q659 469 655 473Q651 477 649 484Q616 559 550.5 603.5Q485 648 394 648Q333 648 281.5 625Q230 602 192.5 562Q155 522 134 467.5Q113 413 113 350Q113 287 134 232.5Q155 178 192.5 138Q230 98 281.5 75Q333 52 394 52Q485 52 550.5 96.5Q616 141 649 216Q651 223 655 227Q659 231 667 230L711 223Q719 222 721.5 216.5Q724 211 722 206Q703 155 670 114.5Q637 74 594 45.5Q551 17 500 2Q449 -13 394 -13Z" glyph-name="C" horiz-adv-x="747" unicode="C" /><glyph d="M318 700Q409 700 478.5 674.5Q548 649 595.5 603Q643 557 667 492.5Q691 428 691 350Q691 272 667 207.5Q643 143 595.5 97Q548 51 478.5 25.5Q409 0 318 0H105Q98 0 93 5Q88 10 88 17V683Q88 690 93 695Q98 700 105 700ZM328 66Q392 66 445 85Q498 104 536.5 140Q575 176 596 229Q617 282 617 350Q617 418 596 471Q575 524 536.5 560Q498 596 445 615Q392 634 328 634H160V66Z" glyph-name="D" horiz-adv-x="732" unicode="D" /><glyph d="M566 700Q573 700 578 695Q583 690 583 683V651Q583 644 578 639Q573 634 566 634H160V387H368Q385 387 385 370V339Q385 332 380.5 327Q376 322 368 322H160V66H568Q575 66 580 61Q585 56 585 49V17Q585 10 580 5Q575 0 568 0H105Q98 0 93 5Q88 10 88 17V683Q88 690 93 695Q98 700 105 700Z" glyph-name="E" horiz-adv-x="613" unicode="E" /><glyph d="M455 323Q455 316 450.5 311Q446 306 438 306H160V17Q160 10 155 5Q150 0 143 0H105Q98 0 93 5Q88 10 88 17V683Q88 690 93 695Q98 700 105 700H538Q545 700 550 695Q555 690 555 683V651Q555 644 550 639Q545 634 538 634H160V371H438Q455 371 455 354Z" glyph-name="F" horiz-adv-x="571" unicode="F" /><glyph d="M397 713Q453 713 504.5 698Q556 683 599.5 654.5Q643 626 676 585.5Q709 545 727 494Q729 489 727 483.5Q725 478 717 477L674 470Q666 469 662 473Q658 477 656 484Q622 560 556 604Q490 648 397 648Q336 648 284 625Q232 602 194 562Q156 522 134.5 467Q113 412 113 349Q113 285 134 231Q155 177 192.5 137Q230 97 282 74.5Q334 52 395 52Q452 52 497.5 70.5Q543 89 575.5 118Q608 147 627.5 183.5Q647 220 652 257H419Q412 257 407 262Q402 267 402 274V299Q402 307 407 311.5Q412 316 419 316H704Q721 316 721 299V17Q721 10 716.5 5Q712 0 704 0H672Q665 0 660 5Q655 10 655 17V140Q645 116 623.5 89Q602 62 568.5 39.5Q535 17 489.5 2Q444 -13 387 -13Q313 -13 249.5 14.5Q186 42 139 90.5Q92 139 65.5 205.5Q39 272 39 350Q39 428 67 494.5Q95 561 143.5 609.5Q192 658 257.5 685.5Q323 713 397 713Z" glyph-name="G" horiz-adv-x="775" unicode="G" /><glyph d="M668 17Q668 10 663 5Q658 0 651 0H614Q606 0 601.5 5Q597 10 597 17V322H160V17Q160 10 155 5Q150 0 143 0H105Q98 0 93 5Q88 10 88 17V683Q88 690 93 695Q98 700 105 700H143Q150 700 155 695Q160 690 160 683V387H597V683Q597 690 601.5 695Q606 700 614 700H651Q658 700 663 695Q668 690 668 683Z" glyph-name="H" horiz-adv-x="756" unicode="H" /><glyph d="M105 0Q98 0 93 5Q88 10 88 17V683Q88 690 93 695Q98 700 105 700H143Q150 700 155 695Q160 690 160 683V17Q160 10 155 5Q150 0 143 0Z" glyph-name="I" horiz-adv-x="248" unicode="I" /><glyph d="M523 218Q523 169 505.5 126.5Q488 84 455 53Q422 22 376 4.5Q330 -13 273 -13Q216 -13 169.5 4Q123 21 90.5 51.5Q58 82 40.5 124.5Q23 167 23 217V256Q23 263 28 268Q33 273 40 273H77Q84 273 89 268Q94 263 94 256V218Q94 183 105.5 152.5Q117 122 139.5 99.5Q162 77 195.5 64Q229 51 273 51Q317 51 350.5 64.5Q384 78 406.5 101.5Q429 125 440.5 156Q452 187 452 222V683Q452 690 457 695Q462 700 469 700H506Q514 700 518.5 695Q523 690 523 683Z" glyph-name="J" horiz-adv-x="603" unicode="J" /><glyph d="M327 369 628 15Q632 10 629.5 5Q627 0 621 0H565Q549 0 539 13L269 333H160V17Q160 10 155 5Q150 0 143 0H105Q98 0 93 5Q88 10 88 17V683Q88 690 93 695Q98 700 105 700H143Q150 700 155 695Q160 690 160 683V396H268L544 686Q550 693 555 696.5Q560 700 569 700H627Q634 700 635.5 695Q637 690 633 685Z" glyph-name="K" horiz-adv-x="638" unicode="K" /><glyph d="M534 17Q534 10 529 5Q524 0 517 0H105Q98 0 93 5Q88 10 88 17V683Q88 690 93 695Q98 700 105 700H143Q150 700 155 695Q160 690 160 683V66H517Q524 66 529 61Q534 56 534 49Z" glyph-name="L" horiz-adv-x="543" unicode="L" /><glyph d="M428 111Q410 111 403 126L159 619V17Q159 10 154.5 5Q150 0 143 0H105Q98 0 93 5Q88 10 88 17V683Q88 690 93 695Q98 700 105 700H182Q199 700 206 685L443 203L680 685Q688 700 705 700H780Q787 700 792 695Q797 690 797 683V17Q797 10 792 5Q787 0 780 0H743Q735 0 730.5 5Q726 10 726 17V619L480 126Q473 111 456 111Z" glyph-name="M" horiz-adv-x="885" unicode="M" /><glyph d="M160 587 160 17Q160 10 155 5Q150 0 143 0H105Q98 0 93 5Q88 10 88 17V683Q88 690 93 695Q98 700 105 700H154Q169 700 180 686L566 116V683Q566 690 570.5 695Q575 700 582 700H620Q627 700 632 695Q637 690 637 683V17Q637 10 632 5Q627 0 620 0H577Q559 0 548 15Z" glyph-name="N" horiz-adv-x="725" unicode="N" /><glyph d="M748 350Q748 272 720 205.5Q692 139 644 90.5Q596 42 531.5 14.5Q467 -13 393 -13Q320 -13 255.5 14.5Q191 42 143 90.5Q95 139 67 205.5Q39 272 39 350Q39 428 67 494.5Q95 561 143 609.5Q191 658 255.5 685.5Q320 713 393 713Q467 713 531.5 685.5Q596 658 644 609.5Q692 561 720 494.5Q748 428 748 350ZM674 350Q674 413 653 467.5Q632 522 595 562Q558 602 506.5 625Q455 648 393 648Q332 648 280.5 625Q229 602 192 562Q155 522 134 467.5Q113 413 113 350Q113 287 134 232.5Q155 178 192 138Q229 98 280.5 75Q332 52 393 52Q455 52 506.5 75Q558 98 595 138Q632 178 653 232.5Q674 287 674 350Z" glyph-name="O" horiz-adv-x="787" unicode="O" /><glyph d="M160 17Q160 10 155 5Q150 0 143 0H105Q98 0 93 5Q88 10 88 17V683Q88 690 93 695Q98 700 105 700H348Q410 700 455.5 682.5Q501 665 531 635.5Q561 606 576 567Q591 528 591 484Q591 440 576 400Q561 360 531 330Q501 300 455.5 282Q410 264 348 264H160ZM346 328Q381 328 412.5 338Q444 348 467.5 367.5Q491 387 504.5 416Q518 445 518 484Q518 522 504.5 550.5Q491 579 467.5 598Q444 617 412.5 626.5Q381 636 346 636H160V328Z" glyph-name="P" horiz-adv-x="614" unicode="P" /><glyph d="M627 74Q580 32 520.5 9.5Q461 -13 393 -13Q320 -13 255.5 14.5Q191 42 143 90.5Q95 139 67 205.5Q39 272 39 350Q39 428 67 494.5Q95 561 143 609.5Q191 658 255.5 685.5Q320 713 393 713Q467 713 531.5 685.5Q596 658 644 609.5Q692 561 720 494.5Q748 428 748 350Q748 282 727 223.5Q706 165 669 118L755 40Q760 35 760.5 28Q761 21 756 16L737 -2Q732 -7 725 -7.5Q718 -8 713 -3ZM393 52Q447 52 494 70Q541 88 577 120L392 286Q387 291 386.5 298Q386 305 391 310L409 329Q413 334 420.5 334.5Q428 335 433 330L617 164Q644 202 659 249Q674 296 674 350Q674 413 653 467.5Q632 522 595 562Q558 602 506.5 625Q455 648 393 648Q332 648 280.5 625Q229 602 192 562Q155 522 134 467.5Q113 413 113 350Q113 287 134 232.5Q155 178 192 138Q229 98 280.5 75Q332 52 393 52Z" glyph-name="Q" horiz-adv-x="787" unicode="Q" /><glyph d="M583 0Q574 0 569 4Q564 8 559 16L395 298H160V17Q160 10 155 5Q150 0 143 0H105Q98 0 93 5Q88 10 88 17V683Q88 690 93 695Q98 700 105 700H389Q444 700 487.5 685.5Q531 671 561.5 645Q592 619 608.5 582.5Q625 546 625 502Q625 477 618 448Q611 419 593 392.5Q575 366 544.5 344.5Q514 323 467 311L640 17Q644 12 640.5 6Q637 0 629 0ZM391 359Q466 359 508.5 398Q551 437 551 499Q551 560 508.5 598Q466 636 391 636H160V359Z" glyph-name="R" horiz-adv-x="674" unicode="R" /><glyph d="M301 713Q379 713 440 687Q501 661 540 618Q548 610 546.5 602.5Q545 595 539 590L518 572Q504 560 489 573Q450 611 404.5 631Q359 651 300 651Q266 651 234.5 642.5Q203 634 179 618Q155 602 141 578Q127 554 127 524Q127 506 132 489.5Q137 473 149.5 458.5Q162 444 184.5 431.5Q207 419 242 410L396 368Q484 345 523.5 300Q563 255 563 187Q563 150 547 114.5Q531 79 499 50.5Q467 22 417.5 4.5Q368 -13 300 -13Q247 -13 204.5 -2Q162 9 129 26Q96 43 72.5 63.5Q49 84 35 104Q29 111 29.5 119.5Q30 128 38 133L63 152Q80 162 93 146Q123 109 175 79.5Q227 50 303 50Q350 50 384.5 61.5Q419 73 442 91.5Q465 110 476.5 133.5Q488 157 488 182Q488 230 459 259Q430 288 367 305L213 346Q125 369 89 415.5Q53 462 53 520Q53 563 72 598.5Q91 634 124 659.5Q157 685 202.5 699Q248 713 301 713Z" glyph-name="S" horiz-adv-x="600" unicode="S" /><glyph d="M12 683Q12 690 16.5 695Q21 700 29 700H584Q591 700 596 695Q601 690 601 683V651Q601 644 596 639Q591 634 584 634H342V17Q342 10 337 5Q332 0 325 0H286Q279 0 274 5Q269 10 269 17V634H29Q21 634 16.5 639Q12 644 12 651Z" glyph-name="T" horiz-adv-x="613" unicode="T" /><glyph d="M623 239Q623 179 602.5 132Q582 85 546 52.5Q510 20 460.5 3.5Q411 -13 352 -13Q294 -13 244 3.5Q194 20 157.5 52Q121 84 100.5 131Q80 178 80 238V683Q80 690 85 695Q90 700 97 700H134Q142 700 146.5 695Q151 690 151 683V238Q151 193 166.5 158.5Q182 124 209 100Q236 76 272.5 63.5Q309 51 352 51Q394 51 430.5 63.5Q467 76 494.5 100Q522 124 537.5 158.5Q553 193 553 238V683Q553 690 557.5 695Q562 700 570 700H606Q613 700 618 695Q623 690 623 683Z" glyph-name="U" horiz-adv-x="703" unicode="U" /><glyph d="M295 0Q288 0 281.5 4Q275 8 272 16L12 681Q8 689 12 694.5Q16 700 23 700H71Q83 700 90 685L325 73H329L562 685Q569 700 581 700H625Q633 700 636.5 694.5Q640 689 637 681L377 16Q371 0 354 0Z" glyph-name="V" horiz-adv-x="649" unicode="V" /><glyph d="M795 16Q793 8 786 4Q779 0 773 0H716Q700 0 694 16L508 484L323 16Q317 0 301 0H242Q235 0 228.5 4Q222 8 220 16L19 681Q17 689 21 694.5Q25 700 33 700H77Q90 700 95 684L273 81L465 564Q472 580 485 580H532Q545 580 552 564L744 85L921 684Q926 700 939 700H982Q1001 700 996 681Z" glyph-name="W" horiz-adv-x="1015" unicode="W" /><glyph d="M93 14Q84 0 68 0H19Q11 0 8.5 6Q6 12 11 17L256 356L20 683Q16 688 19.5 694Q23 700 30 700H79Q88 700 94 696Q100 692 104 687L306 408L506 687Q510 692 516.5 696Q523 700 531 700H577Q585 700 587.5 694Q590 688 586 683L350 356L594 17Q599 12 596 6Q593 0 586 0H534Q520 0 509 14L300 301Z" glyph-name="X" horiz-adv-x="605" unicode="X" /><glyph d="M271 299 16 682Q11 688 14.5 694Q18 700 24 700H78Q90 700 100 687L306 374H310L516 687Q521 693 525 696.5Q529 700 537 700H591Q597 700 600.5 694.5Q604 689 599 682L343 299V17Q343 10 338 5Q333 0 326 0H288Q281 0 276 5Q271 10 271 17Z" glyph-name="Y" horiz-adv-x="615" unicode="Y" /><glyph d="M32 0Q24 0 19.5 5Q15 10 15 17V42Q15 50 19.5 57.5Q24 65 29 70L461 635H61Q54 635 49 640Q44 645 44 652V683Q44 690 49 695Q54 700 61 700H537Q553 700 553 683V656Q553 647 548.5 638.5Q544 630 539 624L113 65H558Q565 65 569.5 60Q574 55 574 48V17Q574 10 569.5 5Q565 0 558 0Z" glyph-name="Z" horiz-adv-x="593" unicode="Z" /><glyph d="M293 708Q293 692 277 692H151V-45H277Q284 -45 288.5 -50Q293 -55 293 -62V-87Q293 -103 277 -103H100Q93 -103 88 -98.5Q83 -94 83 -87V733Q83 740 88 745Q93 750 100 750H277Q284 750 288.5 745Q293 740 293 733Z" glyph-name="bracketleft" horiz-adv-x="312" unicode="[" /><glyph d="M413 18Q416 12 413 6Q410 0 402 0H374Q358 0 351 15L31 682Q28 689 31.5 694.5Q35 700 43 700H69Q85 700 91 685Z" glyph-name="backslash" horiz-adv-x="444" unicode="\" /><glyph d="M19 733Q19 740 23.5 745Q28 750 35 750H212Q219 750 224 745Q229 740 229 733V-87Q229 -94 224 -98.5Q219 -103 212 -103H35Q19 -103 19 -87V-62Q19 -55 23.5 -50Q28 -45 35 -45H161V692H35Q19 692 19 708Z" glyph-name="bracketright" horiz-adv-x="312" unicode="]" /><glyph d="M51 221Q43 221 39 226.5Q35 232 38 240L188 684Q193 700 209 700H265Q282 700 287 684L431 240Q433 232 429 226.5Q425 221 417 221H376Q359 221 354 237L237 627L113 237Q109 221 91 221Z" glyph-name="asciicircum" horiz-adv-x="469" unicode="^" /><glyph d="M22 -147Q15 -147 10 -142Q5 -137 5 -130V-99Q5 -92 10 -87Q15 -82 22 -82H250Q257 -82 262 -87Q267 -92 267 -99V-130Q267 -137 262 -142Q257 -147 250 -147Z" glyph-name="underscore" horiz-adv-x="272" unicode="_" /><glyph d="M101 692Q118 692 123 677L175 543Q180 526 162 526H135Q127 526 123.5 529.5Q120 533 116 540L40 674Q37 680 40.5 686Q44 692 52 692Z" glyph-name="grave" horiz-adv-x="205" unicode="`" /><glyph d="M35 232Q35 286 53.5 331Q72 376 104 408.5Q136 441 178.5 459Q221 477 269 477Q329 477 375 448.5Q421 420 443 376V447Q443 454 448 459Q453 464 460 464H496Q503 464 507.5 459Q512 454 512 447V17Q512 10 507.5 5Q503 0 496 0H460Q453 0 448 5Q443 10 443 17V88Q420 44 374.5 15.5Q329 -13 269 -13Q221 -13 178.5 5Q136 23 104 55.5Q72 88 53.5 133Q35 178 35 232ZM106 232Q106 194 118.5 161Q131 128 153.5 103.5Q176 79 207 65Q238 51 275 51Q312 51 343 65Q374 79 396.5 103.5Q419 128 431.5 161Q444 194 444 232Q444 270 431.5 303Q419 336 396.5 360.5Q374 385 343 399Q312 413 275 413Q238 413 207 399Q176 385 153.5 360.5Q131 336 118.5 303Q106 270 106 232Z" glyph-name="a" horiz-adv-x="578" unicode="a" /><glyph d="M135 377Q158 421 204.5 448.5Q251 476 311 476Q359 476 401.5 458Q444 440 475.5 407.5Q507 375 525 330Q543 285 543 231Q543 177 524.5 132.5Q506 88 474.5 55.5Q443 23 400.5 5Q358 -13 310 -13Q252 -13 205 14.5Q158 42 135 86V17Q135 10 130 5Q125 0 118 0H83Q76 0 71 5Q66 10 66 17V683Q66 690 71 695Q76 700 83 700H119Q126 700 130.5 695Q135 690 135 683ZM134 231Q134 193 146.5 160Q159 127 181.5 103Q204 79 235.5 65Q267 51 304 51Q341 51 372 65Q403 79 425.5 103Q448 127 460.5 160Q473 193 473 231Q473 269 460.5 302.5Q448 336 425.5 360.5Q403 385 372 399Q341 413 304 413Q267 413 235.5 399Q204 385 181.5 360.5Q159 336 146.5 302.5Q134 269 134 231Z" glyph-name="b" horiz-adv-x="578" unicode="b" /><glyph d="M481 106Q454 51 399 19Q344 -13 275 -13Q225 -13 181 5.5Q137 24 104.5 56.5Q72 89 53.5 134Q35 179 35 232Q35 285 53.5 330Q72 375 104.5 407.5Q137 440 181 458.5Q225 477 275 477Q344 477 399 445Q454 413 481 358Q486 349 483 342.5Q480 336 474 333L448 320Q432 311 422 327Q398 369 361.5 391Q325 413 275 413Q238 413 207 399Q176 385 153.5 360.5Q131 336 118.5 303Q106 270 106 232Q106 194 118.5 161Q131 128 153.5 103.5Q176 79 207 65Q238 51 275 51Q325 51 361.5 73Q398 95 422 137Q432 153 448 144L474 131Q480 128 483 121.5Q486 115 481 106Z" glyph-name="c" horiz-adv-x="513" unicode="c" /><glyph d="M35 231Q35 285 53.5 330Q72 375 104 407.5Q136 440 178 458Q220 476 268 476Q329 476 375 448Q421 420 443 376V683Q443 690 448 695Q453 700 460 700H496Q503 700 507.5 695Q512 690 512 683V17Q512 10 507.5 5Q503 0 496 0H460Q453 0 448 5Q443 10 443 17V88Q420 44 374.5 15.5Q329 -13 269 -13Q221 -13 178.5 5Q136 23 104 55.5Q72 88 53.5 132.5Q35 177 35 231ZM106 231Q106 193 118.5 160Q131 127 153.5 103Q176 79 207 65Q238 51 275 51Q312 51 343 65Q374 79 396.5 103Q419 127 431.5 160Q444 193 444 231Q444 269 431.5 302.5Q419 336 396.5 360.5Q374 385 343 399Q312 413 275 413Q238 413 207 399Q176 385 153.5 360.5Q131 336 118.5 302.5Q106 269 106 231Z" glyph-name="d" horiz-adv-x="578" unicode="d" /><glyph d="M273 477Q323 477 365.5 460Q408 443 439.5 412Q471 381 488.5 338Q506 295 506 243V230Q506 223 502 218Q498 213 490 213H106Q109 176 123 145.5Q137 115 160 94Q183 73 213 61.5Q243 50 277 50Q331 50 363.5 70Q396 90 418 112Q433 127 448 115L465 100Q473 93 473.5 86Q474 79 470 74Q441 33 389.5 10Q338 -13 277 -13Q232 -13 188.5 2Q145 17 111 47.5Q77 78 56 124.5Q35 171 35 234Q35 285 53 329.5Q71 374 102.5 407Q134 440 177.5 458.5Q221 477 273 477ZM438 264Q430 336 384.5 377Q339 418 273 418Q239 418 210.5 406.5Q182 395 160.5 374Q139 353 125.5 325Q112 297 108 264Z" glyph-name="e" horiz-adv-x="533" unicode="e" /><glyph d="M100 464 100 571Q100 608 112 635Q124 662 144 680Q164 698 189 706.5Q214 715 241 715Q268 715 295.5 707Q323 699 343 683Q348 679 348.5 672Q349 665 345 660L328 638Q322 630 314.5 631.5Q307 633 300 637Q285 646 270.5 649.5Q256 653 244 653Q212 653 190.5 630.5Q169 608 169 569V464H272Q279 464 284 459Q289 454 289 447V422Q289 415 284 410Q279 405 272 405H169V17Q169 10 164.5 5Q160 0 153 0H117Q110 0 105 5Q100 10 100 17V405H28Q21 405 16.5 410Q12 415 12 422V447Q12 454 16.5 459Q21 464 28 464Z" glyph-name="f" horiz-adv-x="297" unicode="f" /><glyph d="M275 -161Q360 -161 401.5 -116.5Q443 -72 443 -3V89Q421 46 375 18Q329 -10 269 -10Q220 -10 177.5 7.5Q135 25 103.5 57.5Q72 90 53.5 134.5Q35 179 35 233Q35 287 53.5 331.5Q72 376 103.5 408Q135 440 177.5 458Q220 476 268 476Q328 476 374.5 447.5Q421 419 443 375V447Q443 454 448 459Q453 464 460 464H496Q503 464 507.5 459Q512 454 512 447V-4Q512 -51 496.5 -90.5Q481 -130 450.5 -159Q420 -188 375.5 -204Q331 -220 273 -220Q178 -220 121.5 -178Q65 -136 49 -72Q47 -66 50.5 -61Q54 -56 60 -55L96 -45Q113 -42 116 -56Q121 -76 133 -95Q145 -114 164.5 -128.5Q184 -143 211.5 -152Q239 -161 275 -161ZM105 233Q105 195 117.5 162Q130 129 152.5 104.5Q175 80 206 66Q237 52 274 52Q311 52 342 66Q373 80 395.5 104.5Q418 129 430.5 162Q443 195 443 233Q443 271 430.5 304Q418 337 395.5 361Q373 385 342 399Q311 413 274 413Q237 413 206 399Q175 385 152.5 361Q130 337 117.5 304Q105 271 105 233Z" glyph-name="g" horiz-adv-x="578" unicode="g" /><glyph d="M437 258Q437 331 399.5 372.5Q362 414 290 414Q218 414 176.5 370.5Q135 327 135 258V16Q135 9 130 4.5Q125 0 119 0H83Q76 0 71 5Q66 10 66 17V683Q66 690 71 695Q76 700 83 700H119Q125 700 130 695.5Q135 691 135 684V383Q155 424 200 450Q245 476 306 476Q353 476 390 461Q427 446 453 419.5Q479 393 492.5 356Q506 319 506 274V16Q506 9 501 4.5Q496 0 489 0H454Q447 0 442 4.5Q437 9 437 16Z" glyph-name="h" horiz-adv-x="566" unicode="h" /><glyph d="M101 568Q78 568 61.5 585Q45 602 45 625Q45 648 61.5 665Q78 682 101 682Q124 682 140.5 665Q157 648 157 625Q157 602 140.5 585Q124 568 101 568ZM83 0Q76 0 71 5Q66 10 66 17V447Q66 454 71 459Q76 464 83 464H119Q126 464 130.5 459Q135 454 135 447V17Q135 10 130.5 5Q126 0 119 0Z" glyph-name="i" horiz-adv-x="201" unicode="i" /><glyph d="M98 569Q75 569 58 585.5Q41 602 41 625Q41 648 58 665Q75 682 98 682Q121 682 137.5 665Q154 648 154 625Q154 602 137.5 585.5Q121 569 98 569ZM118 464Q125 464 130 459Q135 454 135 447V-73Q135 -111 123 -139Q111 -167 91.5 -185Q72 -203 46.5 -211.5Q21 -220 -5 -220Q-34 -220 -61 -212Q-88 -204 -106 -188Q-111 -184 -112 -177.5Q-113 -171 -108 -166L-94 -146Q-83 -131 -68 -141Q-54 -150 -37.5 -154.5Q-21 -159 -10 -159Q22 -159 44 -137.5Q66 -116 66 -74V447Q66 454 71 459Q76 464 83 464Z" glyph-name="j" horiz-adv-x="202" unicode="j" /><glyph d="M135 17Q135 10 130.5 5Q126 0 119 0H83Q76 0 71 5Q66 10 66 17V683Q66 690 71 695Q76 700 83 700H119Q126 700 130.5 695Q135 690 135 683V289H196L350 454Q359 464 368 464H424Q431 464 433 458.5Q435 453 430 448L249 260L460 17Q465 12 463 6Q461 0 453 0H402Q385 0 375 13L189 230H135Z" glyph-name="k" horiz-adv-x="460" unicode="k" /><glyph d="M176 0Q126 0 95 26Q64 52 64 112V683Q64 690 69 695Q74 700 81 700H117Q124 700 128.5 695Q133 690 133 683V120Q133 91 147 75Q161 59 193 59H216Q223 59 228 54.5Q233 50 233 42V18Q233 9 227 4.5Q221 0 214 0Z" glyph-name="l" horiz-adv-x="235" unicode="l" /><glyph d="M135 16Q135 9 130 4.5Q125 0 119 0H83Q76 0 71 5Q66 10 66 17V447Q66 454 71 459Q76 464 83 464H119Q125 464 130 459Q135 454 135 447V384Q155 425 198 450.5Q241 476 298 476Q359 476 401.5 447Q444 418 463 370Q490 424 536.5 450Q583 476 641 476Q688 476 723.5 461Q759 446 783.5 419Q808 392 820.5 355.5Q833 319 833 276V16Q833 9 828 4.5Q823 0 816 0H781Q774 0 769 4.5Q764 9 764 16V262Q764 328 730.5 371Q697 414 628 414Q560 414 522 371Q484 328 484 262V16Q484 9 479 4.5Q474 0 467 0H432Q425 0 420 4.5Q415 9 415 16V262Q415 328 381.5 371Q348 414 280 414Q211 414 173 371Q135 328 135 262Z" glyph-name="m" horiz-adv-x="893" unicode="m" /><glyph d="M437 258Q437 331 399.5 372.5Q362 414 290 414Q218 414 176.5 370.5Q135 327 135 258V16Q135 9 130 4.5Q125 0 119 0H83Q76 0 71 5Q66 10 66 17V447Q66 454 71 459Q76 464 83 464H119Q125 464 130 459Q135 454 135 447V383Q155 424 200 450Q245 476 306 476Q353 476 390 461Q427 446 453 419.5Q479 393 492.5 356Q506 319 506 274V16Q506 9 501 4.5Q496 0 489 0H454Q447 0 442 4.5Q437 9 437 16Z" glyph-name="n" horiz-adv-x="566" unicode="n" /><glyph d="M35 232Q35 285 54 329.5Q73 374 105.5 406.5Q138 439 181.5 457.5Q225 476 275 476Q325 476 368.5 457.5Q412 439 444 406.5Q476 374 495 329.5Q514 285 514 232Q514 179 495 134Q476 89 444 56.5Q412 24 368.5 5.5Q325 -13 275 -13Q225 -13 181.5 5.5Q138 24 105.5 56.5Q73 89 54 134Q35 179 35 232ZM105 232Q105 194 117.5 161Q130 128 152.5 103.5Q175 79 206.5 65Q238 51 275 51Q312 51 343 65Q374 79 396.5 103.5Q419 128 431.5 161Q444 194 444 232Q444 270 431.5 303Q419 336 396.5 360.5Q374 385 343 399Q312 413 275 413Q238 413 206.5 399Q175 385 152.5 360.5Q130 336 117.5 303Q105 270 105 232Z" glyph-name="o" horiz-adv-x="549" unicode="o" /><glyph d="M135 376Q157 420 204 448Q251 476 311 476Q359 476 401 458Q443 440 474.5 407.5Q506 375 524.5 330.5Q543 286 543 232Q543 178 524.5 133Q506 88 474.5 55.5Q443 23 400.5 5Q358 -13 310 -13Q252 -13 205 14.5Q158 42 135 86V-189Q135 -196 130 -201Q125 -206 118 -206H83Q76 -206 71 -201Q66 -196 66 -189V447Q66 454 71 459Q76 464 83 464H118Q125 464 130 459Q135 454 135 447ZM134 232Q134 194 146.5 161Q159 128 181.5 103.5Q204 79 235.5 65Q267 51 304 51Q341 51 371.5 65Q402 79 424.5 103.5Q447 128 459.5 161Q472 194 472 232Q472 270 459.5 303Q447 336 424.5 360.5Q402 385 371.5 399Q341 413 304 413Q267 413 235.5 399Q204 385 181.5 360.5Q159 336 146.5 303Q134 270 134 232Z" glyph-name="p" horiz-adv-x="578" unicode="p" /><glyph d="M35 232Q35 286 53.5 330.5Q72 375 104 407.5Q136 440 178 458Q220 476 268 476Q329 476 375 448Q421 420 443 376V447Q443 454 448 459Q453 464 460 464H496Q503 464 507.5 459Q512 454 512 447V-189Q512 -196 507.5 -201Q503 -206 496 -206H460Q453 -206 448 -201Q443 -196 443 -189V88Q420 44 374.5 15.5Q329 -13 269 -13Q221 -13 178.5 5Q136 23 104 55.5Q72 88 53.5 133Q35 178 35 232ZM106 232Q106 194 118.5 161Q131 128 153.5 103.5Q176 79 207 65Q238 51 275 51Q312 51 343 65Q374 79 396.5 103.5Q419 128 431.5 161Q444 194 444 232Q444 270 431.5 303Q419 336 396.5 360.5Q374 385 343 399Q312 413 275 413Q238 413 207 399Q176 385 153.5 360.5Q131 336 118.5 303Q106 270 106 232Z" glyph-name="q" horiz-adv-x="578" unicode="q" /><glyph d="M278 465Q284 465 289 460.5Q294 456 294 448V412Q294 404 289 400Q284 396 279 396H262Q235 396 212 387.5Q189 379 172 360.5Q155 342 145 311.5Q135 281 135 237V16Q135 9 130 4.5Q125 0 119 0H83Q76 0 71 5Q66 10 66 17V447Q66 454 71 459Q76 464 83 464H116Q122 464 127 459Q132 454 132 447V378Q145 411 178.5 438Q212 465 262 465Z" glyph-name="r" horiz-adv-x="303" unicode="r" /><glyph d="M223 477Q278 477 322 460.5Q366 444 392 419Q398 414 398.5 406Q399 398 393 393L376 376Q362 364 347 376Q289 420 218 420Q167 420 139.5 398Q112 376 112 345Q112 319 130 302.5Q148 286 190 278L277 261Q347 247 381.5 216.5Q416 186 416 129Q416 104 404.5 79Q393 54 370 33.5Q347 13 311 0Q275 -13 226 -13Q163 -13 117.5 6.5Q72 26 43 53Q32 64 31.5 73.5Q31 83 39 90L56 105Q64 112 71 109.5Q78 107 84 102Q113 76 148 60Q183 44 229 44Q286 44 315.5 69Q345 94 345 124Q345 157 321.5 175.5Q298 194 250 203L169 218Q106 229 73.5 260Q41 291 41 342Q41 372 55 397Q69 422 93.5 440Q118 458 151 467.5Q184 477 223 477Z" glyph-name="s" horiz-adv-x="446" unicode="s" /><glyph d="M97 405 25 405Q18 405 13.5 410Q9 415 9 422V447Q9 454 13.5 459Q18 464 25 464H97V615Q97 622 102 627Q107 632 114 632H150Q157 632 161.5 627Q166 622 166 615V464H315Q322 464 326.5 459Q331 454 331 447V422Q331 415 326.5 410Q322 405 315 405H166V140Q166 98 188 77Q210 56 242 56Q255 56 269 59.5Q283 63 298 71Q317 84 327 69L340 49Q345 43 343.5 36.5Q342 30 337 26Q296 -7 232 -7Q207 -7 182.5 1Q158 9 139 25.5Q120 42 108.5 67.5Q97 93 97 129Z" glyph-name="t" horiz-adv-x="349" unicode="t" /><glyph d="M129 200Q129 129 165.5 88Q202 47 274 47Q345 47 385 90Q425 133 425 200V447Q425 454 430 459Q435 464 442 464H477Q484 464 489 459Q494 454 494 447V17Q494 10 489 5Q484 0 477 0H442Q435 0 430 4.5Q425 9 425 16V81Q405 39 361.5 13Q318 -13 257 -13Q211 -13 174.5 1.5Q138 16 112.5 42.5Q87 69 73.5 106Q60 143 60 188V447Q60 454 65 459Q70 464 76 464H112Q119 464 124 459Q129 454 129 447Z" glyph-name="u" horiz-adv-x="560" unicode="u" /><glyph d="M211 0Q194 0 189 16L20 445Q18 452 21.5 458Q25 464 32 464H76Q90 464 95 450L239 68L381 450Q386 464 400 464H442Q450 464 454 458Q458 452 455 445L288 16Q281 0 265 0Z" glyph-name="v" horiz-adv-x="476" unicode="v" /><glyph d="M262 16Q257 0 240 0H188Q171 0 166 16L21 445Q18 453 22 458.5Q26 464 34 464H77Q92 464 97 450L215 76L332 448Q337 464 351 464H401Q415 464 420 448L537 76L655 449Q660 464 675 464H716Q723 464 727 458.5Q731 453 728 445L584 16Q579 0 562 0H509Q492 0 487 16L375 378Z" glyph-name="w" horiz-adv-x="749" unicode="w" /><glyph d="M97 13Q88 0 75 0H25Q18 0 15.5 5.5Q13 11 17 16L188 237L24 448Q20 453 23 458.5Q26 464 32 464H88Q96 464 100.5 460.5Q105 457 110 450L239 285L361 450Q370 464 383 464H429Q436 464 439 458.5Q442 453 437 448L278 235L449 16Q454 11 451 5.5Q448 0 441 0H385Q377 0 372 3.5Q367 7 362 13L226 187Z" glyph-name="x" horiz-adv-x="464" unicode="x" /><glyph d="M210 -118Q187 -173 157.5 -196.5Q128 -220 75 -220H63Q55 -220 49.5 -215.5Q44 -211 44 -202V-178Q44 -161 61 -161H75Q99 -161 116 -148Q133 -135 147 -104L208 40L24 445Q21 452 25 458Q29 464 37 464H76Q84 464 90 461.5Q96 459 101 448L246 124L379 448Q383 456 387.5 460Q392 464 402 464H440Q448 464 451.5 458.5Q455 453 452 445Z" glyph-name="y" horiz-adv-x="471" unicode="y" /><glyph d="M114 60 400 60Q407 60 411.5 55Q416 50 416 43V17Q416 10 411.5 5Q407 0 400 0H41Q34 0 29 5Q24 10 24 17V41Q24 49 26 53.5Q28 58 33 63L315 404H57Q50 404 45 409Q40 414 40 421V447Q40 454 45 459Q50 464 57 464H388Q395 464 400 459Q405 454 405 447V423Q405 415 403 411Q401 407 396 402Z" glyph-name="z" horiz-adv-x="442" unicode="z" /><glyph d="M175 5Q175 -23 185.5 -34Q196 -45 219 -45H290Q297 -45 301.5 -50Q306 -55 306 -62V-87Q306 -103 290 -103H199Q159 -103 131 -80Q103 -57 103 -3V283Q103 313 74 313H43Q37 313 31.5 318Q26 323 26 331V351Q26 360 31.5 364.5Q37 369 43 369H74Q103 369 103 400V649Q103 703 131 726.5Q159 750 199 750H290Q297 750 301.5 745Q306 740 306 733V708Q306 692 290 692H219Q196 692 185.5 680.5Q175 669 175 641V414Q175 379 157 361.5Q139 344 123 341Q139 338 157 320.5Q175 303 175 268Z" glyph-name="braceleft" horiz-adv-x="326" unicode="{" /><glyph d="M99 -125Q92 -125 87 -120Q82 -115 82 -108V808Q82 815 87 820Q92 825 99 825H121Q128 825 133 820Q138 815 138 808V-108Q138 -115 133 -120Q128 -125 121 -125Z" glyph-name="bar" horiz-adv-x="220" unicode="|" /><glyph d="M151 268Q151 303 169 320.5Q187 338 203 341Q187 344 169 361.5Q151 379 151 414V641Q151 669 140.5 680.5Q130 692 107 692H36Q20 692 20 708V733Q20 740 24.5 745Q29 750 36 750H127Q167 750 195 726.5Q223 703 223 649V400Q223 369 252 369H283Q289 369 294.5 364.5Q300 360 300 351V331Q300 323 294.5 318Q289 313 283 313H252Q223 313 223 283V-3Q223 -57 195 -80Q167 -103 127 -103H36Q20 -103 20 -87V-62Q20 -55 24.5 -50Q29 -45 36 -45H107Q130 -45 140.5 -34Q151 -23 151 5Z" glyph-name="braceright" horiz-adv-x="325" unicode="}" /><glyph d="M424 299Q409 298 371.5 303.5Q334 309 291.5 315.5Q249 322 210.5 327.5Q172 333 155 333Q140 333 132.5 326Q125 319 114 307Q104 297 92 304L78 319Q66 326 69 340Q75 360 97 379Q119 398 150 398Q166 398 204 392.5Q242 387 284.5 381Q327 375 365 369.5Q403 364 420 364Q435 364 443 371Q451 378 462 390Q471 401 483 393L496 378Q510 369 505 357Q499 337 477.5 318.5Q456 300 424 299Z" glyph-name="asciitilde" horiz-adv-x="571" unicode="~" /><glyph d="" glyph-name="uni00A0" horiz-adv-x="239" unicode=" " /><glyph d="M112 474Q140 474 159 454.5Q178 435 178 408Q178 381 159 361.5Q140 342 112 342Q85 342 66 361.5Q47 381 47 408Q47 435 66 454.5Q85 474 112 474ZM152 -222Q152 -229 147 -234Q142 -239 135 -239H91Q84 -239 79 -234Q74 -229 74 -222L80 217Q80 224 84.5 229Q89 234 97 234H130Q137 234 142 229Q147 224 147 217Z" glyph-name="exclamdown" horiz-adv-x="226" unicode="¡" /><glyph d="M297 -72Q297 -82 290 -89Q283 -96 273 -96H259Q249 -96 242 -89Q235 -82 235 -72V-10Q192 -3 155.5 18Q119 39 92 70.5Q65 102 50 143Q35 184 35 232Q35 280 50 321Q65 362 92 393.5Q119 425 155.5 446Q192 467 235 474V540Q235 550 242 556.5Q249 563 259 563H273Q283 563 290 556.5Q297 550 297 540V476Q359 471 407.5 440Q456 409 481 358Q486 349 483 342.5Q480 336 474 333L448 320Q432 311 422 327Q401 364 370 385.5Q339 407 297 412V52Q339 57 370 78.5Q401 100 422 137Q432 153 448 144L474 131Q480 128 483 121.5Q486 115 481 106Q456 55 407.5 24Q359 -7 297 -12ZM106 232Q106 166 141.5 118Q177 70 235 56V408Q177 394 141.5 346Q106 298 106 232Z" glyph-name="cent" horiz-adv-x="513" unicode="¢" /><glyph d="M538 17Q538 10 533 5Q528 0 521 0H56Q49 0 44 5Q39 10 39 17V50Q39 57 44 62Q49 67 56 67H128V286H56Q49 286 44 291Q39 296 39 303V331Q39 338 44 343Q49 348 56 348H128V495Q128 546 144.5 586Q161 626 189.5 654.5Q218 683 257 698Q296 713 341 713Q408 713 459.5 683.5Q511 654 538 599Q541 592 538.5 585.5Q536 579 530 576L504 563Q496 558 488.5 561Q481 564 478 570Q455 611 420 630.5Q385 650 341 650Q307 650 280.5 637.5Q254 625 236.5 603.5Q219 582 210 553Q201 524 201 491V348H373Q380 348 385 343Q390 338 390 331V303Q390 296 385 291Q380 286 373 286H201V67H521Q528 67 533 62Q538 57 538 50Z" glyph-name="sterling" horiz-adv-x="581" unicode="£" /><glyph d="M647 349Q647 294 629 246Q611 198 579 160L644 91Q649 86 650 78.5Q651 71 645 66L628 52Q616 41 605 52L538 122Q503 93 457 77Q411 61 358 61Q304 61 258.5 77Q213 93 177 122L111 52Q99 40 87 52L71 66Q66 71 66.5 78.5Q67 86 72 91L137 160Q105 198 87 246Q69 294 69 349Q69 404 87 452Q105 500 137 538L72 607Q67 612 66.5 619.5Q66 627 71 632L87 646Q99 658 111 646L177 576Q213 605 258.5 621Q304 637 358 637Q411 637 457 621Q503 605 538 576L605 646Q616 657 628 646L645 632Q651 627 650 619.5Q649 612 644 607L579 538Q611 500 629 452Q647 404 647 349ZM358 581Q317 581 282 568.5Q247 556 219 534L358 387L497 534Q468 556 433 568.5Q398 581 358 581ZM584 349Q584 434 535 494L396 349L535 204Q584 264 584 349ZM131 349Q131 307 144 270Q157 233 181 204L319 349L181 494Q157 465 144 428Q131 391 131 349ZM358 117Q398 117 433 129.5Q468 142 497 164L358 311L219 164Q247 142 282 129.5Q317 117 358 117Z" glyph-name="currency" horiz-adv-x="716" unicode="¤" /><glyph d="M361 17Q361 10 356 5Q351 0 344 0H306Q299 0 294.5 5Q290 10 290 17V226H112Q105 226 100 231Q95 236 95 243V267Q95 274 100 279Q105 284 112 284H290V299L233 385H112Q105 385 100 390Q95 395 95 402V425Q95 432 100 437Q105 442 112 442H194L34 682Q29 688 32.5 694Q36 700 43 700H96Q108 700 118 687L325 374H328L535 687Q543 700 555 700H609Q615 700 618.5 694.5Q622 689 617 682L457 442H538Q545 442 550 437Q555 432 555 425V402Q555 395 550 390Q545 385 538 385H418L361 299V284H538Q545 284 550 279Q555 274 555 267V243Q555 236 550 231Q545 226 538 226H361Z" glyph-name="yen" horiz-adv-x="650" unicode="¥" /><glyph d="M138 432Q138 425 133.5 420Q129 415 122 415H98Q91 415 86 420Q81 425 81 432V808Q81 815 86 820Q91 825 98 825H122Q129 825 133.5 820Q138 815 138 808ZM138 -108Q138 -115 133.5 -120Q129 -125 122 -125H98Q91 -125 86 -120Q81 -115 81 -108V269Q81 276 86 280.5Q91 285 98 285H122Q138 285 138 269Z" glyph-name="brokenbar" horiz-adv-x="219" unicode="¦" /><glyph d="M323 -233Q254 -233 194.5 -207.5Q135 -182 97 -137Q91 -129 92 -121Q93 -113 99 -108L121 -91Q128 -86 136.5 -87Q145 -88 150 -94Q186 -135 231 -152.5Q276 -170 322 -170Q357 -170 385.5 -160.5Q414 -151 434.5 -134.5Q455 -118 466.5 -96Q478 -74 478 -49Q478 -2 450 30.5Q422 63 354 93L174 173Q96 208 64 252Q32 296 32 350Q32 401 64 445.5Q96 490 153 511Q141 541 141 580Q141 618 157.5 651.5Q174 685 204 711Q234 737 276 752Q318 767 370 767Q439 767 498.5 741.5Q558 716 596 671Q602 663 601 655Q600 647 594 642L572 625Q565 620 556.5 621Q548 622 543 628Q507 669 462 686.5Q417 704 371 704Q337 704 308 694.5Q279 685 258.5 668.5Q238 652 226.5 630Q215 608 215 583Q215 536 243 503.5Q271 471 339 441L519 361Q597 326 629 282Q661 238 661 184Q661 133 629 88.5Q597 44 540 23Q552 -7 552 -46Q552 -84 535.5 -117.5Q519 -151 489 -177Q459 -203 417 -218Q375 -233 323 -233ZM396 150Q433 133 461.5 115Q490 97 510 74Q549 92 569 119Q589 146 589 178Q589 204 579 224Q569 244 548 261Q527 278 495.5 294Q464 310 422 329L297 384Q260 401 231.5 419Q203 437 183 460Q144 442 124 415Q104 388 104 356Q104 330 114 310Q124 290 145 273Q166 256 197.5 240Q229 224 271 205Z" glyph-name="section" horiz-adv-x="693" unicode="§" /><glyph d="M188 578Q188 600 204 616.5Q220 633 242 633Q265 633 281 616.5Q297 600 297 578Q297 556 281 540Q265 524 242 524Q220 524 204 540Q188 556 188 578ZM20 578Q20 600 36 616.5Q52 633 75 633Q97 633 113 616.5Q129 600 129 578Q129 556 113 540Q97 524 75 524Q52 524 36 540Q20 556 20 578Z" glyph-name="dieresis" horiz-adv-x="318" unicode="¨" /><glyph d="M44 350Q44 431 73.5 499Q103 567 154 617Q205 667 274 695Q343 723 421 723Q499 723 567.5 695Q636 667 687 617Q738 567 767.5 499Q797 431 797 350Q797 270 767.5 201.5Q738 133 687 83.5Q636 34 567.5 6Q499 -22 421 -22Q343 -22 274 6Q205 34 154 83.5Q103 133 73.5 201.5Q44 270 44 350ZM744 350Q744 420 718.5 479.5Q693 539 649.5 582Q606 625 547 649.5Q488 674 421 674Q354 674 294.5 649.5Q235 625 191.5 582Q148 539 122.5 479.5Q97 420 97 350Q97 280 122.5 221Q148 162 191.5 119Q235 76 294.5 51.5Q354 27 421 27Q488 27 547 51.5Q606 76 649.5 119Q693 162 718.5 221Q744 280 744 350ZM425 505Q392 505 365.5 493.5Q339 482 319.5 461Q300 440 289.5 411.5Q279 383 279 350Q279 317 289.5 288.5Q300 260 319.5 239Q339 218 365.5 206.5Q392 195 425 195Q471 195 501 215.5Q531 236 551 270Q560 287 579 278L602 267Q617 260 612 246Q592 196 541.5 164Q491 132 425 132Q379 132 339.5 148.5Q300 165 271 194Q242 223 225.5 263Q209 303 209 350Q209 397 225.5 437Q242 477 271 506Q300 535 339.5 551.5Q379 568 425 568Q491 568 541.5 536Q592 504 612 454Q617 440 602 433L579 422Q560 413 551 430Q531 464 501 484.5Q471 505 425 505Z" glyph-name="copyright" horiz-adv-x="841" unicode="©" /><glyph d="M339 425Q321 399 290.5 382.5Q260 366 220 366Q186 366 155.5 378.5Q125 391 102 414.5Q79 438 66 470Q53 502 53 541Q53 580 66.5 612Q80 644 102.5 667Q125 690 156 703Q187 716 221 716Q259 716 290 699.5Q321 683 339 657V691Q339 697 343.5 702Q348 707 355 707H380Q386 707 390.5 702.5Q395 698 395 691V390Q395 383 390 378.5Q385 374 380 374H355Q339 374 339 390ZM225 663Q174 663 142.5 628Q111 593 111 541Q111 515 119.5 492.5Q128 470 143 453.5Q158 437 179 427.5Q200 418 225 418Q250 418 271 427.5Q292 437 307 453.5Q322 470 330.5 492.5Q339 515 339 541Q339 567 330.5 589Q322 611 307 627.5Q292 644 271 653.5Q250 663 225 663ZM94 264Q88 264 83.5 268.5Q79 273 79 279V302Q79 309 83.5 313.5Q88 318 94 318H379Q395 318 395 302V279Q395 273 390.5 268.5Q386 264 379 264Z" glyph-name="ordfeminine" horiz-adv-x="464" unicode="ª" /><glyph d="M340 30Q323 30 316 44L220 227Q213 240 220 255L316 438Q320 446 326.5 449Q333 452 340 452H380Q386 452 389.5 447Q393 442 389 435L294 241L389 47Q392 41 389 35.5Q386 30 380 30ZM171 30Q154 30 146 44L51 227Q43 240 51 255L146 438Q150 446 156.5 449Q163 452 171 452H210Q217 452 220.5 447Q224 442 220 435L125 241L220 47Q223 41 220 35.5Q217 30 210 30Z" glyph-name="guillemotleft" horiz-adv-x="443" unicode="«" /><glyph d="M480 244Q480 237 475 232Q470 227 463 227H427Q419 227 414.5 232Q410 237 410 244V404H59Q52 404 47 408.5Q42 413 42 421V455Q42 463 47 467.5Q52 472 59 472H463Q470 472 475 467.5Q480 463 480 455Z" glyph-name="logicalnot" horiz-adv-x="548" unicode="¬" /><glyph d="M44 350Q44 431 73.5 499Q103 567 153.5 617Q204 667 272.5 695Q341 723 419 723Q497 723 565 695Q633 667 683.5 617Q734 567 763.5 499Q793 431 793 350Q793 270 763.5 201.5Q734 133 683.5 83.5Q633 34 565 6Q497 -22 419 -22Q341 -22 272.5 6Q204 34 153.5 83.5Q103 133 73.5 201.5Q44 270 44 350ZM740 350Q740 421 715 481Q690 541 646.5 584.5Q603 628 544.5 652.5Q486 677 419 677Q352 677 293 652.5Q234 628 190.5 584.5Q147 541 121.5 481Q96 421 96 350Q96 280 121.5 220Q147 160 190.5 116.5Q234 73 293 48.5Q352 24 419 24Q486 24 544.5 48.5Q603 73 646.5 116.5Q690 160 715 220Q740 280 740 350ZM338 136Q338 131 333.5 126.5Q329 122 324 122H292Q287 122 282.5 126.5Q278 131 278 136V560Q278 565 282.5 569.5Q287 574 292 574H445Q486 574 517 562Q548 550 569 530Q590 510 600.5 484Q611 458 611 430Q611 385 584.5 347.5Q558 310 506 295L599 136Q601 132 598.5 127Q596 122 591 122H553Q545 122 540 126Q535 130 532 135L445 286H338ZM549 431Q549 474 520 498Q491 522 447 522H338V338H447Q491 338 520 363Q549 388 549 431Z" glyph-name="registered" horiz-adv-x="838" unicode="®" /><glyph d="M153 548Q146 548 141 553Q136 558 136 565V589Q136 596 141 601Q146 606 153 606H382Q389 606 394 601Q399 596 399 589V565Q399 558 394 553Q389 548 382 548Z" glyph-name="macron" horiz-adv-x="535" unicode="¯" /><glyph d="M186 423Q156 423 129 434.5Q102 446 82.5 465.5Q63 485 51.5 511.5Q40 538 40 568Q40 598 51.5 624.5Q63 651 82.5 670.5Q102 690 129 701.5Q156 713 186 713Q216 713 243 701.5Q270 690 289.5 670.5Q309 651 320.5 624.5Q332 598 332 568Q332 538 320.5 511.5Q309 485 289.5 465.5Q270 446 243 434.5Q216 423 186 423ZM186 664Q148 664 121 636.5Q94 609 94 568Q94 527 121 499Q148 471 186 471Q224 471 251.5 499Q279 527 279 568Q279 609 251.5 636.5Q224 664 186 664Z" glyph-name="degree" horiz-adv-x="372" unicode="°" /><glyph d="M293 590Q300 590 305 585Q310 580 310 573V405H477Q485 405 489.5 400Q494 395 494 388V353Q494 346 489.5 341Q485 336 477 336H310V167Q310 159 305 154.5Q300 150 293 150H256Q249 150 244 154.5Q239 159 239 167V336H73Q66 336 61 341Q56 346 56 353V388Q56 395 61 400Q66 405 73 405H239V573Q239 580 244 585Q249 590 256 590ZM494 17Q494 10 489.5 5Q485 0 477 0H73Q66 0 61 5Q56 10 56 17V50Q56 57 61 62Q66 67 73 67H477Q485 67 489.5 62Q494 57 494 50Z" glyph-name="plusminus" horiz-adv-x="550" unicode="±" /><glyph d="M37 498Q26 498 26 508V535Q26 540 28.5 544Q31 548 33 550L138 640Q173 669 195 693.5Q217 718 217 747Q217 776 197 792.5Q177 809 149 809Q118 809 99 791.5Q80 774 70 748Q66 736 52 740L30 746Q20 749 22 760Q30 798 64 826Q98 854 149 854Q199 854 233.5 825.5Q268 797 268 749Q268 715 249.5 686Q231 657 188 622L95 545H263Q268 545 271.5 541.5Q275 538 275 534V509Q275 498 263 498Z" glyph-name="twosuperior" horiz-adv-x="300" unicode="²" /><glyph d="M154 815Q127 815 110.5 802.5Q94 790 86 773Q81 763 70 767L49 775Q38 779 44 791Q55 816 83 836.5Q111 857 157 857Q204 857 234 831.5Q264 806 264 766Q264 740 250.5 719.5Q237 699 213 689Q244 681 263 658Q282 635 282 602Q282 554 246 523.5Q210 493 153 493Q93 493 57 524Q21 555 21 603V611Q21 619 29 619H63Q71 619 71 611V603Q71 580 91 557.5Q111 535 152 535Q189 535 210 555.5Q231 576 231 602Q231 628 211.5 646Q192 664 156 664H145Q134 664 134 675V693Q134 705 145 705H156Q183 705 199.5 720.5Q216 736 216 759Q216 782 199.5 798.5Q183 815 154 815Z" glyph-name="threesuperior" horiz-adv-x="310" unicode="³" /><glyph d="M158 692Q166 692 169.5 686Q173 680 169 674L94 540Q86 526 74 526H47Q39 526 35.5 530.5Q32 535 35 543L87 677Q92 692 109 692Z" glyph-name="acute" horiz-adv-x="205" unicode="´" /><glyph d="M80 447Q80 454 85 459Q90 464 97 464H133Q140 464 145 459Q150 454 150 447V200Q150 129 186.5 88Q223 47 295 47Q366 47 405.5 90Q445 133 445 200V447Q445 454 450 459Q455 464 462 464H498Q505 464 509.5 459Q514 454 514 447V17Q514 10 509.5 5Q505 0 498 0H462Q455 0 450 4.5Q445 9 445 16V81Q425 39 382 13Q339 -13 282 -13Q236 -13 198.5 4Q161 21 144 50V-137Q144 -144 139 -149Q134 -154 127 -154H97Q90 -154 85 -149Q80 -144 80 -137Z" glyph-name="mu" horiz-adv-x="594" unicode="µ" /><glyph d="M33 514Q33 552 47 586Q61 620 86 645.5Q111 671 145 685.5Q179 700 218 700H433Q441 700 445.5 695Q450 690 450 683V17Q450 10 445.5 5Q441 0 433 0H407Q400 0 395 5Q390 10 390 17V645H279V17Q279 10 274.5 5Q270 0 263 0H235Q228 0 223.5 5Q219 10 219 17V330H215Q176 330 142.5 344.5Q109 359 84.5 384Q60 409 46.5 442.5Q33 476 33 514Z" glyph-name="paragraph" horiz-adv-x="545" unicode="¶" /><glyph d="M123 289Q95 289 75.5 308.5Q56 328 56 356Q56 384 75.5 403.5Q95 423 123 423Q151 423 170.5 403.5Q190 384 190 356Q190 328 170.5 308.5Q151 289 123 289Z" glyph-name="periodcentered" horiz-adv-x="246" unicode="·" /><glyph d="M162 1 101 -134Q95 -148 82 -148H51Q44 -148 40.5 -143.5Q37 -139 40 -130L94 6Z" glyph-name="cedilla" horiz-adv-x="186" unicode="¸" /><glyph d="M15 797Q15 807 24 807H39Q55 807 64 812.5Q73 818 81 835Q86 846 90.5 848Q95 850 102 850H115Q126 850 126 840V509Q126 498 114 498H88Q77 498 77 509V766H24Q15 766 15 775Z" glyph-name="onesuperior" horiz-adv-x="175" unicode="¹" /><glyph d="M227 366Q191 366 160 379Q129 392 105.5 415.5Q82 439 68.5 471Q55 503 55 541Q55 579 68.5 611Q82 643 105.5 666.5Q129 690 160 703.5Q191 717 227 717Q263 717 294 703.5Q325 690 348 666.5Q371 643 384.5 611Q398 579 398 541Q398 503 384.5 471Q371 439 348 415.5Q325 392 294 379Q263 366 227 366ZM226 664Q201 664 180 654.5Q159 645 144 628.5Q129 612 120.5 589.5Q112 567 112 541Q112 516 120.5 493.5Q129 471 144 454.5Q159 438 180 428.5Q201 419 226 419Q252 419 273 428.5Q294 438 309 454.5Q324 471 332.5 493.5Q341 516 341 541Q341 567 332.5 589.5Q324 612 309 628.5Q294 645 273 654.5Q252 664 226 664ZM88 264Q81 264 76.5 268.5Q72 273 72 279V302Q72 318 88 318H365Q371 318 375.5 313.5Q380 309 380 302V279Q380 273 375.5 268.5Q371 264 365 264Z" glyph-name="ordmasculine" horiz-adv-x="453" unicode="º" /><glyph d="M127 44Q123 36 116.5 33Q110 30 102 30H63Q57 30 53.5 35.5Q50 41 53 47L148 241L53 435Q50 442 53.5 447Q57 452 63 452H102Q110 452 116.5 449Q123 446 127 438L223 255Q230 240 223 227ZM296 44Q289 30 272 30H232Q226 30 223 35.5Q220 41 223 47L318 241L223 435Q219 442 222.5 447Q226 452 232 452H272Q289 452 296 438L392 255Q400 240 392 227Z" glyph-name="guillemotright" horiz-adv-x="442" unicode="»" /><glyph d="M42 647Q42 657 51 657H66Q82 657 91 662.5Q100 668 108 685Q113 696 117.5 698Q122 700 129 700H142Q153 700 153 690V359Q153 348 141 348H115Q104 348 104 359V616H51Q42 616 42 625ZM105 19Q100 11 94.5 5.5Q89 0 79 0H68Q57 0 53.5 8.5Q50 17 57 27L511 681Q516 689 521.5 694.5Q527 700 537 700H548Q559 700 562.5 691.5Q566 683 559 673ZM532 0Q527 0 523.5 3Q520 6 520 11V99H356Q346 99 346 110V127Q346 132 346.5 137.5Q347 143 351 148L500 342Q507 352 517 352H557Q562 352 565.5 348.5Q569 345 569 340V140H623Q633 140 633 128V111Q633 106 630 102.5Q627 99 623 99H569V11Q569 6 565.5 3Q562 0 557 0ZM520 140 520 301L397 140Z" glyph-name="onequarter" horiz-adv-x="666" unicode="¼" /><glyph d="M42 647Q42 657 51 657H66Q82 657 91 662.5Q100 668 108 685Q113 696 117.5 698Q122 700 129 700H142Q153 700 153 690V359Q153 348 141 348H115Q104 348 104 359V616H51Q42 616 42 625ZM98 19Q93 11 87.5 5.5Q82 0 72 0H61Q50 0 46.5 8.5Q43 17 50 27L504 681Q509 689 514.5 694.5Q520 700 530 700H541Q552 700 555.5 691.5Q559 683 552 673ZM437 0Q426 0 426 10V37Q426 42 428.5 46Q431 50 433 52L538 142Q573 171 595 195.5Q617 220 617 249Q617 278 597 294.5Q577 311 549 311Q518 311 499 293.5Q480 276 470 250Q466 238 452 242L430 248Q420 251 422 262Q430 300 464 328Q498 356 549 356Q599 356 633.5 327.5Q668 299 668 251Q668 217 649.5 188Q631 159 588 124L495 47H663Q668 47 671.5 43.5Q675 40 675 36V11Q675 0 663 0Z" glyph-name="onehalf" horiz-adv-x="710" unicode="½" /><glyph d="M169 667Q142 667 125.5 654.5Q109 642 101 625Q96 615 85 619L64 627Q53 631 59 643Q70 668 98 688.5Q126 709 172 709Q219 709 249 683.5Q279 658 279 618Q279 592 265.5 571.5Q252 551 228 541Q259 533 278 510Q297 487 297 454Q297 406 261 375.5Q225 345 168 345Q108 345 72 376Q36 407 36 455V463Q36 471 44 471H78Q86 471 86 463V455Q86 432 106 409.5Q126 387 167 387Q204 387 225 407.5Q246 428 246 454Q246 480 226.5 498Q207 516 171 516H160Q149 516 149 527V545Q149 557 160 557H171Q198 557 214.5 572.5Q231 588 231 611Q231 634 214.5 650.5Q198 667 169 667ZM173 19Q168 11 162.5 5.5Q157 0 147 0H136Q125 0 121.5 8.5Q118 17 125 27L579 681Q584 689 589.5 694.5Q595 700 605 700H616Q627 700 630.5 691.5Q634 683 627 673ZM590 0Q585 0 581.5 3Q578 6 578 11V99H414Q404 99 404 110V127Q404 132 404.5 137.5Q405 143 409 148L558 342Q565 352 575 352H615Q620 352 623.5 348.5Q627 345 627 340V140H681Q691 140 691 128V111Q691 106 688 102.5Q685 99 681 99H627V11Q627 6 623.5 3Q620 0 615 0ZM578 140 578 301L455 140Z" glyph-name="threequarters" horiz-adv-x="725" unicode="¾" /><glyph d="M229 474Q257 474 276 455Q295 436 295 409Q295 382 276 363Q257 344 229 344Q203 344 183.5 363Q164 382 164 409Q164 436 183.5 455Q203 474 229 474ZM233 -252Q189 -252 153 -238.5Q117 -225 91 -202Q65 -179 51 -147.5Q37 -116 37 -80Q37 -24 62 16.5Q87 57 117.5 91Q148 125 173 158.5Q198 192 198 234V246Q198 252 202.5 256Q207 260 212 260H250Q256 260 260.5 255.5Q265 251 265 245V229Q265 178 241 140.5Q217 103 187.5 69.5Q158 36 134 2Q110 -32 110 -76Q110 -102 120 -123Q130 -144 147 -158.5Q164 -173 187 -181Q210 -189 235 -189Q280 -189 315.5 -166.5Q351 -144 376 -94Q379 -87 387.5 -85.5Q396 -84 403 -87L428 -98Q434 -101 437 -108Q440 -115 435 -126Q410 -180 356.5 -216Q303 -252 233 -252Z" glyph-name="questiondown" horiz-adv-x="460" unicode="¿" /><glyph d="M271 928Q288 928 293 913L345 779Q350 762 332 762H305Q297 762 293.5 765.5Q290 769 286 776L210 910Q207 916 210.5 922Q214 928 222 928ZM85 16Q80 0 67 0H25Q17 0 13.5 5.5Q10 11 13 19L272 684Q278 700 293 700H353Q368 700 374 684L633 19Q637 11 633 5.5Q629 0 622 0H577Q563 0 557 16L486 202H156ZM463 263 321 636L179 263Z" glyph-name="Agrave" horiz-adv-x="646" unicode="À" /><glyph d="M428 928Q436 928 439.5 922Q443 916 439 910L364 776Q356 762 344 762H317Q309 762 305.5 766.5Q302 771 305 779L357 913Q362 928 379 928ZM85 16Q80 0 67 0H25Q17 0 13.5 5.5Q10 11 13 19L272 684Q278 700 293 700H353Q368 700 374 684L633 19Q637 11 633 5.5Q629 0 622 0H577Q563 0 557 16L486 202H156ZM463 263 321 636L179 263Z" glyph-name="Aacute" horiz-adv-x="646" unicode="Á" /><glyph d="M343 928Q358 928 368 913L458 780Q463 773 459 767.5Q455 762 449 762H415Q407 762 402.5 765Q398 768 393 774L323 868L254 774Q249 768 244.5 765Q240 762 232 762H198Q191 762 187.5 767.5Q184 773 189 780L279 913Q284 921 289 924.5Q294 928 305 928ZM85 16Q80 0 67 0H25Q17 0 13.5 5.5Q10 11 13 19L272 684Q278 700 293 700H353Q368 700 374 684L633 19Q637 11 633 5.5Q629 0 622 0H577Q563 0 557 16L486 202H156ZM463 263 321 636L179 263Z" glyph-name="Acircumflex" horiz-adv-x="646" unicode="Â" /><glyph d="M389 777Q375 777 356 782.5Q337 788 318.5 794Q300 800 284.5 805.5Q269 811 260 811Q246 811 238 805Q230 799 222 786Q215 773 199 784L186 793Q178 798 178 807Q178 816 184 828Q190 840 200.5 850Q211 860 225.5 867Q240 874 258 874Q272 874 290.5 868.5Q309 863 327.5 857Q346 851 362 845.5Q378 840 387 840Q401 840 408 845.5Q415 851 425 865Q434 878 448 867L461 858Q469 853 469 844Q469 835 463 823Q457 811 446.5 801Q436 791 421.5 784Q407 777 389 777ZM85 16Q80 0 67 0H25Q17 0 13.5 5.5Q10 11 13 19L272 684Q278 700 293 700H353Q368 700 374 684L633 19Q637 11 633 5.5Q629 0 622 0H577Q563 0 557 16L486 202H156ZM463 263 321 636L179 263Z" glyph-name="Atilde" horiz-adv-x="646" unicode="Ã" /><glyph d="M352 814Q352 836 368 852.5Q384 869 406 869Q429 869 445 852.5Q461 836 461 814Q461 792 445 776Q429 760 406 760Q384 760 368 776Q352 792 352 814ZM184 814Q184 836 200 852.5Q216 869 239 869Q261 869 277 852.5Q293 836 293 814Q293 792 277 776Q261 760 239 760Q216 760 200 776Q184 792 184 814ZM85 16Q80 0 67 0H25Q17 0 13.5 5.5Q10 11 13 19L272 684Q278 700 293 700H353Q368 700 374 684L633 19Q637 11 633 5.5Q629 0 622 0H577Q563 0 557 16L486 202H156ZM463 263 321 636L179 263Z" glyph-name="Adieresis" horiz-adv-x="646" unicode="Ä" /><glyph d="M438 857Q438 833 428.5 813Q419 793 403.5 778Q388 763 367.5 755Q347 747 323 747Q300 747 279 755Q258 763 242.5 778Q227 793 218 813Q209 833 209 857Q209 881 218 901Q227 921 242.5 936Q258 951 279 959Q300 967 323 967Q347 967 367.5 959Q388 951 403.5 936Q419 921 428.5 901Q438 881 438 857ZM383 857Q383 883 366.5 901Q350 919 323 919Q296 919 279.5 901Q263 883 263 857Q263 831 279.5 813Q296 795 323 795Q350 795 366.5 813Q383 831 383 857ZM85 16Q80 0 67 0H25Q17 0 13.5 5.5Q10 11 13 19L272 684Q278 700 293 700H353Q368 700 374 684L633 19Q637 11 633 5.5Q629 0 622 0H577Q563 0 557 16L486 202H156ZM463 263 321 636L179 263Z" glyph-name="Aring" horiz-adv-x="646" unicode="Å" /><glyph d="M85 16Q80 0 63 0H25Q18 0 14 5.5Q10 11 13 19L272 684Q275 692 281.5 696Q288 700 295 700H865Q872 700 877 695Q882 690 882 683V650Q882 643 877 638Q872 633 865 633H397L492 387H730Q747 387 747 370V339Q747 332 742.5 327Q738 322 730 322H515L614 67H865Q872 67 877 62Q882 57 882 50V17Q882 10 877 5Q872 0 865 0H581Q564 0 558 16L486 202H155ZM323 642 179 263H466Z" glyph-name="AE" horiz-adv-x="910" unicode="Æ" /><glyph d="M357 -134Q351 -148 338 -148H307Q300 -148 296.5 -143.5Q293 -139 296 -130L344 -10Q279 -1 223 29.5Q167 60 126 107.5Q85 155 62 216.5Q39 278 39 350Q39 428 67 494.5Q95 561 143 609.5Q191 658 255.5 685.5Q320 713 394 713Q449 713 500 698Q551 683 594 654.5Q637 626 670 585.5Q703 545 722 494Q724 489 721.5 483.5Q719 478 711 477L667 470Q659 469 655 473Q651 477 649 484Q616 559 550.5 603.5Q485 648 394 648Q333 648 281.5 625Q230 602 192.5 562Q155 522 134 467.5Q113 413 113 350Q113 287 134 232.5Q155 178 192.5 138Q230 98 281.5 75Q333 52 394 52Q485 52 550.5 96.5Q616 141 649 216Q651 223 655 227Q659 231 667 230L711 223Q719 222 721.5 216.5Q724 211 722 206Q704 157 672.5 118Q641 79 600.5 50.5Q560 22 512 6Q464 -10 412 -13Z" glyph-name="Ccedilla" horiz-adv-x="747" unicode="Ç" /><glyph d="M277 928Q294 928 299 913L351 779Q356 762 338 762H311Q303 762 299.5 765.5Q296 769 292 776L216 910Q213 916 216.5 922Q220 928 228 928ZM566 700Q573 700 578 695Q583 690 583 683V651Q583 644 578 639Q573 634 566 634H160V387H368Q385 387 385 370V339Q385 332 380.5 327Q376 322 368 322H160V66H568Q575 66 580 61Q585 56 585 49V17Q585 10 580 5Q575 0 568 0H105Q98 0 93 5Q88 10 88 17V683Q88 690 93 695Q98 700 105 700Z" glyph-name="Egrave" horiz-adv-x="613" unicode="È" /><glyph d="M434 928Q442 928 445.5 922Q449 916 445 910L370 776Q362 762 350 762H323Q315 762 311.5 766.5Q308 771 311 779L363 913Q368 928 385 928ZM566 700Q573 700 578 695Q583 690 583 683V651Q583 644 578 639Q573 634 566 634H160V387H368Q385 387 385 370V339Q385 332 380.5 327Q376 322 368 322H160V66H568Q575 66 580 61Q585 56 585 49V17Q585 10 580 5Q575 0 568 0H105Q98 0 93 5Q88 10 88 17V683Q88 690 93 695Q98 700 105 700Z" glyph-name="Eacute" horiz-adv-x="613" unicode="É" /><glyph d="M348 928Q363 928 373 913L463 780Q468 773 464 767.5Q460 762 454 762H420Q412 762 407.5 765Q403 768 398 774L328 868L259 774Q254 768 249.5 765Q245 762 237 762H203Q196 762 192.5 767.5Q189 773 194 780L284 913Q289 921 294 924.5Q299 928 310 928ZM566 700Q573 700 578 695Q583 690 583 683V651Q583 644 578 639Q573 634 566 634H160V387H368Q385 387 385 370V339Q385 332 380.5 327Q376 322 368 322H160V66H568Q575 66 580 61Q585 56 585 49V17Q585 10 580 5Q575 0 568 0H105Q98 0 93 5Q88 10 88 17V683Q88 690 93 695Q98 700 105 700Z" glyph-name="Ecircumflex" horiz-adv-x="613" unicode="Ê" /><glyph d="M358 814Q358 836 374 852.5Q390 869 412 869Q435 869 451 852.5Q467 836 467 814Q467 792 451 776Q435 760 412 760Q390 760 374 776Q358 792 358 814ZM190 814Q190 836 206 852.5Q222 869 245 869Q267 869 283 852.5Q299 836 299 814Q299 792 283 776Q267 760 245 760Q222 760 206 776Q190 792 190 814ZM566 700Q573 700 578 695Q583 690 583 683V651Q583 644 578 639Q573 634 566 634H160V387H368Q385 387 385 370V339Q385 332 380.5 327Q376 322 368 322H160V66H568Q575 66 580 61Q585 56 585 49V17Q585 10 580 5Q575 0 568 0H105Q98 0 93 5Q88 10 88 17V683Q88 690 93 695Q98 700 105 700Z" glyph-name="Edieresis" horiz-adv-x="613" unicode="Ë" /><glyph d="M72 928Q89 928 94 913L146 779Q151 762 133 762H106Q98 762 94.5 765.5Q91 769 87 776L11 910Q8 916 11.5 922Q15 928 23 928ZM105 0Q98 0 93 5Q88 10 88 17V683Q88 690 93 695Q98 700 105 700H143Q150 700 155 695Q160 690 160 683V17Q160 10 155 5Q150 0 143 0Z" glyph-name="Igrave" horiz-adv-x="248" unicode="Ì" /><glyph d="M229 928Q237 928 240.5 922Q244 916 240 910L165 776Q157 762 145 762H118Q110 762 106.5 766.5Q103 771 106 779L158 913Q163 928 180 928ZM105 0Q98 0 93 5Q88 10 88 17V683Q88 690 93 695Q98 700 105 700H143Q150 700 155 695Q160 690 160 683V17Q160 10 155 5Q150 0 143 0Z" glyph-name="Iacute" horiz-adv-x="248" unicode="Í" /><glyph d="M143 928Q158 928 168 913L258 780Q263 773 259 767.5Q255 762 249 762H215Q207 762 202.5 765Q198 768 193 774L123 868L54 774Q49 768 44.5 765Q40 762 32 762H-2Q-9 762 -12.5 767.5Q-16 773 -11 780L79 913Q84 921 89 924.5Q94 928 105 928ZM105 0Q98 0 93 5Q88 10 88 17V683Q88 690 93 695Q98 700 105 700H143Q150 700 155 695Q160 690 160 683V17Q160 10 155 5Q150 0 143 0Z" glyph-name="Icircumflex" horiz-adv-x="248" unicode="Î" /><glyph d="M153 814Q153 836 169 852.5Q185 869 207 869Q230 869 246 852.5Q262 836 262 814Q262 792 246 776Q230 760 207 760Q185 760 169 776Q153 792 153 814ZM-15 814Q-15 836 1 852.5Q17 869 40 869Q62 869 78 852.5Q94 836 94 814Q94 792 78 776Q62 760 40 760Q17 760 1 776Q-15 792 -15 814ZM105 0Q98 0 93 5Q88 10 88 17V683Q88 690 93 695Q98 700 105 700H143Q150 700 155 695Q160 690 160 683V17Q160 10 155 5Q150 0 143 0Z" glyph-name="Idieresis" horiz-adv-x="248" unicode="Ï" /><glyph d="M115 0Q108 0 103 5Q98 10 98 17V325H18Q11 325 6 330Q1 335 1 342V368Q1 375 6 380Q11 385 18 385H98V683Q98 690 103 695Q108 700 115 700H328Q418 700 488 674.5Q558 649 605 603Q652 557 676.5 492.5Q701 428 701 350Q701 272 676.5 207.5Q652 143 605 97Q558 51 488 25.5Q418 0 328 0ZM338 66Q402 66 455 85Q508 104 546.5 140Q585 176 606 229Q627 282 627 350Q627 418 606 471Q585 524 546.5 560Q508 596 455 615Q402 634 338 634H170V385H378Q386 385 390.5 380Q395 375 395 368V342Q395 335 390.5 330Q386 325 378 325H170V66Z" glyph-name="Eth" horiz-adv-x="742" unicode="Ð" /><glyph d="M429 777Q415 777 396 782.5Q377 788 358.5 794Q340 800 324.5 805.5Q309 811 300 811Q286 811 278 805Q270 799 262 786Q255 773 239 784L226 793Q218 798 218 807Q218 816 224 828Q230 840 240.5 850Q251 860 265.5 867Q280 874 298 874Q312 874 330.5 868.5Q349 863 367.5 857Q386 851 402 845.5Q418 840 427 840Q441 840 448 845.5Q455 851 465 865Q474 878 488 867L501 858Q509 853 509 844Q509 835 503 823Q497 811 486.5 801Q476 791 461.5 784Q447 777 429 777ZM160 587 160 17Q160 10 155 5Q150 0 143 0H105Q98 0 93 5Q88 10 88 17V683Q88 690 93 695Q98 700 105 700H154Q169 700 180 686L566 116V683Q566 690 570.5 695Q575 700 582 700H620Q627 700 632 695Q637 690 637 683V17Q637 10 632 5Q627 0 620 0H577Q559 0 548 15Z" glyph-name="Ntilde" horiz-adv-x="725" unicode="Ñ" /><glyph d="M341 928Q358 928 363 913L415 779Q420 762 402 762H375Q367 762 363.5 765.5Q360 769 356 776L280 910Q277 916 280.5 922Q284 928 292 928ZM748 350Q748 272 720 205.5Q692 139 644 90.5Q596 42 531.5 14.5Q467 -13 393 -13Q320 -13 255.5 14.5Q191 42 143 90.5Q95 139 67 205.5Q39 272 39 350Q39 428 67 494.5Q95 561 143 609.5Q191 658 255.5 685.5Q320 713 393 713Q467 713 531.5 685.5Q596 658 644 609.5Q692 561 720 494.5Q748 428 748 350ZM674 350Q674 413 653 467.5Q632 522 595 562Q558 602 506.5 625Q455 648 393 648Q332 648 280.5 625Q229 602 192 562Q155 522 134 467.5Q113 413 113 350Q113 287 134 232.5Q155 178 192 138Q229 98 280.5 75Q332 52 393 52Q455 52 506.5 75Q558 98 595 138Q632 178 653 232.5Q674 287 674 350Z" glyph-name="Ograve" horiz-adv-x="787" unicode="Ò" /><glyph d="M498 928Q506 928 509.5 922Q513 916 509 910L434 776Q426 762 414 762H387Q379 762 375.5 766.5Q372 771 375 779L427 913Q432 928 449 928ZM748 350Q748 272 720 205.5Q692 139 644 90.5Q596 42 531.5 14.5Q467 -13 393 -13Q320 -13 255.5 14.5Q191 42 143 90.5Q95 139 67 205.5Q39 272 39 350Q39 428 67 494.5Q95 561 143 609.5Q191 658 255.5 685.5Q320 713 393 713Q467 713 531.5 685.5Q596 658 644 609.5Q692 561 720 494.5Q748 428 748 350ZM674 350Q674 413 653 467.5Q632 522 595 562Q558 602 506.5 625Q455 648 393 648Q332 648 280.5 625Q229 602 192 562Q155 522 134 467.5Q113 413 113 350Q113 287 134 232.5Q155 178 192 138Q229 98 280.5 75Q332 52 393 52Q455 52 506.5 75Q558 98 595 138Q632 178 653 232.5Q674 287 674 350Z" glyph-name="Oacute" horiz-adv-x="787" unicode="Ó" /><glyph d="M413 928Q428 928 438 913L528 780Q533 773 529 767.5Q525 762 519 762H485Q477 762 472.5 765Q468 768 463 774L393 868L324 774Q319 768 314.5 765Q310 762 302 762H268Q261 762 257.5 767.5Q254 773 259 780L349 913Q354 921 359 924.5Q364 928 375 928ZM748 350Q748 272 720 205.5Q692 139 644 90.5Q596 42 531.5 14.5Q467 -13 393 -13Q320 -13 255.5 14.5Q191 42 143 90.5Q95 139 67 205.5Q39 272 39 350Q39 428 67 494.5Q95 561 143 609.5Q191 658 255.5 685.5Q320 713 393 713Q467 713 531.5 685.5Q596 658 644 609.5Q692 561 720 494.5Q748 428 748 350ZM674 350Q674 413 653 467.5Q632 522 595 562Q558 602 506.5 625Q455 648 393 648Q332 648 280.5 625Q229 602 192 562Q155 522 134 467.5Q113 413 113 350Q113 287 134 232.5Q155 178 192 138Q229 98 280.5 75Q332 52 393 52Q455 52 506.5 75Q558 98 595 138Q632 178 653 232.5Q674 287 674 350Z" glyph-name="Ocircumflex" horiz-adv-x="787" unicode="Ô" /><glyph d="M459 777Q445 777 426 782.5Q407 788 388.5 794Q370 800 354.5 805.5Q339 811 330 811Q316 811 308 805Q300 799 292 786Q285 773 269 784L256 793Q248 798 248 807Q248 816 254 828Q260 840 270.5 850Q281 860 295.5 867Q310 874 328 874Q342 874 360.5 868.5Q379 863 397.5 857Q416 851 432 845.5Q448 840 457 840Q471 840 478 845.5Q485 851 495 865Q504 878 518 867L531 858Q539 853 539 844Q539 835 533 823Q527 811 516.5 801Q506 791 491.5 784Q477 777 459 777ZM748 350Q748 272 720 205.5Q692 139 644 90.5Q596 42 531.5 14.5Q467 -13 393 -13Q320 -13 255.5 14.5Q191 42 143 90.5Q95 139 67 205.5Q39 272 39 350Q39 428 67 494.5Q95 561 143 609.5Q191 658 255.5 685.5Q320 713 393 713Q467 713 531.5 685.5Q596 658 644 609.5Q692 561 720 494.5Q748 428 748 350ZM674 350Q674 413 653 467.5Q632 522 595 562Q558 602 506.5 625Q455 648 393 648Q332 648 280.5 625Q229 602 192 562Q155 522 134 467.5Q113 413 113 350Q113 287 134 232.5Q155 178 192 138Q229 98 280.5 75Q332 52 393 52Q455 52 506.5 75Q558 98 595 138Q632 178 653 232.5Q674 287 674 350Z" glyph-name="Otilde" horiz-adv-x="787" unicode="Õ" /><glyph d="M422 814Q422 836 438 852.5Q454 869 476 869Q499 869 515 852.5Q531 836 531 814Q531 792 515 776Q499 760 476 760Q454 760 438 776Q422 792 422 814ZM254 814Q254 836 270 852.5Q286 869 309 869Q331 869 347 852.5Q363 836 363 814Q363 792 347 776Q331 760 309 760Q286 760 270 776Q254 792 254 814ZM748 350Q748 272 720 205.5Q692 139 644 90.5Q596 42 531.5 14.5Q467 -13 393 -13Q320 -13 255.5 14.5Q191 42 143 90.5Q95 139 67 205.5Q39 272 39 350Q39 428 67 494.5Q95 561 143 609.5Q191 658 255.5 685.5Q320 713 393 713Q467 713 531.5 685.5Q596 658 644 609.5Q692 561 720 494.5Q748 428 748 350ZM674 350Q674 413 653 467.5Q632 522 595 562Q558 602 506.5 625Q455 648 393 648Q332 648 280.5 625Q229 602 192 562Q155 522 134 467.5Q113 413 113 350Q113 287 134 232.5Q155 178 192 138Q229 98 280.5 75Q332 52 393 52Q455 52 506.5 75Q558 98 595 138Q632 178 653 232.5Q674 287 674 350Z" glyph-name="Odieresis" horiz-adv-x="787" unicode="Ö" /><glyph d="M118 155Q113 150 105.5 149.5Q98 149 93 154L69 179Q64 184 64 191Q64 198 69 203L221 355L69 506Q64 511 63.5 518Q63 525 68 530L93 555Q98 560 105 560Q112 560 117 555L269 403L421 555Q426 560 433 560Q440 560 445 555L470 530Q475 525 474.5 518Q474 511 469 506L318 355L469 203Q474 198 474 191Q474 184 469 179L445 154Q440 149 432.5 149.5Q425 150 420 155L269 306Z" glyph-name="multiply" horiz-adv-x="538" unicode="×" /><glyph d="M748 350Q748 272 720 205.5Q692 139 644 90.5Q596 42 531.5 14.5Q467 -13 393 -13Q320 -13 255.5 14.5Q191 42 143 90.5Q95 139 67 205.5Q39 272 39 350Q39 428 67 494.5Q95 561 143 609.5Q191 658 255.5 685.5Q320 713 393 713Q467 713 531.5 685.5Q596 658 644 609.5Q692 561 720 494.5Q748 428 748 350ZM674 350Q674 409 656 460.5Q638 512 605 551Q572 590 526.5 615Q481 640 426 646V54Q481 60 526.5 85Q572 110 605 149Q638 188 656 239.5Q674 291 674 350ZM113 350Q113 291 131 239.5Q149 188 181.5 149Q214 110 259.5 85Q305 60 360 54V646Q305 640 259.5 615Q214 590 181.5 551Q149 512 131 460.5Q113 409 113 350Z" glyph-name="Oslash" horiz-adv-x="787" unicode="Ø" /><glyph d="M300 928Q317 928 322 913L374 779Q379 762 361 762H334Q326 762 322.5 765.5Q319 769 315 776L239 910Q236 916 239.5 922Q243 928 251 928ZM623 239Q623 179 602.5 132Q582 85 546 52.5Q510 20 460.5 3.5Q411 -13 352 -13Q294 -13 244 3.5Q194 20 157.5 52Q121 84 100.5 131Q80 178 80 238V683Q80 690 85 695Q90 700 97 700H134Q142 700 146.5 695Q151 690 151 683V238Q151 193 166.5 158.5Q182 124 209 100Q236 76 272.5 63.5Q309 51 352 51Q394 51 430.5 63.5Q467 76 494.5 100Q522 124 537.5 158.5Q553 193 553 238V683Q553 690 557.5 695Q562 700 570 700H606Q613 700 618 695Q623 690 623 683Z" glyph-name="Ugrave" horiz-adv-x="703" unicode="Ù" /><glyph d="M457 928Q465 928 468.5 922Q472 916 468 910L393 776Q385 762 373 762H346Q338 762 334.5 766.5Q331 771 334 779L386 913Q391 928 408 928ZM623 239Q623 179 602.5 132Q582 85 546 52.5Q510 20 460.5 3.5Q411 -13 352 -13Q294 -13 244 3.5Q194 20 157.5 52Q121 84 100.5 131Q80 178 80 238V683Q80 690 85 695Q90 700 97 700H134Q142 700 146.5 695Q151 690 151 683V238Q151 193 166.5 158.5Q182 124 209 100Q236 76 272.5 63.5Q309 51 352 51Q394 51 430.5 63.5Q467 76 494.5 100Q522 124 537.5 158.5Q553 193 553 238V683Q553 690 557.5 695Q562 700 570 700H606Q613 700 618 695Q623 690 623 683Z" glyph-name="Uacute" horiz-adv-x="703" unicode="Ú" /><glyph d="M372 928Q387 928 397 913L487 780Q492 773 488 767.5Q484 762 478 762H444Q436 762 431.5 765Q427 768 422 774L352 868L283 774Q278 768 273.5 765Q269 762 261 762H227Q220 762 216.5 767.5Q213 773 218 780L308 913Q313 921 318 924.5Q323 928 334 928ZM623 239Q623 179 602.5 132Q582 85 546 52.5Q510 20 460.5 3.5Q411 -13 352 -13Q294 -13 244 3.5Q194 20 157.5 52Q121 84 100.5 131Q80 178 80 238V683Q80 690 85 695Q90 700 97 700H134Q142 700 146.5 695Q151 690 151 683V238Q151 193 166.5 158.5Q182 124 209 100Q236 76 272.5 63.5Q309 51 352 51Q394 51 430.5 63.5Q467 76 494.5 100Q522 124 537.5 158.5Q553 193 553 238V683Q553 690 557.5 695Q562 700 570 700H606Q613 700 618 695Q623 690 623 683Z" glyph-name="Ucircumflex" horiz-adv-x="703" unicode="Û" /><glyph d="M381 814Q381 836 397 852.5Q413 869 435 869Q458 869 474 852.5Q490 836 490 814Q490 792 474 776Q458 760 435 760Q413 760 397 776Q381 792 381 814ZM213 814Q213 836 229 852.5Q245 869 268 869Q290 869 306 852.5Q322 836 322 814Q322 792 306 776Q290 760 268 760Q245 760 229 776Q213 792 213 814ZM623 239Q623 179 602.5 132Q582 85 546 52.5Q510 20 460.5 3.5Q411 -13 352 -13Q294 -13 244 3.5Q194 20 157.5 52Q121 84 100.5 131Q80 178 80 238V683Q80 690 85 695Q90 700 97 700H134Q142 700 146.5 695Q151 690 151 683V238Q151 193 166.5 158.5Q182 124 209 100Q236 76 272.5 63.5Q309 51 352 51Q394 51 430.5 63.5Q467 76 494.5 100Q522 124 537.5 158.5Q553 193 553 238V683Q553 690 557.5 695Q562 700 570 700H606Q613 700 618 695Q623 690 623 683Z" glyph-name="Udieresis" horiz-adv-x="703" unicode="Ü" /><glyph d="M412 928Q420 928 423.5 922Q427 916 423 910L348 776Q340 762 328 762H301Q293 762 289.5 766.5Q286 771 289 779L341 913Q346 928 363 928ZM271 299 16 682Q11 688 14.5 694Q18 700 24 700H78Q90 700 100 687L306 374H310L516 687Q521 693 525 696.5Q529 700 537 700H591Q597 700 600.5 694.5Q604 689 599 682L343 299V17Q343 10 338 5Q333 0 326 0H288Q281 0 276 5Q271 10 271 17Z" glyph-name="Yacute" horiz-adv-x="615" unicode="Ý" /><glyph d="M105 0Q98 0 93 5Q88 10 88 17V683Q88 690 93 695Q98 700 105 700H142Q149 700 154 695Q159 690 159 683V584H348Q410 584 455.5 567Q501 550 531 520.5Q561 491 576 451.5Q591 412 591 367Q591 322 576 282.5Q561 243 531 213Q501 183 455.5 165.5Q410 148 348 148H159V17Q159 10 154 5Q149 0 142 0ZM346 212Q381 212 412.5 222Q444 232 467.5 251.5Q491 271 504.5 300Q518 329 518 368Q518 406 504.5 434.5Q491 463 467.5 482Q444 501 412.5 510.5Q381 520 346 520H159V212Z" glyph-name="Thorn" horiz-adv-x="615" unicode="Þ" /><glyph d="M66 495Q66 548 82 589Q98 630 126 658Q154 686 192.5 700Q231 714 276 714Q324 714 359 699.5Q394 685 416 663Q438 641 448.5 614Q459 587 459 562Q459 524 441 490.5Q423 457 401 429Q379 401 361 379Q343 357 343 342Q343 323 370 302Q397 281 429 255.5Q461 230 488 197.5Q515 165 515 123Q515 91 503 65.5Q491 40 470 22.5Q449 5 421 -4.5Q393 -14 361 -14Q331 -14 311 -10.5Q291 -7 272 -1Q265 1 261 6Q257 11 259 19L270 50Q275 64 288 60Q301 56 318.5 52Q336 48 354 48Q389 48 415.5 65.5Q442 83 442 121Q442 151 414.5 176Q387 201 354.5 226Q322 251 294.5 276.5Q267 302 267 332Q267 353 286 381.5Q305 410 328 440.5Q351 471 370 501.5Q389 532 389 556Q389 594 359.5 623.5Q330 653 275 653Q209 653 172.5 609Q136 565 136 497V17Q136 10 131.5 5Q127 0 120 0H83Q76 0 71 5Q66 10 66 17Z" glyph-name="germandbls" horiz-adv-x="536" unicode="ß" /><glyph d="M224 692Q241 692 246 677L298 543Q303 526 285 526H258Q250 526 246.5 529.5Q243 533 239 540L163 674Q160 680 163.5 686Q167 692 175 692ZM35 232Q35 286 53.5 331Q72 376 104 408.5Q136 441 178.5 459Q221 477 269 477Q329 477 375 448.5Q421 420 443 376V447Q443 454 448 459Q453 464 460 464H496Q503 464 507.5 459Q512 454 512 447V17Q512 10 507.5 5Q503 0 496 0H460Q453 0 448 5Q443 10 443 17V88Q420 44 374.5 15.5Q329 -13 269 -13Q221 -13 178.5 5Q136 23 104 55.5Q72 88 53.5 133Q35 178 35 232ZM106 232Q106 194 118.5 161Q131 128 153.5 103.5Q176 79 207 65Q238 51 275 51Q312 51 343 65Q374 79 396.5 103.5Q419 128 431.5 161Q444 194 444 232Q444 270 431.5 303Q419 336 396.5 360.5Q374 385 343 399Q312 413 275 413Q238 413 207 399Q176 385 153.5 360.5Q131 336 118.5 303Q106 270 106 232Z" glyph-name="agrave" horiz-adv-x="578" unicode="à" /><glyph d="M381 692Q389 692 392.5 686Q396 680 392 674L317 540Q309 526 297 526H270Q262 526 258.5 530.5Q255 535 258 543L310 677Q315 692 332 692ZM35 232Q35 286 53.5 331Q72 376 104 408.5Q136 441 178.5 459Q221 477 269 477Q329 477 375 448.5Q421 420 443 376V447Q443 454 448 459Q453 464 460 464H496Q503 464 507.5 459Q512 454 512 447V17Q512 10 507.5 5Q503 0 496 0H460Q453 0 448 5Q443 10 443 17V88Q420 44 374.5 15.5Q329 -13 269 -13Q221 -13 178.5 5Q136 23 104 55.5Q72 88 53.5 133Q35 178 35 232ZM106 232Q106 194 118.5 161Q131 128 153.5 103.5Q176 79 207 65Q238 51 275 51Q312 51 343 65Q374 79 396.5 103.5Q419 128 431.5 161Q444 194 444 232Q444 270 431.5 303Q419 336 396.5 360.5Q374 385 343 399Q312 413 275 413Q238 413 207 399Q176 385 153.5 360.5Q131 336 118.5 303Q106 270 106 232Z" glyph-name="aacute" horiz-adv-x="578" unicode="á" /><glyph d="M296 692Q311 692 321 677L411 544Q416 537 412 531.5Q408 526 402 526H368Q360 526 355.5 529Q351 532 346 538L276 632L207 538Q202 532 197.5 529Q193 526 185 526H151Q144 526 140.5 531.5Q137 537 142 544L232 677Q237 685 242 688.5Q247 692 258 692ZM35 232Q35 286 53.5 331Q72 376 104 408.5Q136 441 178.5 459Q221 477 269 477Q329 477 375 448.5Q421 420 443 376V447Q443 454 448 459Q453 464 460 464H496Q503 464 507.5 459Q512 454 512 447V17Q512 10 507.5 5Q503 0 496 0H460Q453 0 448 5Q443 10 443 17V88Q420 44 374.5 15.5Q329 -13 269 -13Q221 -13 178.5 5Q136 23 104 55.5Q72 88 53.5 133Q35 178 35 232ZM106 232Q106 194 118.5 161Q131 128 153.5 103.5Q176 79 207 65Q238 51 275 51Q312 51 343 65Q374 79 396.5 103.5Q419 128 431.5 161Q444 194 444 232Q444 270 431.5 303Q419 336 396.5 360.5Q374 385 343 399Q312 413 275 413Q238 413 207 399Q176 385 153.5 360.5Q131 336 118.5 303Q106 270 106 232Z" glyph-name="acircumflex" horiz-adv-x="578" unicode="â" /><glyph d="M342 541Q328 541 309 546.5Q290 552 271.5 558Q253 564 237.5 569.5Q222 575 213 575Q199 575 191 569Q183 563 175 550Q168 537 152 548L139 557Q131 562 131 571Q131 580 137 592Q143 604 153.5 614Q164 624 178.5 631Q193 638 211 638Q225 638 243.5 632.5Q262 627 280.5 621Q299 615 315 609.5Q331 604 340 604Q354 604 361 609.5Q368 615 378 629Q387 642 401 631L414 622Q422 617 422 608Q422 599 416 587Q410 575 399.5 565Q389 555 374.5 548Q360 541 342 541ZM35 232Q35 286 53.5 331Q72 376 104 408.5Q136 441 178.5 459Q221 477 269 477Q329 477 375 448.5Q421 420 443 376V447Q443 454 448 459Q453 464 460 464H496Q503 464 507.5 459Q512 454 512 447V17Q512 10 507.5 5Q503 0 496 0H460Q453 0 448 5Q443 10 443 17V88Q420 44 374.5 15.5Q329 -13 269 -13Q221 -13 178.5 5Q136 23 104 55.5Q72 88 53.5 133Q35 178 35 232ZM106 232Q106 194 118.5 161Q131 128 153.5 103.5Q176 79 207 65Q238 51 275 51Q312 51 343 65Q374 79 396.5 103.5Q419 128 431.5 161Q444 194 444 232Q444 270 431.5 303Q419 336 396.5 360.5Q374 385 343 399Q312 413 275 413Q238 413 207 399Q176 385 153.5 360.5Q131 336 118.5 303Q106 270 106 232Z" glyph-name="atilde" horiz-adv-x="578" unicode="ã" /><glyph d="M305 578Q305 600 321 616.5Q337 633 359 633Q382 633 398 616.5Q414 600 414 578Q414 556 398 540Q382 524 359 524Q337 524 321 540Q305 556 305 578ZM137 578Q137 600 153 616.5Q169 633 192 633Q214 633 230 616.5Q246 600 246 578Q246 556 230 540Q214 524 192 524Q169 524 153 540Q137 556 137 578ZM35 232Q35 286 53.5 331Q72 376 104 408.5Q136 441 178.5 459Q221 477 269 477Q329 477 375 448.5Q421 420 443 376V447Q443 454 448 459Q453 464 460 464H496Q503 464 507.5 459Q512 454 512 447V17Q512 10 507.5 5Q503 0 496 0H460Q453 0 448 5Q443 10 443 17V88Q420 44 374.5 15.5Q329 -13 269 -13Q221 -13 178.5 5Q136 23 104 55.5Q72 88 53.5 133Q35 178 35 232ZM106 232Q106 194 118.5 161Q131 128 153.5 103.5Q176 79 207 65Q238 51 275 51Q312 51 343 65Q374 79 396.5 103.5Q419 128 431.5 161Q444 194 444 232Q444 270 431.5 303Q419 336 396.5 360.5Q374 385 343 399Q312 413 275 413Q238 413 207 399Q176 385 153.5 360.5Q131 336 118.5 303Q106 270 106 232Z" glyph-name="adieresis" horiz-adv-x="578" unicode="ä" /><glyph d="M391 621Q391 597 381.5 577Q372 557 356.5 542Q341 527 320.5 519Q300 511 276 511Q253 511 232 519Q211 527 195.5 542Q180 557 171 577Q162 597 162 621Q162 645 171 665Q180 685 195.5 700Q211 715 232 723Q253 731 276 731Q300 731 320.5 723Q341 715 356.5 700Q372 685 381.5 665Q391 645 391 621ZM336 621Q336 647 319.5 665Q303 683 276 683Q249 683 232.5 665Q216 647 216 621Q216 595 232.5 577Q249 559 276 559Q303 559 319.5 577Q336 595 336 621ZM35 232Q35 286 53.5 331Q72 376 104 408.5Q136 441 178.5 459Q221 477 269 477Q329 477 375 448.5Q421 420 443 376V447Q443 454 448 459Q453 464 460 464H496Q503 464 507.5 459Q512 454 512 447V17Q512 10 507.5 5Q503 0 496 0H460Q453 0 448 5Q443 10 443 17V88Q420 44 374.5 15.5Q329 -13 269 -13Q221 -13 178.5 5Q136 23 104 55.5Q72 88 53.5 133Q35 178 35 232ZM106 232Q106 194 118.5 161Q131 128 153.5 103.5Q176 79 207 65Q238 51 275 51Q312 51 343 65Q374 79 396.5 103.5Q419 128 431.5 161Q444 194 444 232Q444 270 431.5 303Q419 336 396.5 360.5Q374 385 343 399Q312 413 275 413Q238 413 207 399Q176 385 153.5 360.5Q131 336 118.5 303Q106 270 106 232Z" glyph-name="aring" horiz-adv-x="578" unicode="å" /><glyph d="M833 74Q804 33 752.5 10Q701 -13 640 -13Q587 -13 537 7.5Q487 28 452 70Q422 31 376 9Q330 -13 275 -13Q225 -13 181.5 5.5Q138 24 105.5 56.5Q73 89 54 134Q35 179 35 232Q35 285 54 329.5Q73 374 105.5 407Q138 440 181.5 458.5Q225 477 275 477Q330 477 376.5 454.5Q423 432 453 394Q485 432 532 454.5Q579 477 636 477Q686 477 728.5 460Q771 443 802.5 412Q834 381 851.5 338Q869 295 869 243V230Q869 223 865 218Q861 213 853 213H469Q472 176 486 145.5Q500 115 523 94Q546 73 576 61.5Q606 50 640 50Q694 50 726.5 70Q759 90 781 112Q796 127 811 115L828 100Q836 93 836.5 86Q837 79 833 74ZM801 264Q793 336 747.5 377Q702 418 636 418Q602 418 573.5 406.5Q545 395 523.5 374Q502 353 488.5 325Q475 297 471 264ZM275 51Q322 51 358.5 72Q395 93 418 128Q398 176 398 231Q398 288 419 334Q396 370 359.5 391.5Q323 413 275 413Q238 413 206.5 399Q175 385 152.5 360.5Q130 336 117.5 303Q105 270 105 232Q105 194 117.5 161Q130 128 152.5 103.5Q175 79 206.5 65Q238 51 275 51Z" glyph-name="ae" horiz-adv-x="896" unicode="æ" /><glyph d="M236 -134Q230 -148 217 -148H186Q179 -148 175.5 -143.5Q172 -139 175 -130L224 -8Q183 1 148.5 22Q114 43 88.5 74.5Q63 106 49 146Q35 186 35 232Q35 285 53.5 330Q72 375 104.5 407.5Q137 440 181 458.5Q225 477 275 477Q344 477 399 445Q454 413 481 358Q486 349 483 342.5Q480 336 474 333L448 320Q432 311 422 327Q398 369 361.5 391Q325 413 275 413Q238 413 207 399Q176 385 153.5 360.5Q131 336 118.5 303Q106 270 106 232Q106 194 118.5 161Q131 128 153.5 103.5Q176 79 207 65Q238 51 275 51Q325 51 361.5 73Q398 95 422 137Q432 153 448 144L474 131Q480 128 483 121.5Q486 115 481 106Q455 54 404.5 22.5Q354 -9 291 -13Z" glyph-name="ccedilla" horiz-adv-x="513" unicode="ç" /><glyph d="M216 692Q233 692 238 677L290 543Q295 526 277 526H250Q242 526 238.5 529.5Q235 533 231 540L155 674Q152 680 155.5 686Q159 692 167 692ZM273 477Q323 477 365.5 460Q408 443 439.5 412Q471 381 488.5 338Q506 295 506 243V230Q506 223 502 218Q498 213 490 213H106Q109 176 123 145.5Q137 115 160 94Q183 73 213 61.5Q243 50 277 50Q331 50 363.5 70Q396 90 418 112Q433 127 448 115L465 100Q473 93 473.5 86Q474 79 470 74Q441 33 389.5 10Q338 -13 277 -13Q232 -13 188.5 2Q145 17 111 47.5Q77 78 56 124.5Q35 171 35 234Q35 285 53 329.5Q71 374 102.5 407Q134 440 177.5 458.5Q221 477 273 477ZM438 264Q430 336 384.5 377Q339 418 273 418Q239 418 210.5 406.5Q182 395 160.5 374Q139 353 125.5 325Q112 297 108 264Z" glyph-name="egrave" horiz-adv-x="533" unicode="è" /><glyph d="M373 692Q381 692 384.5 686Q388 680 384 674L309 540Q301 526 289 526H262Q254 526 250.5 530.5Q247 535 250 543L302 677Q307 692 324 692ZM273 477Q323 477 365.5 460Q408 443 439.5 412Q471 381 488.5 338Q506 295 506 243V230Q506 223 502 218Q498 213 490 213H106Q109 176 123 145.5Q137 115 160 94Q183 73 213 61.5Q243 50 277 50Q331 50 363.5 70Q396 90 418 112Q433 127 448 115L465 100Q473 93 473.5 86Q474 79 470 74Q441 33 389.5 10Q338 -13 277 -13Q232 -13 188.5 2Q145 17 111 47.5Q77 78 56 124.5Q35 171 35 234Q35 285 53 329.5Q71 374 102.5 407Q134 440 177.5 458.5Q221 477 273 477ZM438 264Q430 336 384.5 377Q339 418 273 418Q239 418 210.5 406.5Q182 395 160.5 374Q139 353 125.5 325Q112 297 108 264Z" glyph-name="eacute" horiz-adv-x="533" unicode="é" /><glyph d="M288 692Q303 692 313 677L403 544Q408 537 404 531.5Q400 526 394 526H360Q352 526 347.5 529Q343 532 338 538L268 632L199 538Q194 532 189.5 529Q185 526 177 526H143Q136 526 132.5 531.5Q129 537 134 544L224 677Q229 685 234 688.5Q239 692 250 692ZM273 477Q323 477 365.5 460Q408 443 439.5 412Q471 381 488.5 338Q506 295 506 243V230Q506 223 502 218Q498 213 490 213H106Q109 176 123 145.5Q137 115 160 94Q183 73 213 61.5Q243 50 277 50Q331 50 363.5 70Q396 90 418 112Q433 127 448 115L465 100Q473 93 473.5 86Q474 79 470 74Q441 33 389.5 10Q338 -13 277 -13Q232 -13 188.5 2Q145 17 111 47.5Q77 78 56 124.5Q35 171 35 234Q35 285 53 329.5Q71 374 102.5 407Q134 440 177.5 458.5Q221 477 273 477ZM438 264Q430 336 384.5 377Q339 418 273 418Q239 418 210.5 406.5Q182 395 160.5 374Q139 353 125.5 325Q112 297 108 264Z" glyph-name="ecircumflex" horiz-adv-x="533" unicode="ê" /><glyph d="M297 578Q297 600 313 616.5Q329 633 351 633Q374 633 390 616.5Q406 600 406 578Q406 556 390 540Q374 524 351 524Q329 524 313 540Q297 556 297 578ZM129 578Q129 600 145 616.5Q161 633 184 633Q206 633 222 616.5Q238 600 238 578Q238 556 222 540Q206 524 184 524Q161 524 145 540Q129 556 129 578ZM273 477Q323 477 365.5 460Q408 443 439.5 412Q471 381 488.5 338Q506 295 506 243V230Q506 223 502 218Q498 213 490 213H106Q109 176 123 145.5Q137 115 160 94Q183 73 213 61.5Q243 50 277 50Q331 50 363.5 70Q396 90 418 112Q433 127 448 115L465 100Q473 93 473.5 86Q474 79 470 74Q441 33 389.5 10Q338 -13 277 -13Q232 -13 188.5 2Q145 17 111 47.5Q77 78 56 124.5Q35 171 35 234Q35 285 53 329.5Q71 374 102.5 407Q134 440 177.5 458.5Q221 477 273 477ZM438 264Q430 336 384.5 377Q339 418 273 418Q239 418 210.5 406.5Q182 395 160.5 374Q139 353 125.5 325Q112 297 108 264Z" glyph-name="edieresis" horiz-adv-x="533" unicode="ë" /><glyph d="M49 692Q66 692 71 677L123 543Q128 526 110 526H83Q75 526 71.5 529.5Q68 533 64 540L-12 674Q-15 680 -11.5 686Q-8 692 0 692ZM83 0Q76 0 71 5Q66 10 66 17V447Q66 454 71 459Q76 464 83 464H119Q126 464 130.5 459Q135 454 135 447V17Q135 10 130.5 5Q126 0 119 0Z" glyph-name="igrave" horiz-adv-x="201" unicode="ì" /><glyph d="M206 692Q214 692 217.5 686Q221 680 217 674L142 540Q134 526 122 526H95Q87 526 83.5 530.5Q80 535 83 543L135 677Q140 692 157 692ZM83 0Q76 0 71 5Q66 10 66 17V447Q66 454 71 459Q76 464 83 464H119Q126 464 130.5 459Q135 454 135 447V17Q135 10 130.5 5Q126 0 119 0Z" glyph-name="iacute" horiz-adv-x="201" unicode="í" /><glyph d="M120 692Q135 692 145 677L235 544Q240 537 236 531.5Q232 526 226 526H192Q184 526 179.5 529Q175 532 170 538L100 632L31 538Q26 532 21.5 529Q17 526 9 526H-25Q-32 526 -35.5 531.5Q-39 537 -34 544L56 677Q61 685 66 688.5Q71 692 82 692ZM83 0Q76 0 71 5Q66 10 66 17V447Q66 454 71 459Q76 464 83 464H119Q126 464 130.5 459Q135 454 135 447V17Q135 10 130.5 5Q126 0 119 0Z" glyph-name="icircumflex" horiz-adv-x="201" unicode="î" /><glyph d="M130 578Q130 600 146 616.5Q162 633 184 633Q207 633 223 616.5Q239 600 239 578Q239 556 223 540Q207 524 184 524Q162 524 146 540Q130 556 130 578ZM-38 578Q-38 600 -22 616.5Q-6 633 17 633Q39 633 55 616.5Q71 600 71 578Q71 556 55 540Q39 524 17 524Q-6 524 -22 540Q-38 556 -38 578ZM83 0Q76 0 71 5Q66 10 66 17V447Q66 454 71 459Q76 464 83 464H119Q126 464 130.5 459Q135 454 135 447V17Q135 10 130.5 5Q126 0 119 0Z" glyph-name="idieresis" horiz-adv-x="201" unicode="ï" /><glyph d="M277 -13Q226 -13 182 5.5Q138 24 105.5 57Q73 90 54 135Q35 180 35 233Q35 284 53 328.5Q71 373 102 405.5Q133 438 175.5 456.5Q218 475 267 475Q286 475 307 471Q328 467 349 458.5Q370 450 388.5 437Q407 424 421 407Q398 455 364 499Q330 543 292 582L200 528Q195 525 188 525.5Q181 526 177 533L167 550Q159 564 173 572L253 619Q227 643 201 663Q175 683 152 699Q146 703 147.5 709Q149 715 157 715L212 718Q223 720 231 713Q263 691 309 652L400 705Q405 708 412 707.5Q419 707 423 700L433 683Q441 669 427 661L348 615Q380 583 410.5 543.5Q441 504 465.5 458Q490 412 505 359.5Q520 307 520 248Q520 191 501.5 143Q483 95 451 60.5Q419 26 374.5 6.5Q330 -13 277 -13ZM105 232Q105 194 117.5 161Q130 128 153 103.5Q176 79 207.5 65Q239 51 276 51Q313 51 344.5 65Q376 79 398.5 103.5Q421 128 433.5 161Q446 194 446 232Q446 270 433.5 303Q421 336 398.5 360.5Q376 385 344.5 399Q313 413 276 413Q239 413 207.5 399Q176 385 153 360.5Q130 336 117.5 303Q105 270 105 232Z" glyph-name="eth" horiz-adv-x="558" unicode="ð" /><glyph d="M339 541Q325 541 306 546.5Q287 552 268.5 558Q250 564 234.5 569.5Q219 575 210 575Q196 575 188 569Q180 563 172 550Q165 537 149 548L136 557Q128 562 128 571Q128 580 134 592Q140 604 150.5 614Q161 624 175.5 631Q190 638 208 638Q222 638 240.5 632.5Q259 627 277.5 621Q296 615 312 609.5Q328 604 337 604Q351 604 358 609.5Q365 615 375 629Q384 642 398 631L411 622Q419 617 419 608Q419 599 413 587Q407 575 396.5 565Q386 555 371.5 548Q357 541 339 541ZM437 258Q437 331 399.5 372.5Q362 414 290 414Q218 414 176.5 370.5Q135 327 135 258V16Q135 9 130 4.5Q125 0 119 0H83Q76 0 71 5Q66 10 66 17V447Q66 454 71 459Q76 464 83 464H119Q125 464 130 459Q135 454 135 447V383Q155 424 200 450Q245 476 306 476Q353 476 390 461Q427 446 453 419.5Q479 393 492.5 356Q506 319 506 274V16Q506 9 501 4.5Q496 0 489 0H454Q447 0 442 4.5Q437 9 437 16Z" glyph-name="ntilde" horiz-adv-x="566" unicode="ñ" /><glyph d="M223 692Q240 692 245 677L297 543Q302 526 284 526H257Q249 526 245.5 529.5Q242 533 238 540L162 674Q159 680 162.5 686Q166 692 174 692ZM35 232Q35 285 54 329.5Q73 374 105.5 406.5Q138 439 181.5 457.5Q225 476 275 476Q325 476 368.5 457.5Q412 439 444 406.5Q476 374 495 329.5Q514 285 514 232Q514 179 495 134Q476 89 444 56.5Q412 24 368.5 5.5Q325 -13 275 -13Q225 -13 181.5 5.5Q138 24 105.5 56.5Q73 89 54 134Q35 179 35 232ZM105 232Q105 194 117.5 161Q130 128 152.5 103.5Q175 79 206.5 65Q238 51 275 51Q312 51 343 65Q374 79 396.5 103.5Q419 128 431.5 161Q444 194 444 232Q444 270 431.5 303Q419 336 396.5 360.5Q374 385 343 399Q312 413 275 413Q238 413 206.5 399Q175 385 152.5 360.5Q130 336 117.5 303Q105 270 105 232Z" glyph-name="ograve" horiz-adv-x="549" unicode="ò" /><glyph d="M380 692Q388 692 391.5 686Q395 680 391 674L316 540Q308 526 296 526H269Q261 526 257.5 530.5Q254 535 257 543L309 677Q314 692 331 692ZM35 232Q35 285 54 329.5Q73 374 105.5 406.5Q138 439 181.5 457.5Q225 476 275 476Q325 476 368.5 457.5Q412 439 444 406.5Q476 374 495 329.5Q514 285 514 232Q514 179 495 134Q476 89 444 56.5Q412 24 368.5 5.5Q325 -13 275 -13Q225 -13 181.5 5.5Q138 24 105.5 56.5Q73 89 54 134Q35 179 35 232ZM105 232Q105 194 117.5 161Q130 128 152.5 103.5Q175 79 206.5 65Q238 51 275 51Q312 51 343 65Q374 79 396.5 103.5Q419 128 431.5 161Q444 194 444 232Q444 270 431.5 303Q419 336 396.5 360.5Q374 385 343 399Q312 413 275 413Q238 413 206.5 399Q175 385 152.5 360.5Q130 336 117.5 303Q105 270 105 232Z" glyph-name="oacute" horiz-adv-x="549" unicode="ó" /><glyph d="M295 692Q310 692 320 677L410 544Q415 537 411 531.5Q407 526 401 526H367Q359 526 354.5 529Q350 532 345 538L275 632L206 538Q201 532 196.5 529Q192 526 184 526H150Q143 526 139.5 531.5Q136 537 141 544L231 677Q236 685 241 688.5Q246 692 257 692ZM35 232Q35 285 54 329.5Q73 374 105.5 406.5Q138 439 181.5 457.5Q225 476 275 476Q325 476 368.5 457.5Q412 439 444 406.5Q476 374 495 329.5Q514 285 514 232Q514 179 495 134Q476 89 444 56.5Q412 24 368.5 5.5Q325 -13 275 -13Q225 -13 181.5 5.5Q138 24 105.5 56.5Q73 89 54 134Q35 179 35 232ZM105 232Q105 194 117.5 161Q130 128 152.5 103.5Q175 79 206.5 65Q238 51 275 51Q312 51 343 65Q374 79 396.5 103.5Q419 128 431.5 161Q444 194 444 232Q444 270 431.5 303Q419 336 396.5 360.5Q374 385 343 399Q312 413 275 413Q238 413 206.5 399Q175 385 152.5 360.5Q130 336 117.5 303Q105 270 105 232Z" glyph-name="ocircumflex" horiz-adv-x="549" unicode="ô" /><glyph d="M341 541Q327 541 308 546.5Q289 552 270.5 558Q252 564 236.5 569.5Q221 575 212 575Q198 575 190 569Q182 563 174 550Q167 537 151 548L138 557Q130 562 130 571Q130 580 136 592Q142 604 152.5 614Q163 624 177.5 631Q192 638 210 638Q224 638 242.5 632.5Q261 627 279.5 621Q298 615 314 609.5Q330 604 339 604Q353 604 360 609.5Q367 615 377 629Q386 642 400 631L413 622Q421 617 421 608Q421 599 415 587Q409 575 398.5 565Q388 555 373.5 548Q359 541 341 541ZM35 232Q35 285 54 329.5Q73 374 105.5 406.5Q138 439 181.5 457.5Q225 476 275 476Q325 476 368.5 457.5Q412 439 444 406.5Q476 374 495 329.5Q514 285 514 232Q514 179 495 134Q476 89 444 56.5Q412 24 368.5 5.5Q325 -13 275 -13Q225 -13 181.5 5.5Q138 24 105.5 56.5Q73 89 54 134Q35 179 35 232ZM105 232Q105 194 117.5 161Q130 128 152.5 103.5Q175 79 206.5 65Q238 51 275 51Q312 51 343 65Q374 79 396.5 103.5Q419 128 431.5 161Q444 194 444 232Q444 270 431.5 303Q419 336 396.5 360.5Q374 385 343 399Q312 413 275 413Q238 413 206.5 399Q175 385 152.5 360.5Q130 336 117.5 303Q105 270 105 232Z" glyph-name="otilde" horiz-adv-x="549" unicode="õ" /><glyph d="M304 578Q304 600 320 616.5Q336 633 358 633Q381 633 397 616.5Q413 600 413 578Q413 556 397 540Q381 524 358 524Q336 524 320 540Q304 556 304 578ZM136 578Q136 600 152 616.5Q168 633 191 633Q213 633 229 616.5Q245 600 245 578Q245 556 229 540Q213 524 191 524Q168 524 152 540Q136 556 136 578ZM35 232Q35 285 54 329.5Q73 374 105.5 406.5Q138 439 181.5 457.5Q225 476 275 476Q325 476 368.5 457.5Q412 439 444 406.5Q476 374 495 329.5Q514 285 514 232Q514 179 495 134Q476 89 444 56.5Q412 24 368.5 5.5Q325 -13 275 -13Q225 -13 181.5 5.5Q138 24 105.5 56.5Q73 89 54 134Q35 179 35 232ZM105 232Q105 194 117.5 161Q130 128 152.5 103.5Q175 79 206.5 65Q238 51 275 51Q312 51 343 65Q374 79 396.5 103.5Q419 128 431.5 161Q444 194 444 232Q444 270 431.5 303Q419 336 396.5 360.5Q374 385 343 399Q312 413 275 413Q238 413 206.5 399Q175 385 152.5 360.5Q130 336 117.5 303Q105 270 105 232Z" glyph-name="odieresis" horiz-adv-x="549" unicode="ö" /><glyph d="M266 468Q239 468 219.5 487Q200 506 200 533Q200 561 219.5 580Q239 599 266 599Q293 599 312 580Q331 561 331 533Q331 506 312 487Q293 468 266 468ZM486 337Q486 330 481 325Q476 320 469 320H64Q57 320 52 325Q47 330 47 337V372Q47 379 52 384Q57 389 64 389H469Q476 389 481 384Q486 379 486 372ZM266 101Q239 101 219.5 120Q200 139 200 167Q200 194 219.5 213Q239 232 266 232Q293 232 312 213Q331 194 331 167Q331 139 312 120Q293 101 266 101Z" glyph-name="divide" horiz-adv-x="533" unicode="÷" /><glyph d="M35 232Q35 285 54 329.5Q73 374 105.5 406.5Q138 439 181.5 457.5Q225 476 275 476Q325 476 368.5 457.5Q412 439 444 406.5Q476 374 495 329.5Q514 285 514 232Q514 179 495 134Q476 89 444 56.5Q412 24 368.5 5.5Q325 -13 275 -13Q225 -13 181.5 5.5Q138 24 105.5 56.5Q73 89 54 134Q35 179 35 232ZM105 232Q105 199 115 169Q125 139 143 115.5Q161 92 186 76Q211 60 242 54V410Q211 404 186 388.5Q161 373 143 349.5Q125 326 115 296Q105 266 105 232ZM444 232Q444 301 406.5 350Q369 399 307 410V54Q338 60 363 75.5Q388 91 406 114.5Q424 138 434 168Q444 198 444 232Z" glyph-name="oslash" horiz-adv-x="549" unicode="ø" /><glyph d="M226 692Q243 692 248 677L300 543Q305 526 287 526H260Q252 526 248.5 529.5Q245 533 241 540L165 674Q162 680 165.5 686Q169 692 177 692ZM129 200Q129 129 165.5 88Q202 47 274 47Q345 47 385 90Q425 133 425 200V447Q425 454 430 459Q435 464 442 464H477Q484 464 489 459Q494 454 494 447V17Q494 10 489 5Q484 0 477 0H442Q435 0 430 4.5Q425 9 425 16V81Q405 39 361.5 13Q318 -13 257 -13Q211 -13 174.5 1.5Q138 16 112.5 42.5Q87 69 73.5 106Q60 143 60 188V447Q60 454 65 459Q70 464 76 464H112Q119 464 124 459Q129 454 129 447Z" glyph-name="ugrave" horiz-adv-x="560" unicode="ù" /><glyph d="M383 692Q391 692 394.5 686Q398 680 394 674L319 540Q311 526 299 526H272Q264 526 260.5 530.5Q257 535 260 543L312 677Q317 692 334 692ZM129 200Q129 129 165.5 88Q202 47 274 47Q345 47 385 90Q425 133 425 200V447Q425 454 430 459Q435 464 442 464H477Q484 464 489 459Q494 454 494 447V17Q494 10 489 5Q484 0 477 0H442Q435 0 430 4.5Q425 9 425 16V81Q405 39 361.5 13Q318 -13 257 -13Q211 -13 174.5 1.5Q138 16 112.5 42.5Q87 69 73.5 106Q60 143 60 188V447Q60 454 65 459Q70 464 76 464H112Q119 464 124 459Q129 454 129 447Z" glyph-name="uacute" horiz-adv-x="560" unicode="ú" /><glyph d="M298 692Q313 692 323 677L413 544Q418 537 414 531.5Q410 526 404 526H370Q362 526 357.5 529Q353 532 348 538L278 632L209 538Q204 532 199.5 529Q195 526 187 526H153Q146 526 142.5 531.5Q139 537 144 544L234 677Q239 685 244 688.5Q249 692 260 692ZM129 200Q129 129 165.5 88Q202 47 274 47Q345 47 385 90Q425 133 425 200V447Q425 454 430 459Q435 464 442 464H477Q484 464 489 459Q494 454 494 447V17Q494 10 489 5Q484 0 477 0H442Q435 0 430 4.5Q425 9 425 16V81Q405 39 361.5 13Q318 -13 257 -13Q211 -13 174.5 1.5Q138 16 112.5 42.5Q87 69 73.5 106Q60 143 60 188V447Q60 454 65 459Q70 464 76 464H112Q119 464 124 459Q129 454 129 447Z" glyph-name="ucircumflex" horiz-adv-x="560" unicode="û" /><glyph d="M307 578Q307 600 323 616.5Q339 633 361 633Q384 633 400 616.5Q416 600 416 578Q416 556 400 540Q384 524 361 524Q339 524 323 540Q307 556 307 578ZM139 578Q139 600 155 616.5Q171 633 194 633Q216 633 232 616.5Q248 600 248 578Q248 556 232 540Q216 524 194 524Q171 524 155 540Q139 556 139 578ZM129 200Q129 129 165.5 88Q202 47 274 47Q345 47 385 90Q425 133 425 200V447Q425 454 430 459Q435 464 442 464H477Q484 464 489 459Q494 454 494 447V17Q494 10 489 5Q484 0 477 0H442Q435 0 430 4.5Q425 9 425 16V81Q405 39 361.5 13Q318 -13 257 -13Q211 -13 174.5 1.5Q138 16 112.5 42.5Q87 69 73.5 106Q60 143 60 188V447Q60 454 65 459Q70 464 76 464H112Q119 464 124 459Q129 454 129 447Z" glyph-name="udieresis" horiz-adv-x="560" unicode="ü" /><glyph d="M341 692Q349 692 352.5 686Q356 680 352 674L277 540Q269 526 257 526H230Q222 526 218.5 530.5Q215 535 218 543L270 677Q275 692 292 692ZM210 -118Q187 -173 157.5 -196.5Q128 -220 75 -220H63Q55 -220 49.5 -215.5Q44 -211 44 -202V-178Q44 -161 61 -161H75Q99 -161 116 -148Q133 -135 147 -104L208 40L24 445Q21 452 25 458Q29 464 37 464H76Q84 464 90 461.5Q96 459 101 448L246 124L379 448Q383 456 387.5 460Q392 464 402 464H440Q448 464 451.5 458.5Q455 453 452 445Z" glyph-name="yacute" horiz-adv-x="471" unicode="ý" /><glyph d="M137 376Q159 420 205.5 448Q252 476 312 476Q360 476 402.5 458Q445 440 476.5 407.5Q508 375 526.5 330.5Q545 286 545 232Q545 178 526.5 133Q508 88 476.5 55.5Q445 23 402.5 5Q360 -13 312 -13Q254 -13 207 14.5Q160 42 137 86V-189Q137 -196 132 -201Q127 -206 120 -206H84Q77 -206 72 -201Q67 -196 67 -189V683Q67 690 72 695Q77 700 84 700H120Q127 700 132 695Q137 690 137 683ZM136 232Q136 194 148.5 161Q161 128 183.5 103.5Q206 79 237 65Q268 51 305 51Q342 51 373 65Q404 79 426.5 103.5Q449 128 461.5 161Q474 194 474 232Q474 270 461.5 303Q449 336 426.5 360.5Q404 385 373 399Q342 413 305 413Q268 413 237 399Q206 385 183.5 360.5Q161 336 148.5 303Q136 270 136 232Z" glyph-name="thorn" horiz-adv-x="580" unicode="þ" /><glyph d="M266 578Q266 600 282 616.5Q298 633 320 633Q343 633 359 616.5Q375 600 375 578Q375 556 359 540Q343 524 320 524Q298 524 282 540Q266 556 266 578ZM98 578Q98 600 114 616.5Q130 633 153 633Q175 633 191 616.5Q207 600 207 578Q207 556 191 540Q175 524 153 524Q130 524 114 540Q98 556 98 578ZM210 -118Q187 -173 157.5 -196.5Q128 -220 75 -220H63Q55 -220 49.5 -215.5Q44 -211 44 -202V-178Q44 -161 61 -161H75Q99 -161 116 -148Q133 -135 147 -104L208 40L24 445Q21 452 25 458Q29 464 37 464H76Q84 464 90 461.5Q96 459 101 448L246 124L379 448Q383 456 387.5 460Q392 464 402 464H440Q448 464 451.5 458.5Q455 453 452 445Z" glyph-name="ydieresis" horiz-adv-x="471" unicode="ÿ" /><glyph d="M208 784Q201 784 196 789Q191 794 191 801V825Q191 832 196 837Q201 842 208 842H437Q444 842 449 837Q454 832 454 825V801Q454 794 449 789Q444 784 437 784ZM85 16Q80 0 67 0H25Q17 0 13.5 5.5Q10 11 13 19L272 684Q278 700 293 700H353Q368 700 374 684L633 19Q637 11 633 5.5Q629 0 622 0H577Q563 0 557 16L486 202H156ZM463 263 321 636L179 263Z" glyph-name="Amacron" horiz-adv-x="646" unicode="Ā" /><glyph d="M161 548Q154 548 149 553Q144 558 144 565V589Q144 596 149 601Q154 606 161 606H390Q397 606 402 601Q407 596 407 589V565Q407 558 402 553Q397 548 390 548ZM35 232Q35 286 53.5 331Q72 376 104 408.5Q136 441 178.5 459Q221 477 269 477Q329 477 375 448.5Q421 420 443 376V447Q443 454 448 459Q453 464 460 464H496Q503 464 507.5 459Q512 454 512 447V17Q512 10 507.5 5Q503 0 496 0H460Q453 0 448 5Q443 10 443 17V88Q420 44 374.5 15.5Q329 -13 269 -13Q221 -13 178.5 5Q136 23 104 55.5Q72 88 53.5 133Q35 178 35 232ZM106 232Q106 194 118.5 161Q131 128 153.5 103.5Q176 79 207 65Q238 51 275 51Q312 51 343 65Q374 79 396.5 103.5Q419 128 431.5 161Q444 194 444 232Q444 270 431.5 303Q419 336 396.5 360.5Q374 385 343 399Q312 413 275 413Q238 413 207 399Q176 385 153.5 360.5Q131 336 118.5 303Q106 270 106 232Z" glyph-name="amacron" horiz-adv-x="578" unicode="ā" /><glyph d="M323 757Q267 757 235 786.5Q203 816 203 866V878Q203 888 213 888H254Q257 888 259.5 885Q262 882 262 880V871Q262 842 279.5 827.5Q297 813 323 813Q350 813 368 827.5Q386 842 386 871V880Q386 882 388.5 885Q391 888 395 888H435Q445 888 445 878V866Q445 816 412.5 786.5Q380 757 323 757ZM85 16Q80 0 67 0H25Q17 0 13.5 5.5Q10 11 13 19L272 684Q278 700 293 700H353Q368 700 374 684L633 19Q637 11 633 5.5Q629 0 622 0H577Q563 0 557 16L486 202H156ZM463 263 321 636L179 263Z" glyph-name="Abreve" horiz-adv-x="646" unicode="Ă" /><glyph d="M276 521Q220 521 188 550.5Q156 580 156 630V642Q156 652 166 652H207Q210 652 212.5 649Q215 646 215 644V635Q215 606 232.5 591.5Q250 577 276 577Q303 577 321 591.5Q339 606 339 635V644Q339 646 341.5 649Q344 652 348 652H388Q398 652 398 642V630Q398 580 365.5 550.5Q333 521 276 521ZM35 232Q35 286 53.5 331Q72 376 104 408.5Q136 441 178.5 459Q221 477 269 477Q329 477 375 448.5Q421 420 443 376V447Q443 454 448 459Q453 464 460 464H496Q503 464 507.5 459Q512 454 512 447V17Q512 10 507.5 5Q503 0 496 0H460Q453 0 448 5Q443 10 443 17V88Q420 44 374.5 15.5Q329 -13 269 -13Q221 -13 178.5 5Q136 23 104 55.5Q72 88 53.5 133Q35 178 35 232ZM106 232Q106 194 118.5 161Q131 128 153.5 103.5Q176 79 207 65Q238 51 275 51Q312 51 343 65Q374 79 396.5 103.5Q419 128 431.5 161Q444 194 444 232Q444 270 431.5 303Q419 336 396.5 360.5Q374 385 343 399Q312 413 275 413Q238 413 207 399Q176 385 153.5 360.5Q131 336 118.5 303Q106 270 106 232Z" glyph-name="abreve" horiz-adv-x="578" unicode="ă" /><glyph d="M642 -177Q642 -183 636 -187.5Q630 -192 621 -194.5Q612 -197 602 -198Q592 -199 583 -199Q541 -199 518 -178.5Q495 -158 495 -124Q495 -105 502.5 -87Q510 -69 522 -53Q534 -37 548 -23.5Q562 -10 575 0Q564 1 557 16L486 202H156L85 16Q80 0 67 0H25Q17 0 13.5 5.5Q10 11 13 19L272 684Q278 700 293 700H353Q368 700 374 684L633 19Q637 11 633 5.5Q629 0 622 0H620Q596 -28 578 -59.5Q560 -91 560 -112Q560 -149 602 -149Q616 -149 632 -146Q638 -144 642 -148Q646 -152 644 -160ZM463 263 321 636L179 263Z" glyph-name="Aogonek" horiz-adv-x="646" unicode="Ą" /><glyph d="M522 -163Q522 -169 516 -173.5Q510 -178 501 -180.5Q492 -183 482 -184Q472 -185 463 -185Q421 -185 398 -164.5Q375 -144 375 -110Q375 -75 398 -44.5Q421 -14 446 7Q443 12 443 17V88Q420 44 374.5 15.5Q329 -13 269 -13Q221 -13 178.5 5Q136 23 104 55.5Q72 88 53.5 133Q35 178 35 232Q35 286 53.5 331Q72 376 104 408.5Q136 441 178.5 459Q221 477 269 477Q329 477 375 448.5Q421 420 443 376V447Q443 454 448 459Q453 464 460 464H496Q503 464 507.5 459Q512 454 512 447V17Q512 10 507.5 5Q503 0 496 0H489Q469 -26 454.5 -52.5Q440 -79 440 -98Q440 -135 482 -135Q496 -135 512 -132Q518 -130 522 -134Q526 -138 524 -146ZM106 232Q106 194 118.5 161Q131 128 153.5 103.5Q176 79 207 65Q238 51 275 51Q312 51 343 65Q374 79 396.5 103.5Q419 128 431.5 161Q444 194 444 232Q444 270 431.5 303Q419 336 396.5 360.5Q374 385 343 399Q312 413 275 413Q238 413 207 399Q176 385 153.5 360.5Q131 336 118.5 303Q106 270 106 232Z" glyph-name="aogonek" horiz-adv-x="578" unicode="ą" /><glyph d="M488 928Q496 928 499.5 922Q503 916 499 910L424 776Q416 762 404 762H377Q369 762 365.5 766.5Q362 771 365 779L417 913Q422 928 439 928ZM394 -13Q320 -13 255 14.5Q190 42 142 90.5Q94 139 66.5 205.5Q39 272 39 350Q39 428 67 494.5Q95 561 143 609.5Q191 658 255.5 685.5Q320 713 394 713Q449 713 500 698Q551 683 594 654.5Q637 626 670 585.5Q703 545 722 494Q724 489 721.5 483.5Q719 478 711 477L667 470Q659 469 655 473Q651 477 649 484Q616 559 550.5 603.5Q485 648 394 648Q333 648 281.5 625Q230 602 192.5 562Q155 522 134 467.5Q113 413 113 350Q113 287 134 232.5Q155 178 192.5 138Q230 98 281.5 75Q333 52 394 52Q485 52 550.5 96.5Q616 141 649 216Q651 223 655 227Q659 231 667 230L711 223Q719 222 721.5 216.5Q724 211 722 206Q703 155 670 114.5Q637 74 594 45.5Q551 17 500 2Q449 -13 394 -13Z" glyph-name="Cacute" horiz-adv-x="747" unicode="Ć" /><glyph d="M365 692Q373 692 376.5 686Q380 680 376 674L301 540Q293 526 281 526H254Q246 526 242.5 530.5Q239 535 242 543L294 677Q299 692 316 692ZM481 106Q454 51 399 19Q344 -13 275 -13Q225 -13 181 5.5Q137 24 104.5 56.5Q72 89 53.5 134Q35 179 35 232Q35 285 53.5 330Q72 375 104.5 407.5Q137 440 181 458.5Q225 477 275 477Q344 477 399 445Q454 413 481 358Q486 349 483 342.5Q480 336 474 333L448 320Q432 311 422 327Q398 369 361.5 391Q325 413 275 413Q238 413 207 399Q176 385 153.5 360.5Q131 336 118.5 303Q106 270 106 232Q106 194 118.5 161Q131 128 153.5 103.5Q176 79 207 65Q238 51 275 51Q325 51 361.5 73Q398 95 422 137Q432 153 448 144L474 131Q480 128 483 121.5Q486 115 481 106Z" glyph-name="cacute" horiz-adv-x="513" unicode="ć" /><glyph d="M403 928Q418 928 428 913L518 780Q523 773 519 767.5Q515 762 509 762H475Q467 762 462.5 765Q458 768 453 774L383 868L314 774Q309 768 304.5 765Q300 762 292 762H258Q251 762 247.5 767.5Q244 773 249 780L339 913Q344 921 349 924.5Q354 928 365 928ZM394 -13Q320 -13 255 14.5Q190 42 142 90.5Q94 139 66.5 205.5Q39 272 39 350Q39 428 67 494.5Q95 561 143 609.5Q191 658 255.5 685.5Q320 713 394 713Q449 713 500 698Q551 683 594 654.5Q637 626 670 585.5Q703 545 722 494Q724 489 721.5 483.5Q719 478 711 477L667 470Q659 469 655 473Q651 477 649 484Q616 559 550.5 603.5Q485 648 394 648Q333 648 281.5 625Q230 602 192.5 562Q155 522 134 467.5Q113 413 113 350Q113 287 134 232.5Q155 178 192.5 138Q230 98 281.5 75Q333 52 394 52Q485 52 550.5 96.5Q616 141 649 216Q651 223 655 227Q659 231 667 230L711 223Q719 222 721.5 216.5Q724 211 722 206Q703 155 670 114.5Q637 74 594 45.5Q551 17 500 2Q449 -13 394 -13Z" glyph-name="Ccircumflex" horiz-adv-x="747" unicode="Ĉ" /><glyph d="M280 692Q295 692 305 677L395 544Q400 537 396 531.5Q392 526 386 526H352Q344 526 339.5 529Q335 532 330 538L260 632L191 538Q186 532 181.5 529Q177 526 169 526H135Q128 526 124.5 531.5Q121 537 126 544L216 677Q221 685 226 688.5Q231 692 242 692ZM481 106Q454 51 399 19Q344 -13 275 -13Q225 -13 181 5.5Q137 24 104.5 56.5Q72 89 53.5 134Q35 179 35 232Q35 285 53.5 330Q72 375 104.5 407.5Q137 440 181 458.5Q225 477 275 477Q344 477 399 445Q454 413 481 358Q486 349 483 342.5Q480 336 474 333L448 320Q432 311 422 327Q398 369 361.5 391Q325 413 275 413Q238 413 207 399Q176 385 153.5 360.5Q131 336 118.5 303Q106 270 106 232Q106 194 118.5 161Q131 128 153.5 103.5Q176 79 207 65Q238 51 275 51Q325 51 361.5 73Q398 95 422 137Q432 153 448 144L474 131Q480 128 483 121.5Q486 115 481 106Z" glyph-name="ccircumflex" horiz-adv-x="513" unicode="ĉ" /><glyph d="M383 773Q359 773 341.5 790.5Q324 808 324 833Q324 857 341.5 874Q359 891 383 891Q407 891 424.5 874Q442 857 442 833Q442 808 424.5 790.5Q407 773 383 773ZM394 -13Q320 -13 255 14.5Q190 42 142 90.5Q94 139 66.5 205.5Q39 272 39 350Q39 428 67 494.5Q95 561 143 609.5Q191 658 255.5 685.5Q320 713 394 713Q449 713 500 698Q551 683 594 654.5Q637 626 670 585.5Q703 545 722 494Q724 489 721.5 483.5Q719 478 711 477L667 470Q659 469 655 473Q651 477 649 484Q616 559 550.5 603.5Q485 648 394 648Q333 648 281.5 625Q230 602 192.5 562Q155 522 134 467.5Q113 413 113 350Q113 287 134 232.5Q155 178 192.5 138Q230 98 281.5 75Q333 52 394 52Q485 52 550.5 96.5Q616 141 649 216Q651 223 655 227Q659 231 667 230L711 223Q719 222 721.5 216.5Q724 211 722 206Q703 155 670 114.5Q637 74 594 45.5Q551 17 500 2Q449 -13 394 -13Z" glyph-name="Cdotaccent" horiz-adv-x="747" unicode="Ċ" /><glyph d="M260 537Q236 537 218.5 554.5Q201 572 201 597Q201 621 218.5 638Q236 655 260 655Q284 655 301.5 638Q319 621 319 597Q319 572 301.5 554.5Q284 537 260 537ZM481 106Q454 51 399 19Q344 -13 275 -13Q225 -13 181 5.5Q137 24 104.5 56.5Q72 89 53.5 134Q35 179 35 232Q35 285 53.5 330Q72 375 104.5 407.5Q137 440 181 458.5Q225 477 275 477Q344 477 399 445Q454 413 481 358Q486 349 483 342.5Q480 336 474 333L448 320Q432 311 422 327Q398 369 361.5 391Q325 413 275 413Q238 413 207 399Q176 385 153.5 360.5Q131 336 118.5 303Q106 270 106 232Q106 194 118.5 161Q131 128 153.5 103.5Q176 79 207 65Q238 51 275 51Q325 51 361.5 73Q398 95 422 137Q432 153 448 144L474 131Q480 128 483 121.5Q486 115 481 106Z" glyph-name="cdotaccent" horiz-adv-x="513" unicode="ċ" /><glyph d="M365 762Q354 762 349 765.5Q344 769 339 777L249 911Q244 918 247.5 923Q251 928 258 928H292Q304 928 314 917L383 823L453 917Q461 928 475 928H509Q515 928 519 923Q523 918 518 911L428 777Q423 769 417.5 765.5Q412 762 403 762ZM394 -13Q320 -13 255 14.5Q190 42 142 90.5Q94 139 66.5 205.5Q39 272 39 350Q39 428 67 494.5Q95 561 143 609.5Q191 658 255.5 685.5Q320 713 394 713Q449 713 500 698Q551 683 594 654.5Q637 626 670 585.5Q703 545 722 494Q724 489 721.5 483.5Q719 478 711 477L667 470Q659 469 655 473Q651 477 649 484Q616 559 550.5 603.5Q485 648 394 648Q333 648 281.5 625Q230 602 192.5 562Q155 522 134 467.5Q113 413 113 350Q113 287 134 232.5Q155 178 192.5 138Q230 98 281.5 75Q333 52 394 52Q485 52 550.5 96.5Q616 141 649 216Q651 223 655 227Q659 231 667 230L711 223Q719 222 721.5 216.5Q724 211 722 206Q703 155 670 114.5Q637 74 594 45.5Q551 17 500 2Q449 -13 394 -13Z" glyph-name="Ccaron" horiz-adv-x="747" unicode="Č" /><glyph d="M242 526Q231 526 226 529.5Q221 533 216 541L126 675Q121 682 124.5 687Q128 692 135 692H169Q181 692 191 681L260 587L330 681Q338 692 352 692H386Q392 692 396 687Q400 682 395 675L305 541Q300 533 294.5 529.5Q289 526 280 526ZM481 106Q454 51 399 19Q344 -13 275 -13Q225 -13 181 5.5Q137 24 104.5 56.5Q72 89 53.5 134Q35 179 35 232Q35 285 53.5 330Q72 375 104.5 407.5Q137 440 181 458.5Q225 477 275 477Q344 477 399 445Q454 413 481 358Q486 349 483 342.5Q480 336 474 333L448 320Q432 311 422 327Q398 369 361.5 391Q325 413 275 413Q238 413 207 399Q176 385 153.5 360.5Q131 336 118.5 303Q106 270 106 232Q106 194 118.5 161Q131 128 153.5 103.5Q176 79 207 65Q238 51 275 51Q325 51 361.5 73Q398 95 422 137Q432 153 448 144L474 131Q480 128 483 121.5Q486 115 481 106Z" glyph-name="ccaron" horiz-adv-x="513" unicode="č" /><glyph d="M351 762Q340 762 335 765.5Q330 769 325 777L235 911Q230 918 233.5 923Q237 928 244 928H278Q290 928 300 917L369 823L439 917Q447 928 461 928H495Q501 928 505 923Q509 918 504 911L414 777Q409 769 403.5 765.5Q398 762 389 762ZM318 700Q409 700 478.5 674.5Q548 649 595.5 603Q643 557 667 492.5Q691 428 691 350Q691 272 667 207.5Q643 143 595.5 97Q548 51 478.5 25.5Q409 0 318 0H105Q98 0 93 5Q88 10 88 17V683Q88 690 93 695Q98 700 105 700ZM328 66Q392 66 445 85Q498 104 536.5 140Q575 176 596 229Q617 282 617 350Q617 418 596 471Q575 524 536.5 560Q498 596 445 615Q392 634 328 634H160V66Z" glyph-name="Dcaron" horiz-adv-x="732" unicode="Ď" /><glyph d="M608 588Q591 595 579.5 609.5Q568 624 568 644Q568 669 585 685.5Q602 702 627 702Q651 702 668.5 684.5Q686 667 686 641Q686 622 678.5 603Q671 584 660.5 566.5Q650 549 638 534Q626 519 616 508Q609 501 603 496.5Q597 492 589 497L580 502Q566 509 572 519ZM35 231Q35 285 53.5 330Q72 375 104 407.5Q136 440 178 458Q220 476 268 476Q329 476 375 448Q421 420 443 376V683Q443 690 448 695Q453 700 460 700H496Q503 700 507.5 695Q512 690 512 683V17Q512 10 507.5 5Q503 0 496 0H460Q453 0 448 5Q443 10 443 17V88Q420 44 374.5 15.5Q329 -13 269 -13Q221 -13 178.5 5Q136 23 104 55.5Q72 88 53.5 132.5Q35 177 35 231ZM106 231Q106 193 118.5 160Q131 127 153.5 103Q176 79 207 65Q238 51 275 51Q312 51 343 65Q374 79 396.5 103Q419 127 431.5 160Q444 193 444 231Q444 269 431.5 302.5Q419 336 396.5 360.5Q374 385 343 399Q312 413 275 413Q238 413 207 399Q176 385 153.5 360.5Q131 336 118.5 302.5Q106 269 106 231Z" glyph-name="dcaron" horiz-adv-x="591" unicode="ď" /><glyph d="M115 0Q108 0 103 5Q98 10 98 17V325H18Q11 325 6 330Q1 335 1 342V368Q1 375 6 380Q11 385 18 385H98V683Q98 690 103 695Q108 700 115 700H328Q418 700 488 674.5Q558 649 605 603Q652 557 676.5 492.5Q701 428 701 350Q701 272 676.5 207.5Q652 143 605 97Q558 51 488 25.5Q418 0 328 0ZM338 66Q402 66 455 85Q508 104 546.5 140Q585 176 606 229Q627 282 627 350Q627 418 606 471Q585 524 546.5 560Q508 596 455 615Q402 634 338 634H170V385H378Q386 385 390.5 380Q395 375 395 368V342Q395 335 390.5 330Q386 325 378 325H170V66Z" glyph-name="Dcroat" horiz-adv-x="742" unicode="Đ" /><glyph d="M443 88Q420 44 374.5 15.5Q329 -13 269 -13Q221 -13 178.5 5Q136 23 104 55.5Q72 88 53.5 132.5Q35 177 35 231Q35 285 53.5 330Q72 375 104 407.5Q136 440 178 458Q220 476 268 476Q329 476 375 448Q421 420 443 376V546H304Q296 546 291.5 551Q287 556 287 563V581Q287 588 291.5 593Q296 598 304 598H443V683Q443 690 448 695Q453 700 460 700H496Q503 700 507.5 695Q512 690 512 683V598H571Q579 598 583.5 593Q588 588 588 581V563Q588 556 583.5 551Q579 546 571 546H512V17Q512 10 507.5 5Q503 0 496 0H460Q453 0 448 5Q443 10 443 17ZM106 231Q106 193 118.5 160Q131 127 153.5 103Q176 79 207 65Q238 51 275 51Q312 51 343 65Q374 79 396.5 103Q419 127 431.5 160Q444 193 444 231Q444 269 431.5 302.5Q419 336 396.5 360.5Q374 385 343 399Q312 413 275 413Q238 413 207 399Q176 385 153.5 360.5Q131 336 118.5 302.5Q106 269 106 231Z" glyph-name="dcroat" horiz-adv-x="579" unicode="đ" /><glyph d="M214 784Q207 784 202 789Q197 794 197 801V825Q197 832 202 837Q207 842 214 842H443Q450 842 455 837Q460 832 460 825V801Q460 794 455 789Q450 784 443 784ZM566 700Q573 700 578 695Q583 690 583 683V651Q583 644 578 639Q573 634 566 634H160V387H368Q385 387 385 370V339Q385 332 380.5 327Q376 322 368 322H160V66H568Q575 66 580 61Q585 56 585 49V17Q585 10 580 5Q575 0 568 0H105Q98 0 93 5Q88 10 88 17V683Q88 690 93 695Q98 700 105 700Z" glyph-name="Emacron" horiz-adv-x="613" unicode="Ē" /><glyph d="M153 548Q146 548 141 553Q136 558 136 565V589Q136 596 141 601Q146 606 153 606H382Q389 606 394 601Q399 596 399 589V565Q399 558 394 553Q389 548 382 548ZM273 477Q323 477 365.5 460Q408 443 439.5 412Q471 381 488.5 338Q506 295 506 243V230Q506 223 502 218Q498 213 490 213H106Q109 176 123 145.5Q137 115 160 94Q183 73 213 61.5Q243 50 277 50Q331 50 363.5 70Q396 90 418 112Q433 127 448 115L465 100Q473 93 473.5 86Q474 79 470 74Q441 33 389.5 10Q338 -13 277 -13Q232 -13 188.5 2Q145 17 111 47.5Q77 78 56 124.5Q35 171 35 234Q35 285 53 329.5Q71 374 102.5 407Q134 440 177.5 458.5Q221 477 273 477ZM438 264Q430 336 384.5 377Q339 418 273 418Q239 418 210.5 406.5Q182 395 160.5 374Q139 353 125.5 325Q112 297 108 264Z" glyph-name="emacron" horiz-adv-x="533" unicode="ē" /><glyph d="M328 757Q272 757 240 786.5Q208 816 208 866V878Q208 888 218 888H259Q262 888 264.5 885Q267 882 267 880V871Q267 842 284.5 827.5Q302 813 328 813Q355 813 373 827.5Q391 842 391 871V880Q391 882 393.5 885Q396 888 400 888H440Q450 888 450 878V866Q450 816 417.5 786.5Q385 757 328 757ZM566 700Q573 700 578 695Q583 690 583 683V651Q583 644 578 639Q573 634 566 634H160V387H368Q385 387 385 370V339Q385 332 380.5 327Q376 322 368 322H160V66H568Q575 66 580 61Q585 56 585 49V17Q585 10 580 5Q575 0 568 0H105Q98 0 93 5Q88 10 88 17V683Q88 690 93 695Q98 700 105 700Z" glyph-name="Ebreve" horiz-adv-x="613" unicode="Ĕ" /><glyph d="M268 521Q212 521 180 550.5Q148 580 148 630V642Q148 652 158 652H199Q202 652 204.5 649Q207 646 207 644V635Q207 606 224.5 591.5Q242 577 268 577Q295 577 313 591.5Q331 606 331 635V644Q331 646 333.5 649Q336 652 340 652H380Q390 652 390 642V630Q390 580 357.5 550.5Q325 521 268 521ZM273 477Q323 477 365.5 460Q408 443 439.5 412Q471 381 488.5 338Q506 295 506 243V230Q506 223 502 218Q498 213 490 213H106Q109 176 123 145.5Q137 115 160 94Q183 73 213 61.5Q243 50 277 50Q331 50 363.5 70Q396 90 418 112Q433 127 448 115L465 100Q473 93 473.5 86Q474 79 470 74Q441 33 389.5 10Q338 -13 277 -13Q232 -13 188.5 2Q145 17 111 47.5Q77 78 56 124.5Q35 171 35 234Q35 285 53 329.5Q71 374 102.5 407Q134 440 177.5 458.5Q221 477 273 477ZM438 264Q430 336 384.5 377Q339 418 273 418Q239 418 210.5 406.5Q182 395 160.5 374Q139 353 125.5 325Q112 297 108 264Z" glyph-name="ebreve" horiz-adv-x="533" unicode="ĕ" /><glyph d="M329 773Q305 773 287.5 790.5Q270 808 270 833Q270 857 287.5 874Q305 891 329 891Q353 891 370.5 874Q388 857 388 833Q388 808 370.5 790.5Q353 773 329 773ZM566 700Q573 700 578 695Q583 690 583 683V651Q583 644 578 639Q573 634 566 634H160V387H368Q385 387 385 370V339Q385 332 380.5 327Q376 322 368 322H160V66H568Q575 66 580 61Q585 56 585 49V17Q585 10 580 5Q575 0 568 0H105Q98 0 93 5Q88 10 88 17V683Q88 690 93 695Q98 700 105 700Z" glyph-name="Edotaccent" horiz-adv-x="613" unicode="Ė" /><glyph d="M268 537Q244 537 226.5 554.5Q209 572 209 597Q209 621 226.5 638Q244 655 268 655Q292 655 309.5 638Q327 621 327 597Q327 572 309.5 554.5Q292 537 268 537ZM273 477Q323 477 365.5 460Q408 443 439.5 412Q471 381 488.5 338Q506 295 506 243V230Q506 223 502 218Q498 213 490 213H106Q109 176 123 145.5Q137 115 160 94Q183 73 213 61.5Q243 50 277 50Q331 50 363.5 70Q396 90 418 112Q433 127 448 115L465 100Q473 93 473.5 86Q474 79 470 74Q441 33 389.5 10Q338 -13 277 -13Q232 -13 188.5 2Q145 17 111 47.5Q77 78 56 124.5Q35 171 35 234Q35 285 53 329.5Q71 374 102.5 407Q134 440 177.5 458.5Q221 477 273 477ZM438 264Q430 336 384.5 377Q339 418 273 418Q239 418 210.5 406.5Q182 395 160.5 374Q139 353 125.5 325Q112 297 108 264Z" glyph-name="edotaccent" horiz-adv-x="533" unicode="ė" /><glyph d="M535 -177Q535 -183 529 -187.5Q523 -192 514 -194.5Q505 -197 495 -198Q485 -199 476 -199Q434 -199 411 -178.5Q388 -158 388 -124Q388 -105 395.5 -87Q403 -69 415 -53Q427 -37 441 -23.5Q455 -10 468 0H105Q98 0 93 5Q88 10 88 17V683Q88 690 93 695Q98 700 105 700H566Q573 700 578 695Q583 690 583 683V651Q583 644 578 639Q573 634 566 634H160V387H368Q385 387 385 370V339Q385 332 380.5 327Q376 322 368 322H160V66H568Q575 66 580 61Q585 56 585 49V17Q585 10 580 5Q575 0 568 0H513Q489 -28 471 -59.5Q453 -91 453 -112Q453 -149 495 -149Q509 -149 525 -146Q531 -144 535 -148Q539 -152 537 -160Z" glyph-name="Eogonek" horiz-adv-x="613" unicode="Ę" /><glyph d="M392 -156Q392 -162 386 -166.5Q380 -171 371 -173.5Q362 -176 352 -177Q342 -178 333 -178Q291 -178 268 -157.5Q245 -137 245 -103Q245 -78 258 -55Q271 -32 288 -13H277Q232 -13 188.5 2Q145 17 111 47.5Q77 78 56 124.5Q35 171 35 234Q35 285 53 329.5Q71 374 102.5 407Q134 440 177.5 458.5Q221 477 273 477Q323 477 365.5 460Q408 443 439.5 412Q471 381 488.5 338Q506 295 506 243V230Q506 223 502 218Q498 213 490 213H106Q109 176 123 145.5Q137 115 160 94Q183 73 213 61.5Q243 50 277 50Q331 50 363.5 70Q396 90 418 112Q433 127 448 115L465 100Q473 93 473.5 86Q474 79 470 74Q429 17 351 -3Q334 -27 322 -50.5Q310 -74 310 -91Q310 -128 352 -128Q366 -128 382 -125Q388 -123 392 -127Q396 -131 394 -139ZM438 264Q430 336 384.5 377Q339 418 273 418Q239 418 210.5 406.5Q182 395 160.5 374Q139 353 125.5 325Q112 297 108 264Z" glyph-name="eogonek" horiz-adv-x="533" unicode="ę" /><glyph d="M310 762Q299 762 294 765.5Q289 769 284 777L194 911Q189 918 192.5 923Q196 928 203 928H237Q249 928 259 917L328 823L398 917Q406 928 420 928H454Q460 928 464 923Q468 918 463 911L373 777Q368 769 362.5 765.5Q357 762 348 762ZM566 700Q573 700 578 695Q583 690 583 683V651Q583 644 578 639Q573 634 566 634H160V387H368Q385 387 385 370V339Q385 332 380.5 327Q376 322 368 322H160V66H568Q575 66 580 61Q585 56 585 49V17Q585 10 580 5Q575 0 568 0H105Q98 0 93 5Q88 10 88 17V683Q88 690 93 695Q98 700 105 700Z" glyph-name="Ecaron" horiz-adv-x="613" unicode="Ě" /><glyph d="M250 526Q239 526 234 529.5Q229 533 224 541L134 675Q129 682 132.5 687Q136 692 143 692H177Q189 692 199 681L268 587L338 681Q346 692 360 692H394Q400 692 404 687Q408 682 403 675L313 541Q308 533 302.5 529.5Q297 526 288 526ZM273 477Q323 477 365.5 460Q408 443 439.5 412Q471 381 488.5 338Q506 295 506 243V230Q506 223 502 218Q498 213 490 213H106Q109 176 123 145.5Q137 115 160 94Q183 73 213 61.5Q243 50 277 50Q331 50 363.5 70Q396 90 418 112Q433 127 448 115L465 100Q473 93 473.5 86Q474 79 470 74Q441 33 389.5 10Q338 -13 277 -13Q232 -13 188.5 2Q145 17 111 47.5Q77 78 56 124.5Q35 171 35 234Q35 285 53 329.5Q71 374 102.5 407Q134 440 177.5 458.5Q221 477 273 477ZM438 264Q430 336 384.5 377Q339 418 273 418Q239 418 210.5 406.5Q182 395 160.5 374Q139 353 125.5 325Q112 297 108 264Z" glyph-name="ecaron" horiz-adv-x="533" unicode="ě" /><glyph d="M412 928Q427 928 437 913L527 780Q532 773 528 767.5Q524 762 518 762H484Q476 762 471.5 765Q467 768 462 774L392 868L323 774Q318 768 313.5 765Q309 762 301 762H267Q260 762 256.5 767.5Q253 773 258 780L348 913Q353 921 358 924.5Q363 928 374 928ZM397 713Q453 713 504.5 698Q556 683 599.5 654.5Q643 626 676 585.5Q709 545 727 494Q729 489 727 483.5Q725 478 717 477L674 470Q666 469 662 473Q658 477 656 484Q622 560 556 604Q490 648 397 648Q336 648 284 625Q232 602 194 562Q156 522 134.5 467Q113 412 113 349Q113 285 134 231Q155 177 192.5 137Q230 97 282 74.5Q334 52 395 52Q452 52 497.5 70.5Q543 89 575.5 118Q608 147 627.5 183.5Q647 220 652 257H419Q412 257 407 262Q402 267 402 274V299Q402 307 407 311.5Q412 316 419 316H704Q721 316 721 299V17Q721 10 716.5 5Q712 0 704 0H672Q665 0 660 5Q655 10 655 17V140Q645 116 623.5 89Q602 62 568.5 39.5Q535 17 489.5 2Q444 -13 387 -13Q313 -13 249.5 14.5Q186 42 139 90.5Q92 139 65.5 205.5Q39 272 39 350Q39 428 67 494.5Q95 561 143.5 609.5Q192 658 257.5 685.5Q323 713 397 713Z" glyph-name="Gcircumflex" horiz-adv-x="775" unicode="Ĝ" /><glyph d="M294 692Q309 692 319 677L409 544Q414 537 410 531.5Q406 526 400 526H366Q358 526 353.5 529Q349 532 344 538L274 632L205 538Q200 532 195.5 529Q191 526 183 526H149Q142 526 138.5 531.5Q135 537 140 544L230 677Q235 685 240 688.5Q245 692 256 692ZM275 -161Q360 -161 401.5 -116.5Q443 -72 443 -3V89Q421 46 375 18Q329 -10 269 -10Q220 -10 177.5 7.5Q135 25 103.5 57.5Q72 90 53.5 134.5Q35 179 35 233Q35 287 53.5 331.5Q72 376 103.5 408Q135 440 177.5 458Q220 476 268 476Q328 476 374.5 447.5Q421 419 443 375V447Q443 454 448 459Q453 464 460 464H496Q503 464 507.5 459Q512 454 512 447V-4Q512 -51 496.5 -90.5Q481 -130 450.5 -159Q420 -188 375.5 -204Q331 -220 273 -220Q178 -220 121.5 -178Q65 -136 49 -72Q47 -66 50.5 -61Q54 -56 60 -55L96 -45Q113 -42 116 -56Q121 -76 133 -95Q145 -114 164.5 -128.5Q184 -143 211.5 -152Q239 -161 275 -161ZM105 233Q105 195 117.5 162Q130 129 152.5 104.5Q175 80 206 66Q237 52 274 52Q311 52 342 66Q373 80 395.5 104.5Q418 129 430.5 162Q443 195 443 233Q443 271 430.5 304Q418 337 395.5 361Q373 385 342 399Q311 413 274 413Q237 413 206 399Q175 385 152.5 361Q130 337 117.5 304Q105 271 105 233Z" glyph-name="gcircumflex" horiz-adv-x="578" unicode="ĝ" /><glyph d="M392 757Q336 757 304 786.5Q272 816 272 866V878Q272 888 282 888H323Q326 888 328.5 885Q331 882 331 880V871Q331 842 348.5 827.5Q366 813 392 813Q419 813 437 827.5Q455 842 455 871V880Q455 882 457.5 885Q460 888 464 888H504Q514 888 514 878V866Q514 816 481.5 786.5Q449 757 392 757ZM397 713Q453 713 504.5 698Q556 683 599.5 654.5Q643 626 676 585.5Q709 545 727 494Q729 489 727 483.5Q725 478 717 477L674 470Q666 469 662 473Q658 477 656 484Q622 560 556 604Q490 648 397 648Q336 648 284 625Q232 602 194 562Q156 522 134.5 467Q113 412 113 349Q113 285 134 231Q155 177 192.5 137Q230 97 282 74.5Q334 52 395 52Q452 52 497.5 70.5Q543 89 575.5 118Q608 147 627.5 183.5Q647 220 652 257H419Q412 257 407 262Q402 267 402 274V299Q402 307 407 311.5Q412 316 419 316H704Q721 316 721 299V17Q721 10 716.5 5Q712 0 704 0H672Q665 0 660 5Q655 10 655 17V140Q645 116 623.5 89Q602 62 568.5 39.5Q535 17 489.5 2Q444 -13 387 -13Q313 -13 249.5 14.5Q186 42 139 90.5Q92 139 65.5 205.5Q39 272 39 350Q39 428 67 494.5Q95 561 143.5 609.5Q192 658 257.5 685.5Q323 713 397 713Z" glyph-name="Gbreve" horiz-adv-x="775" unicode="Ğ" /><glyph d="M274 521Q218 521 186 550.5Q154 580 154 630V642Q154 652 164 652H205Q208 652 210.5 649Q213 646 213 644V635Q213 606 230.5 591.5Q248 577 274 577Q301 577 319 591.5Q337 606 337 635V644Q337 646 339.5 649Q342 652 346 652H386Q396 652 396 642V630Q396 580 363.5 550.5Q331 521 274 521ZM275 -161Q360 -161 401.5 -116.5Q443 -72 443 -3V89Q421 46 375 18Q329 -10 269 -10Q220 -10 177.5 7.5Q135 25 103.5 57.5Q72 90 53.5 134.5Q35 179 35 233Q35 287 53.5 331.5Q72 376 103.5 408Q135 440 177.5 458Q220 476 268 476Q328 476 374.5 447.5Q421 419 443 375V447Q443 454 448 459Q453 464 460 464H496Q503 464 507.5 459Q512 454 512 447V-4Q512 -51 496.5 -90.5Q481 -130 450.5 -159Q420 -188 375.5 -204Q331 -220 273 -220Q178 -220 121.5 -178Q65 -136 49 -72Q47 -66 50.5 -61Q54 -56 60 -55L96 -45Q113 -42 116 -56Q121 -76 133 -95Q145 -114 164.5 -128.5Q184 -143 211.5 -152Q239 -161 275 -161ZM105 233Q105 195 117.5 162Q130 129 152.5 104.5Q175 80 206 66Q237 52 274 52Q311 52 342 66Q373 80 395.5 104.5Q418 129 430.5 162Q443 195 443 233Q443 271 430.5 304Q418 337 395.5 361Q373 385 342 399Q311 413 274 413Q237 413 206 399Q175 385 152.5 361Q130 337 117.5 304Q105 271 105 233Z" glyph-name="gbreve" horiz-adv-x="578" unicode="ğ" /><glyph d="M393 773Q369 773 351.5 790.5Q334 808 334 833Q334 857 351.5 874Q369 891 393 891Q417 891 434.5 874Q452 857 452 833Q452 808 434.5 790.5Q417 773 393 773ZM397 713Q453 713 504.5 698Q556 683 599.5 654.5Q643 626 676 585.5Q709 545 727 494Q729 489 727 483.5Q725 478 717 477L674 470Q666 469 662 473Q658 477 656 484Q622 560 556 604Q490 648 397 648Q336 648 284 625Q232 602 194 562Q156 522 134.5 467Q113 412 113 349Q113 285 134 231Q155 177 192.5 137Q230 97 282 74.5Q334 52 395 52Q452 52 497.5 70.5Q543 89 575.5 118Q608 147 627.5 183.5Q647 220 652 257H419Q412 257 407 262Q402 267 402 274V299Q402 307 407 311.5Q412 316 419 316H704Q721 316 721 299V17Q721 10 716.5 5Q712 0 704 0H672Q665 0 660 5Q655 10 655 17V140Q645 116 623.5 89Q602 62 568.5 39.5Q535 17 489.5 2Q444 -13 387 -13Q313 -13 249.5 14.5Q186 42 139 90.5Q92 139 65.5 205.5Q39 272 39 350Q39 428 67 494.5Q95 561 143.5 609.5Q192 658 257.5 685.5Q323 713 397 713Z" glyph-name="Gdotaccent" horiz-adv-x="775" unicode="Ġ" /><glyph d="M273 537Q249 537 231.5 554.5Q214 572 214 597Q214 621 231.5 638Q249 655 273 655Q297 655 314.5 638Q332 621 332 597Q332 572 314.5 554.5Q297 537 273 537ZM275 -161Q360 -161 401.5 -116.5Q443 -72 443 -3V89Q421 46 375 18Q329 -10 269 -10Q220 -10 177.5 7.5Q135 25 103.5 57.5Q72 90 53.5 134.5Q35 179 35 233Q35 287 53.5 331.5Q72 376 103.5 408Q135 440 177.5 458Q220 476 268 476Q328 476 374.5 447.5Q421 419 443 375V447Q443 454 448 459Q453 464 460 464H496Q503 464 507.5 459Q512 454 512 447V-4Q512 -51 496.5 -90.5Q481 -130 450.5 -159Q420 -188 375.5 -204Q331 -220 273 -220Q178 -220 121.5 -178Q65 -136 49 -72Q47 -66 50.5 -61Q54 -56 60 -55L96 -45Q113 -42 116 -56Q121 -76 133 -95Q145 -114 164.5 -128.5Q184 -143 211.5 -152Q239 -161 275 -161ZM105 233Q105 195 117.5 162Q130 129 152.5 104.5Q175 80 206 66Q237 52 274 52Q311 52 342 66Q373 80 395.5 104.5Q418 129 430.5 162Q443 195 443 233Q443 271 430.5 304Q418 337 395.5 361Q373 385 342 399Q311 413 274 413Q237 413 206 399Q175 385 152.5 361Q130 337 117.5 304Q105 271 105 233Z" glyph-name="gdotaccent" horiz-adv-x="578" unicode="ġ" /><glyph d="M397 713Q453 713 504.5 698Q556 683 599.5 654.5Q643 626 676 585.5Q709 545 727 494Q729 489 727 483.5Q725 478 717 477L674 470Q666 469 662 473Q658 477 656 484Q622 560 556 604Q490 648 397 648Q336 648 284 625Q232 602 194 562Q156 522 134.5 467Q113 412 113 349Q113 285 134 231Q155 177 192.5 137Q230 97 282 74.5Q334 52 395 52Q452 52 497.5 70.5Q543 89 575.5 118Q608 147 627.5 183.5Q647 220 652 257H419Q412 257 407 262Q402 267 402 274V299Q402 307 407 311.5Q412 316 419 316H704Q721 316 721 299V17Q721 10 716.5 5Q712 0 704 0H672Q665 0 660 5Q655 10 655 17V140Q645 116 623.5 89Q602 62 568.5 39.5Q535 17 489.5 2Q444 -13 387 -13Q313 -13 249.5 14.5Q186 42 139 90.5Q92 139 65.5 205.5Q39 272 39 350Q39 428 67 494.5Q95 561 143.5 609.5Q192 658 257.5 685.5Q323 713 397 713ZM374 -165Q356 -158 345 -143.5Q334 -129 334 -109Q334 -84 350.5 -67.5Q367 -51 393 -51Q416 -51 434 -68.5Q452 -86 452 -112Q452 -131 444.5 -150Q437 -169 426.5 -186.5Q416 -204 404 -219Q392 -234 382 -245Q375 -252 368.5 -256.5Q362 -261 354 -256L345 -251Q333 -243 338 -234Z" glyph-name="Gcommaaccent" horiz-adv-x="775" unicode="Ģ" /><glyph d="M301 662Q321 655 333.5 638.5Q346 622 346 601Q346 573 327 554Q308 535 280 535Q253 535 233.5 555Q214 575 214 604Q214 625 222.5 646.5Q231 668 243 687.5Q255 707 269 723.5Q283 740 293 752Q301 760 308.5 764.5Q316 769 324 764L334 759Q348 750 342 740ZM275 -161Q360 -161 401.5 -116.5Q443 -72 443 -3V89Q421 46 375 18Q329 -10 269 -10Q220 -10 177.5 7.5Q135 25 103.5 57.5Q72 90 53.5 134.5Q35 179 35 233Q35 287 53.5 331.5Q72 376 103.5 408Q135 440 177.5 458Q220 476 268 476Q328 476 374.5 447.5Q421 419 443 375V447Q443 454 448 459Q453 464 460 464H496Q503 464 507.5 459Q512 454 512 447V-4Q512 -51 496.5 -90.5Q481 -130 450.5 -159Q420 -188 375.5 -204Q331 -220 273 -220Q178 -220 121.5 -178Q65 -136 49 -72Q47 -66 50.5 -61Q54 -56 60 -55L96 -45Q113 -42 116 -56Q121 -76 133 -95Q145 -114 164.5 -128.5Q184 -143 211.5 -152Q239 -161 275 -161ZM105 233Q105 195 117.5 162Q130 129 152.5 104.5Q175 80 206 66Q237 52 274 52Q311 52 342 66Q373 80 395.5 104.5Q418 129 430.5 162Q443 195 443 233Q443 271 430.5 304Q418 337 395.5 361Q373 385 342 399Q311 413 274 413Q237 413 206 399Q175 385 152.5 361Q130 337 117.5 304Q105 271 105 233Z" glyph-name="gcommaaccent" horiz-adv-x="578" unicode="ģ" /><glyph d="M398 928Q413 928 423 913L513 780Q518 773 514 767.5Q510 762 504 762H470Q462 762 457.5 765Q453 768 448 774L378 868L309 774Q304 768 299.5 765Q295 762 287 762H253Q246 762 242.5 767.5Q239 773 244 780L334 913Q339 921 344 924.5Q349 928 360 928ZM668 17Q668 10 663 5Q658 0 651 0H614Q606 0 601.5 5Q597 10 597 17V322H160V17Q160 10 155 5Q150 0 143 0H105Q98 0 93 5Q88 10 88 17V683Q88 690 93 695Q98 700 105 700H143Q150 700 155 695Q160 690 160 683V387H597V683Q597 690 601.5 695Q606 700 614 700H651Q658 700 663 695Q668 690 668 683Z" glyph-name="Hcircumflex" horiz-adv-x="756" unicode="Ĥ" /><glyph d="M302 928Q317 928 327 913L417 780Q422 773 418 767.5Q414 762 408 762H374Q366 762 361.5 765Q357 768 352 774L282 868L213 774Q208 768 203.5 765Q199 762 191 762H157Q150 762 146.5 767.5Q143 773 148 780L238 913Q243 921 248 924.5Q253 928 264 928ZM437 258Q437 331 399.5 372.5Q362 414 290 414Q218 414 176.5 370.5Q135 327 135 258V16Q135 9 130 4.5Q125 0 119 0H83Q76 0 71 5Q66 10 66 17V683Q66 690 71 695Q76 700 83 700H119Q125 700 130 695.5Q135 691 135 684V383Q155 424 200 450Q245 476 306 476Q353 476 390 461Q427 446 453 419.5Q479 393 492.5 356Q506 319 506 274V16Q506 9 501 4.5Q496 0 489 0H454Q447 0 442 4.5Q437 9 437 16Z" glyph-name="hcircumflex" horiz-adv-x="566" unicode="ĥ" /><glyph d="M160 17Q160 10 155 5Q150 0 143 0H105Q98 0 93 5Q88 10 88 17V512H37Q29 512 24.5 517Q20 522 20 529V553Q20 560 24.5 565Q29 570 37 570H88V683Q88 690 93 695Q98 700 105 700H143Q150 700 155 695Q160 690 160 683V570H597V683Q597 690 601.5 695Q606 700 614 700H651Q658 700 663 695Q668 690 668 683V570H721Q728 570 733 565Q738 560 738 553V529Q738 522 733 517Q728 512 721 512H668V17Q668 10 663 5Q658 0 651 0H614Q606 0 601.5 5Q597 10 597 17V322H160ZM597 387 597 512H160V387Z" glyph-name="Hbar" horiz-adv-x="757" unicode="Ħ" /><glyph d="M135 16Q135 9 130 4.5Q125 0 119 0H83Q76 0 71 5Q66 10 66 17V546H9Q2 546 -3 551Q-8 556 -8 563V581Q-8 588 -3 593Q2 598 9 598H66V683Q66 690 71 695Q76 700 83 700H119Q125 700 130 695.5Q135 691 135 684V598H277Q284 598 289 593Q294 588 294 581V563Q294 556 289 551Q284 546 277 546H135V383Q155 424 200 450Q245 476 306 476Q353 476 390 461Q427 446 453 419.5Q479 393 492.5 356Q506 319 506 274V16Q506 9 501 4.5Q496 0 489 0H454Q447 0 442 4.5Q437 9 437 16V258Q437 331 399.5 372.5Q362 414 290 414Q218 414 176.5 370.5Q135 327 135 258Z" glyph-name="hbar" horiz-adv-x="566" unicode="ħ" /><glyph d="M190 777Q176 777 157 782.5Q138 788 119.5 794Q101 800 85.5 805.5Q70 811 61 811Q47 811 39 805Q31 799 23 786Q16 773 0 784L-13 793Q-21 798 -21 807Q-21 816 -15 828Q-9 840 1.5 850Q12 860 26.5 867Q41 874 59 874Q73 874 91.5 868.5Q110 863 128.5 857Q147 851 163 845.5Q179 840 188 840Q202 840 209 845.5Q216 851 226 865Q235 878 249 867L262 858Q270 853 270 844Q270 835 264 823Q258 811 247.5 801Q237 791 222.5 784Q208 777 190 777ZM105 0Q98 0 93 5Q88 10 88 17V683Q88 690 93 695Q98 700 105 700H143Q150 700 155 695Q160 690 160 683V17Q160 10 155 5Q150 0 143 0Z" glyph-name="Itilde" horiz-adv-x="248" unicode="Ĩ" /><glyph d="M162 541Q148 541 129 546.5Q110 552 91.5 558Q73 564 57.5 569.5Q42 575 33 575Q19 575 11 569Q3 563 -5 550Q-12 537 -28 548L-41 557Q-49 562 -49 571Q-49 580 -43 592Q-37 604 -26.5 614Q-16 624 -1.5 631Q13 638 31 638Q45 638 63.5 632.5Q82 627 100.5 621Q119 615 135 609.5Q151 604 160 604Q174 604 181 609.5Q188 615 198 629Q207 642 221 631L234 622Q242 617 242 608Q242 599 236 587Q230 575 219.5 565Q209 555 194.5 548Q180 541 162 541ZM83 0Q76 0 71 5Q66 10 66 17V447Q66 454 71 459Q76 464 83 464H119Q126 464 130.5 459Q135 454 135 447V17Q135 10 130.5 5Q126 0 119 0Z" glyph-name="itilde" horiz-adv-x="201" unicode="ĩ" /><glyph d="M9 784Q2 784 -3 789Q-8 794 -8 801V825Q-8 832 -3 837Q2 842 9 842H238Q245 842 250 837Q255 832 255 825V801Q255 794 250 789Q245 784 238 784ZM105 0Q98 0 93 5Q88 10 88 17V683Q88 690 93 695Q98 700 105 700H143Q150 700 155 695Q160 690 160 683V17Q160 10 155 5Q150 0 143 0Z" glyph-name="Imacron" horiz-adv-x="248" unicode="Ī" /><glyph d="M-14 548Q-21 548 -26 553Q-31 558 -31 565V589Q-31 596 -26 601Q-21 606 -14 606H215Q222 606 227 601Q232 596 232 589V565Q232 558 227 553Q222 548 215 548ZM83 0Q76 0 71 5Q66 10 66 17V447Q66 454 71 459Q76 464 83 464H119Q126 464 130.5 459Q135 454 135 447V17Q135 10 130.5 5Q126 0 119 0Z" glyph-name="imacron" horiz-adv-x="201" unicode="ī" /><glyph d="M123 757Q67 757 35 786.5Q3 816 3 866V878Q3 888 13 888H54Q57 888 59.5 885Q62 882 62 880V871Q62 842 79.5 827.5Q97 813 123 813Q150 813 168 827.5Q186 842 186 871V880Q186 882 188.5 885Q191 888 195 888H235Q245 888 245 878V866Q245 816 212.5 786.5Q180 757 123 757ZM105 0Q98 0 93 5Q88 10 88 17V683Q88 690 93 695Q98 700 105 700H143Q150 700 155 695Q160 690 160 683V17Q160 10 155 5Q150 0 143 0Z" glyph-name="Ibreve" horiz-adv-x="248" unicode="Ĭ" /><glyph d="M100 521Q44 521 12 550.5Q-20 580 -20 630V642Q-20 652 -10 652H31Q34 652 36.5 649Q39 646 39 644V635Q39 606 56.5 591.5Q74 577 100 577Q127 577 145 591.5Q163 606 163 635V644Q163 646 165.5 649Q168 652 172 652H212Q222 652 222 642V630Q222 580 189.5 550.5Q157 521 100 521ZM83 0Q76 0 71 5Q66 10 66 17V447Q66 454 71 459Q76 464 83 464H119Q126 464 130.5 459Q135 454 135 447V17Q135 10 130.5 5Q126 0 119 0Z" glyph-name="ibreve" horiz-adv-x="201" unicode="ĭ" /><glyph d="M167 -177Q167 -183 161 -187.5Q155 -192 146 -194.5Q137 -197 127 -198Q117 -199 108 -199Q66 -199 43 -178.5Q20 -158 20 -124Q20 -105 27.5 -87Q35 -69 47 -53Q59 -37 73.5 -23Q88 -9 101 1Q88 5 88 17V683Q88 690 93 695Q98 700 105 700H143Q150 700 155 695Q160 690 160 683V17Q160 10 155.5 5Q151 0 146 0Q122 -28 103.5 -59.5Q85 -91 85 -112Q85 -149 127 -149Q141 -149 157 -146Q163 -144 167 -148Q171 -152 169 -160Z" glyph-name="Iogonek" horiz-adv-x="248" unicode="Į" /><glyph d="M101 568Q78 568 61.5 585Q45 602 45 625Q45 648 61.5 665Q78 682 101 682Q124 682 140.5 665Q157 648 157 625Q157 602 140.5 585Q124 568 101 568ZM144 -177Q144 -183 138 -187.5Q132 -192 123 -194.5Q114 -197 104 -198Q94 -199 85 -199Q43 -199 20 -178.5Q-3 -158 -3 -124Q-3 -105 4.5 -87Q12 -69 24 -53Q36 -37 50.5 -23Q65 -9 78 1Q66 4 66 17V447Q66 454 71 459Q76 464 83 464H119Q126 464 130.5 459Q135 454 135 447V17Q135 10 131 5Q127 0 123 1Q99 -28 80.5 -59.5Q62 -91 62 -112Q62 -149 104 -149Q118 -149 134 -146Q140 -144 144 -148Q148 -152 146 -160Z" glyph-name="iogonek" horiz-adv-x="201" unicode="į" /><glyph d="M124 773Q100 773 82.5 790.5Q65 808 65 833Q65 857 82.5 874Q100 891 124 891Q148 891 165.5 874Q183 857 183 833Q183 808 165.5 790.5Q148 773 124 773ZM105 0Q98 0 93 5Q88 10 88 17V683Q88 690 93 695Q98 700 105 700H143Q150 700 155 695Q160 690 160 683V17Q160 10 155 5Q150 0 143 0Z" glyph-name="Idotaccent" horiz-adv-x="248" unicode="İ" /><glyph d="M83 0Q76 0 71 5Q66 10 66 17V447Q66 454 71 459Q76 464 83 464H119Q126 464 130.5 459Q135 454 135 447V17Q135 10 130.5 5Q126 0 119 0Z" glyph-name="dotlessi" horiz-adv-x="201" unicode="ı" /><glyph d="M105 0Q98 0 93 5Q88 10 88 17V683Q88 690 93 695Q98 700 105 700H143Q150 700 155 695Q160 690 160 683V17Q160 10 155 5Q150 0 143 0ZM770 218Q770 169 752.5 126.5Q735 84 702 53Q669 22 623 4.5Q577 -13 520 -13Q463 -13 416.5 4Q370 21 337.5 51.5Q305 82 287.5 124.5Q270 167 270 217V256Q270 263 275 268Q280 273 287 273H324Q331 273 336 268Q341 263 341 256V218Q341 183 352.5 152.5Q364 122 386.5 99.5Q409 77 442.5 64Q476 51 520 51Q564 51 597.5 64.5Q631 78 653.5 101.5Q676 125 687.5 156Q699 187 699 222V683Q699 690 704 695Q709 700 716 700H753Q761 700 765.5 695Q770 690 770 683Z" glyph-name="IJ" horiz-adv-x="850" unicode="Ĳ" /><glyph d="M101 568Q78 568 61.5 585Q45 602 45 625Q45 648 61.5 665Q78 682 101 682Q124 682 140.5 665Q157 648 157 625Q157 602 140.5 585Q124 568 101 568ZM299 569Q276 569 259 585.5Q242 602 242 625Q242 648 259 665Q276 682 299 682Q322 682 338.5 665Q355 648 355 625Q355 602 338.5 585.5Q322 569 299 569ZM83 0Q76 0 71 5Q66 10 66 17V447Q66 454 71 459Q76 464 83 464H119Q126 464 130.5 459Q135 454 135 447V17Q135 10 130.5 5Q126 0 119 0ZM319 464Q326 464 331 459Q336 454 336 447V-73Q336 -111 324 -139Q312 -167 292.5 -185Q273 -203 247.5 -211.5Q222 -220 196 -220Q167 -220 140 -212Q113 -204 95 -188Q90 -184 89 -177.5Q88 -171 93 -166L107 -146Q118 -131 133 -141Q147 -150 163.5 -154.5Q180 -159 191 -159Q223 -159 245 -137.5Q267 -116 267 -74V447Q267 454 272 459Q277 464 284 464Z" glyph-name="ij" horiz-adv-x="403" unicode="ĳ" /><glyph d="M508 928Q523 928 533 913L623 780Q628 773 624 767.5Q620 762 614 762H580Q572 762 567.5 765Q563 768 558 774L488 868L419 774Q414 768 409.5 765Q405 762 397 762H363Q356 762 352.5 767.5Q349 773 354 780L444 913Q449 921 454 924.5Q459 928 470 928ZM523 218Q523 169 505.5 126.5Q488 84 455 53Q422 22 376 4.5Q330 -13 273 -13Q216 -13 169.5 4Q123 21 90.5 51.5Q58 82 40.5 124.5Q23 167 23 217V256Q23 263 28 268Q33 273 40 273H77Q84 273 89 268Q94 263 94 256V218Q94 183 105.5 152.5Q117 122 139.5 99.5Q162 77 195.5 64Q229 51 273 51Q317 51 350.5 64.5Q384 78 406.5 101.5Q429 125 440.5 156Q452 187 452 222V683Q452 690 457 695Q462 700 469 700H506Q514 700 518.5 695Q523 690 523 683Z" glyph-name="Jcircumflex" horiz-adv-x="603" unicode="Ĵ" /><glyph d="M121 692Q136 692 146 677L236 544Q241 537 237 531.5Q233 526 227 526H193Q185 526 180.5 529Q176 532 171 538L101 632L32 538Q27 532 22.5 529Q18 526 10 526H-24Q-31 526 -34.5 531.5Q-38 537 -33 544L57 677Q62 685 67 688.5Q72 692 83 692ZM118 464Q125 464 130 459Q135 454 135 447V-73Q135 -111 123 -139Q111 -167 91.5 -185Q72 -203 46.5 -211.5Q21 -220 -5 -220Q-34 -220 -61 -212Q-88 -204 -106 -188Q-111 -184 -112 -177.5Q-113 -171 -108 -166L-94 -146Q-83 -131 -68 -141Q-54 -150 -37.5 -154.5Q-21 -159 -10 -159Q22 -159 44 -137.5Q66 -116 66 -74V447Q66 454 71 459Q76 464 83 464Z" glyph-name="jcircumflex" horiz-adv-x="202" unicode="ĵ" /><glyph d="M327 369 628 15Q632 10 629.5 5Q627 0 621 0H565Q549 0 539 13L269 333H160V17Q160 10 155 5Q150 0 143 0H105Q98 0 93 5Q88 10 88 17V683Q88 690 93 695Q98 700 105 700H143Q150 700 155 695Q160 690 160 683V396H268L544 686Q550 693 555 696.5Q560 700 569 700H627Q634 700 635.5 695Q637 690 633 685ZM303 -165Q285 -158 274 -143.5Q263 -129 263 -109Q263 -84 279.5 -67.5Q296 -51 322 -51Q345 -51 363 -68.5Q381 -86 381 -112Q381 -131 373.5 -150Q366 -169 355.5 -186.5Q345 -204 333 -219Q321 -234 311 -245Q304 -252 297.5 -256.5Q291 -261 283 -256L274 -251Q262 -243 267 -234Z" glyph-name="Kcommaaccent" horiz-adv-x="638" unicode="Ķ" /><glyph d="M135 17Q135 10 130.5 5Q126 0 119 0H83Q76 0 71 5Q66 10 66 17V683Q66 690 71 695Q76 700 83 700H119Q126 700 130.5 695Q135 690 135 683V289H196L350 454Q359 464 368 464H424Q431 464 433 458.5Q435 453 430 448L249 260L460 17Q465 12 463 6Q461 0 453 0H402Q385 0 375 13L189 230H135ZM206 -165Q188 -158 177 -143.5Q166 -129 166 -109Q166 -84 182.5 -67.5Q199 -51 225 -51Q248 -51 266 -68.5Q284 -86 284 -112Q284 -131 276.5 -150Q269 -169 258.5 -186.5Q248 -204 236 -219Q224 -234 214 -245Q207 -252 200.5 -256.5Q194 -261 186 -256L177 -251Q165 -243 170 -234Z" glyph-name="kcommaaccent" horiz-adv-x="460" unicode="ķ" /><glyph d="M135 17Q135 10 130.5 5Q126 0 119 0H83Q76 0 71 5Q66 10 66 17V447Q66 454 71 459Q76 464 83 464H119Q126 464 130.5 459Q135 454 135 447V268H186L350 454Q360 464 368 464H424Q431 464 433 458.5Q435 453 430 448L244 243L460 17Q465 12 463 6Q461 0 453 0H402Q388 0 375 13L186 209H135Z" glyph-name="kgreenlandic" horiz-adv-x="460" unicode="ĸ" /><glyph d="M230 928Q238 928 241.5 922Q245 916 241 910L166 776Q158 762 146 762H119Q111 762 107.5 766.5Q104 771 107 779L159 913Q164 928 181 928ZM534 17Q534 10 529 5Q524 0 517 0H105Q98 0 93 5Q88 10 88 17V683Q88 690 93 695Q98 700 105 700H143Q150 700 155 695Q160 690 160 683V66H517Q524 66 529 61Q534 56 534 49Z" glyph-name="Lacute" horiz-adv-x="543" unicode="Ĺ" /><glyph d="M204 928Q212 928 215.5 922Q219 916 215 910L140 776Q132 762 120 762H93Q85 762 81.5 766.5Q78 771 81 779L133 913Q138 928 155 928ZM176 0Q126 0 95 26Q64 52 64 112V683Q64 690 69 695Q74 700 81 700H117Q124 700 128.5 695Q133 690 133 683V120Q133 91 147 75Q161 59 193 59H216Q223 59 228 54.5Q233 50 233 42V18Q233 9 227 4.5Q221 0 214 0Z" glyph-name="lacute" horiz-adv-x="235" unicode="ĺ" /><glyph d="M534 17Q534 10 529 5Q524 0 517 0H105Q98 0 93 5Q88 10 88 17V683Q88 690 93 695Q98 700 105 700H143Q150 700 155 695Q160 690 160 683V66H517Q524 66 529 61Q534 56 534 49ZM287 -165Q269 -158 258 -143.5Q247 -129 247 -109Q247 -84 263.5 -67.5Q280 -51 306 -51Q329 -51 347 -68.5Q365 -86 365 -112Q365 -131 357.5 -150Q350 -169 339.5 -186.5Q329 -204 317 -219Q305 -234 295 -245Q288 -252 281.5 -256.5Q275 -261 267 -256L258 -251Q246 -243 251 -234Z" glyph-name="Lcommaaccent" horiz-adv-x="543" unicode="Ļ" /><glyph d="M176 0Q126 0 95 26Q64 52 64 112V683Q64 690 69 695Q74 700 81 700H117Q124 700 128.5 695Q133 690 133 683V120Q133 91 147 75Q161 59 193 59H216Q223 59 228 54.5Q233 50 233 42V18Q233 9 227 4.5Q221 0 214 0ZM108 -165Q90 -158 79 -143.5Q68 -129 68 -109Q68 -84 84.5 -67.5Q101 -51 127 -51Q150 -51 168 -68.5Q186 -86 186 -112Q186 -131 178.5 -150Q171 -169 160.5 -186.5Q150 -204 138 -219Q126 -234 116 -245Q109 -252 102.5 -256.5Q96 -261 88 -256L79 -251Q67 -243 72 -234Z" glyph-name="lcommaaccent" horiz-adv-x="235" unicode="ļ" /><glyph d="M384 588Q367 595 355.5 609.5Q344 624 344 644Q344 669 361 685.5Q378 702 403 702Q427 702 444.5 684.5Q462 667 462 641Q462 622 454.5 603Q447 584 436.5 566.5Q426 549 414 534Q402 519 392 508Q385 501 379 496.5Q373 492 365 497L356 502Q342 509 348 519ZM534 17Q534 10 529 5Q524 0 517 0H105Q98 0 93 5Q88 10 88 17V683Q88 690 93 695Q98 700 105 700H143Q150 700 155 695Q160 690 160 683V66H517Q524 66 529 61Q534 56 534 49Z" glyph-name="Lcaron" horiz-adv-x="544" unicode="Ľ" /><glyph d="M242 588Q225 595 213.5 609.5Q202 624 202 644Q202 669 219 685.5Q236 702 261 702Q285 702 302.5 684.5Q320 667 320 641Q320 622 312.5 603Q305 584 294.5 566.5Q284 549 272 534Q260 519 250 508Q243 501 237 496.5Q231 492 223 497L214 502Q200 509 206 519ZM176 0Q126 0 95 26Q64 52 64 112V683Q64 690 69 695Q74 700 81 700H117Q124 700 128.5 695Q133 690 133 683V120Q133 91 147 75Q161 59 193 59H216Q223 59 228 54.5Q233 50 233 42V18Q233 9 227 4.5Q221 0 214 0Z" glyph-name="lcaron" horiz-adv-x="247" unicode="ľ" /><glyph d="M534 17Q534 10 529 5Q524 0 517 0H105Q98 0 93 5Q88 10 88 17V683Q88 690 93 695Q98 700 105 700H143Q150 700 155 695Q160 690 160 683V66H517Q524 66 529 61Q534 56 534 49ZM366 295Q338 295 318.5 314.5Q299 334 299 362Q299 390 318.5 409.5Q338 429 366 429Q394 429 413.5 409.5Q433 390 433 362Q433 334 413.5 314.5Q394 295 366 295Z" glyph-name="Ldot" horiz-adv-x="555" unicode="Ŀ" /><glyph d="M176 0Q126 0 95 26Q64 52 64 112V683Q64 690 69 695Q74 700 81 700H117Q124 700 128.5 695Q133 690 133 683V120Q133 91 147 75Q161 59 193 59H216Q223 59 228 54.5Q233 50 233 42V18Q233 9 227 4.5Q221 0 214 0ZM262 196Q234 196 214.5 215.5Q195 235 195 263Q195 291 214.5 310.5Q234 330 262 330Q290 330 309.5 310.5Q329 291 329 263Q329 235 309.5 215.5Q290 196 262 196Z" glyph-name="ldot" horiz-adv-x="331" unicode="ŀ" /><glyph d="M105 0Q98 0 93 5Q88 10 88 17V266L48 253Q41 251 36 255Q31 259 31 266V291Q31 307 46 312L88 326V683Q88 690 93 695Q98 700 105 700H143Q150 700 155 695Q160 690 160 683V350L369 419Q376 421 381 417Q386 413 386 407V380Q386 364 371 359L160 290V66H517Q524 66 529 61Q534 56 534 49V17Q534 10 529 5Q524 0 517 0Z" glyph-name="Lslash" horiz-adv-x="543" unicode="Ł" /><glyph d="M181 0Q131 0 100 26Q69 52 69 112V279L36 262Q30 259 25 261.5Q20 264 20 271V301Q20 309 23.5 312.5Q27 316 34 320L69 338V683Q69 690 74 695Q79 700 86 700H122Q129 700 133.5 695Q138 690 138 683V372L204 405Q210 408 215 405.5Q220 403 220 396V366Q220 358 216.5 354.5Q213 351 206 347L138 313V120Q138 91 152 75Q166 59 198 59H221Q228 59 233 54.5Q238 50 238 42V18Q238 9 232 4.5Q226 0 219 0Z" glyph-name="lslash" horiz-adv-x="244" unicode="ł" /><glyph d="M468 928Q476 928 479.5 922Q483 916 479 910L404 776Q396 762 384 762H357Q349 762 345.5 766.5Q342 771 345 779L397 913Q402 928 419 928ZM160 587 160 17Q160 10 155 5Q150 0 143 0H105Q98 0 93 5Q88 10 88 17V683Q88 690 93 695Q98 700 105 700H154Q169 700 180 686L566 116V683Q566 690 570.5 695Q575 700 582 700H620Q627 700 632 695Q637 690 637 683V17Q637 10 632 5Q627 0 620 0H577Q559 0 548 15Z" glyph-name="Nacute" horiz-adv-x="725" unicode="Ń" /><glyph d="M388 692Q396 692 399.5 686Q403 680 399 674L324 540Q316 526 304 526H277Q269 526 265.5 530.5Q262 535 265 543L317 677Q322 692 339 692ZM437 258Q437 331 399.5 372.5Q362 414 290 414Q218 414 176.5 370.5Q135 327 135 258V16Q135 9 130 4.5Q125 0 119 0H83Q76 0 71 5Q66 10 66 17V447Q66 454 71 459Q76 464 83 464H119Q125 464 130 459Q135 454 135 447V383Q155 424 200 450Q245 476 306 476Q353 476 390 461Q427 446 453 419.5Q479 393 492.5 356Q506 319 506 274V16Q506 9 501 4.5Q496 0 489 0H454Q447 0 442 4.5Q437 9 437 16Z" glyph-name="nacute" horiz-adv-x="566" unicode="ń" /><glyph d="M160 587 160 17Q160 10 155 5Q150 0 143 0H105Q98 0 93 5Q88 10 88 17V683Q88 690 93 695Q98 700 105 700H154Q169 700 180 686L566 116V683Q566 690 570.5 695Q575 700 582 700H620Q627 700 632 695Q637 690 637 683V17Q637 10 632 5Q627 0 620 0H577Q559 0 548 15ZM344 -165Q326 -158 315 -143.5Q304 -129 304 -109Q304 -84 320.5 -67.5Q337 -51 363 -51Q386 -51 404 -68.5Q422 -86 422 -112Q422 -131 414.5 -150Q407 -169 396.5 -186.5Q386 -204 374 -219Q362 -234 352 -245Q345 -252 338.5 -256.5Q332 -261 324 -256L315 -251Q303 -243 308 -234Z" glyph-name="Ncommaaccent" horiz-adv-x="725" unicode="Ņ" /><glyph d="M437 258Q437 331 399.5 372.5Q362 414 290 414Q218 414 176.5 370.5Q135 327 135 258V16Q135 9 130 4.5Q125 0 119 0H83Q76 0 71 5Q66 10 66 17V447Q66 454 71 459Q76 464 83 464H119Q125 464 130 459Q135 454 135 447V383Q155 424 200 450Q245 476 306 476Q353 476 390 461Q427 446 453 419.5Q479 393 492.5 356Q506 319 506 274V16Q506 9 501 4.5Q496 0 489 0H454Q447 0 442 4.5Q437 9 437 16ZM261 -165Q243 -158 232 -143.5Q221 -129 221 -109Q221 -84 237.5 -67.5Q254 -51 280 -51Q303 -51 321 -68.5Q339 -86 339 -112Q339 -131 331.5 -150Q324 -169 313.5 -186.5Q303 -204 291 -219Q279 -234 269 -245Q262 -252 255.5 -256.5Q249 -261 241 -256L232 -251Q220 -243 225 -234Z" glyph-name="ncommaaccent" horiz-adv-x="566" unicode="ņ" /><glyph d="M344 762Q333 762 328 765.5Q323 769 318 777L228 911Q223 918 226.5 923Q230 928 237 928H271Q283 928 293 917L362 823L432 917Q440 928 454 928H488Q494 928 498 923Q502 918 497 911L407 777Q402 769 396.5 765.5Q391 762 382 762ZM160 587 160 17Q160 10 155 5Q150 0 143 0H105Q98 0 93 5Q88 10 88 17V683Q88 690 93 695Q98 700 105 700H154Q169 700 180 686L566 116V683Q566 690 570.5 695Q575 700 582 700H620Q627 700 632 695Q637 690 637 683V17Q637 10 632 5Q627 0 620 0H577Q559 0 548 15Z" glyph-name="Ncaron" horiz-adv-x="725" unicode="Ň" /><glyph d="M264 526Q253 526 248 529.5Q243 533 238 541L148 675Q143 682 146.5 687Q150 692 157 692H191Q203 692 213 681L282 587L352 681Q360 692 374 692H408Q414 692 418 687Q422 682 417 675L327 541Q322 533 316.5 529.5Q311 526 302 526ZM437 258Q437 331 399.5 372.5Q362 414 290 414Q218 414 176.5 370.5Q135 327 135 258V16Q135 9 130 4.5Q125 0 119 0H83Q76 0 71 5Q66 10 66 17V447Q66 454 71 459Q76 464 83 464H119Q125 464 130 459Q135 454 135 447V383Q155 424 200 450Q245 476 306 476Q353 476 390 461Q427 446 453 419.5Q479 393 492.5 356Q506 319 506 274V16Q506 9 501 4.5Q496 0 489 0H454Q447 0 442 4.5Q437 9 437 16Z" glyph-name="ncaron" horiz-adv-x="566" unicode="ň" /><glyph d="M98 625Q81 632 69.5 646.5Q58 661 58 681Q58 706 75 722.5Q92 739 117 739Q141 739 158.5 721.5Q176 704 176 678Q176 659 168.5 640Q161 621 150.5 603.5Q140 586 128 571Q116 556 106 545Q99 538 93 533.5Q87 529 79 534L70 539Q56 546 62 556ZM437 258Q437 331 399.5 372.5Q362 414 290 414Q218 414 176.5 370.5Q135 327 135 258V16Q135 9 130 4.5Q125 0 119 0H83Q76 0 71 5Q66 10 66 17V447Q66 454 71 459Q76 464 83 464H119Q125 464 130 459Q135 454 135 447V383Q155 424 200 450Q245 476 306 476Q353 476 390 461Q427 446 453 419.5Q479 393 492.5 356Q506 319 506 274V16Q506 9 501 4.5Q496 0 489 0H454Q447 0 442 4.5Q437 9 437 16Z" glyph-name="napostrophe" horiz-adv-x="566" unicode="ŉ" /><glyph d="M497 -220Q468 -220 441 -212Q414 -204 396 -188Q385 -180 394 -166L408 -146Q419 -131 434 -141Q448 -150 464.5 -154.5Q481 -159 492 -159Q524 -159 546 -137.5Q568 -116 568 -74V0Q559 0 553 9L160 587V17Q160 10 155 5Q150 0 143 0H105Q98 0 93 5Q88 10 88 17V683Q88 690 93 695Q98 700 105 700H154Q172 700 180 686L566 116V683Q566 690 570.5 695Q575 700 582 700H620Q627 700 632 695Q637 690 637 683V-73Q637 -111 625 -139Q613 -167 593.5 -185Q574 -203 548.5 -211.5Q523 -220 497 -220Z" glyph-name="Eng" horiz-adv-x="725" unicode="Ŋ" /><glyph d="M366 -227Q336 -227 309.5 -219Q283 -211 264 -196Q253 -187 262 -173L276 -152Q281 -144 288.5 -143.5Q296 -143 303 -147Q317 -156 333 -161Q349 -166 361 -166Q393 -166 415 -144Q437 -122 437 -80V258Q437 331 399.5 372.5Q362 414 290 414Q218 414 176.5 370.5Q135 327 135 258V16Q135 9 130 4.5Q125 0 119 0H83Q76 0 71 5Q66 10 66 17V447Q66 454 71 459Q76 464 83 464H119Q125 464 130 459Q135 454 135 447V383Q155 425 199.5 450.5Q244 476 305 476Q354 476 391.5 460.5Q429 445 454.5 417.5Q480 390 493 352Q506 314 506 268V-80Q506 -118 494 -146Q482 -174 462 -192Q442 -210 417 -218.5Q392 -227 366 -227Z" glyph-name="eng" horiz-adv-x="566" unicode="ŋ" /><glyph d="M279 784Q272 784 267 789Q262 794 262 801V825Q262 832 267 837Q272 842 279 842H508Q515 842 520 837Q525 832 525 825V801Q525 794 520 789Q515 784 508 784ZM748 350Q748 272 720 205.5Q692 139 644 90.5Q596 42 531.5 14.5Q467 -13 393 -13Q320 -13 255.5 14.5Q191 42 143 90.5Q95 139 67 205.5Q39 272 39 350Q39 428 67 494.5Q95 561 143 609.5Q191 658 255.5 685.5Q320 713 393 713Q467 713 531.5 685.5Q596 658 644 609.5Q692 561 720 494.5Q748 428 748 350ZM674 350Q674 413 653 467.5Q632 522 595 562Q558 602 506.5 625Q455 648 393 648Q332 648 280.5 625Q229 602 192 562Q155 522 134 467.5Q113 413 113 350Q113 287 134 232.5Q155 178 192 138Q229 98 280.5 75Q332 52 393 52Q455 52 506.5 75Q558 98 595 138Q632 178 653 232.5Q674 287 674 350Z" glyph-name="Omacron" horiz-adv-x="787" unicode="Ō" /><glyph d="M160 548Q153 548 148 553Q143 558 143 565V589Q143 596 148 601Q153 606 160 606H389Q396 606 401 601Q406 596 406 589V565Q406 558 401 553Q396 548 389 548ZM35 232Q35 285 54 329.5Q73 374 105.5 406.5Q138 439 181.5 457.5Q225 476 275 476Q325 476 368.5 457.5Q412 439 444 406.5Q476 374 495 329.5Q514 285 514 232Q514 179 495 134Q476 89 444 56.5Q412 24 368.5 5.5Q325 -13 275 -13Q225 -13 181.5 5.5Q138 24 105.5 56.5Q73 89 54 134Q35 179 35 232ZM105 232Q105 194 117.5 161Q130 128 152.5 103.5Q175 79 206.5 65Q238 51 275 51Q312 51 343 65Q374 79 396.5 103.5Q419 128 431.5 161Q444 194 444 232Q444 270 431.5 303Q419 336 396.5 360.5Q374 385 343 399Q312 413 275 413Q238 413 206.5 399Q175 385 152.5 360.5Q130 336 117.5 303Q105 270 105 232Z" glyph-name="omacron" horiz-adv-x="549" unicode="ō" /><glyph d="M393 757Q337 757 305 786.5Q273 816 273 866V878Q273 888 283 888H324Q327 888 329.5 885Q332 882 332 880V871Q332 842 349.5 827.5Q367 813 393 813Q420 813 438 827.5Q456 842 456 871V880Q456 882 458.5 885Q461 888 465 888H505Q515 888 515 878V866Q515 816 482.5 786.5Q450 757 393 757ZM748 350Q748 272 720 205.5Q692 139 644 90.5Q596 42 531.5 14.5Q467 -13 393 -13Q320 -13 255.5 14.5Q191 42 143 90.5Q95 139 67 205.5Q39 272 39 350Q39 428 67 494.5Q95 561 143 609.5Q191 658 255.5 685.5Q320 713 393 713Q467 713 531.5 685.5Q596 658 644 609.5Q692 561 720 494.5Q748 428 748 350ZM674 350Q674 413 653 467.5Q632 522 595 562Q558 602 506.5 625Q455 648 393 648Q332 648 280.5 625Q229 602 192 562Q155 522 134 467.5Q113 413 113 350Q113 287 134 232.5Q155 178 192 138Q229 98 280.5 75Q332 52 393 52Q455 52 506.5 75Q558 98 595 138Q632 178 653 232.5Q674 287 674 350Z" glyph-name="Obreve" horiz-adv-x="787" unicode="Ŏ" /><glyph d="M275 521Q219 521 187 550.5Q155 580 155 630V642Q155 652 165 652H206Q209 652 211.5 649Q214 646 214 644V635Q214 606 231.5 591.5Q249 577 275 577Q302 577 320 591.5Q338 606 338 635V644Q338 646 340.5 649Q343 652 347 652H387Q397 652 397 642V630Q397 580 364.5 550.5Q332 521 275 521ZM35 232Q35 285 54 329.5Q73 374 105.5 406.5Q138 439 181.5 457.5Q225 476 275 476Q325 476 368.5 457.5Q412 439 444 406.5Q476 374 495 329.5Q514 285 514 232Q514 179 495 134Q476 89 444 56.5Q412 24 368.5 5.5Q325 -13 275 -13Q225 -13 181.5 5.5Q138 24 105.5 56.5Q73 89 54 134Q35 179 35 232ZM105 232Q105 194 117.5 161Q130 128 152.5 103.5Q175 79 206.5 65Q238 51 275 51Q312 51 343 65Q374 79 396.5 103.5Q419 128 431.5 161Q444 194 444 232Q444 270 431.5 303Q419 336 396.5 360.5Q374 385 343 399Q312 413 275 413Q238 413 206.5 399Q175 385 152.5 360.5Q130 336 117.5 303Q105 270 105 232Z" glyph-name="obreve" horiz-adv-x="549" unicode="ŏ" /><glyph d="M579 928Q587 928 590 922Q593 916 590 910L514 776Q508 762 495 762H468Q460 762 456.5 766.5Q453 771 455 779L507 913Q512 928 530 928ZM417 928Q425 928 428.5 922Q432 916 429 910L353 776Q349 769 345.5 765.5Q342 762 334 762H307Q289 762 294 779L346 913Q351 928 368 928ZM748 350Q748 272 720 205.5Q692 139 644 90.5Q596 42 531.5 14.5Q467 -13 393 -13Q320 -13 255.5 14.5Q191 42 143 90.5Q95 139 67 205.5Q39 272 39 350Q39 428 67 494.5Q95 561 143 609.5Q191 658 255.5 685.5Q320 713 393 713Q467 713 531.5 685.5Q596 658 644 609.5Q692 561 720 494.5Q748 428 748 350ZM674 350Q674 413 653 467.5Q632 522 595 562Q558 602 506.5 625Q455 648 393 648Q332 648 280.5 625Q229 602 192 562Q155 522 134 467.5Q113 413 113 350Q113 287 134 232.5Q155 178 192 138Q229 98 280.5 75Q332 52 393 52Q455 52 506.5 75Q558 98 595 138Q632 178 653 232.5Q674 287 674 350Z" glyph-name="Ohungarumlaut" horiz-adv-x="787" unicode="Ő" /><glyph d="M461 692Q469 692 472 686Q475 680 472 674L396 540Q390 526 377 526H350Q342 526 338.5 530.5Q335 535 337 543L389 677Q394 692 412 692ZM299 692Q307 692 310.5 686Q314 680 311 674L235 540Q231 533 227.5 529.5Q224 526 216 526H189Q171 526 176 543L228 677Q233 692 250 692ZM35 232Q35 285 54 329.5Q73 374 105.5 406.5Q138 439 181.5 457.5Q225 476 275 476Q325 476 368.5 457.5Q412 439 444 406.5Q476 374 495 329.5Q514 285 514 232Q514 179 495 134Q476 89 444 56.5Q412 24 368.5 5.5Q325 -13 275 -13Q225 -13 181.5 5.5Q138 24 105.5 56.5Q73 89 54 134Q35 179 35 232ZM105 232Q105 194 117.5 161Q130 128 152.5 103.5Q175 79 206.5 65Q238 51 275 51Q312 51 343 65Q374 79 396.5 103.5Q419 128 431.5 161Q444 194 444 232Q444 270 431.5 303Q419 336 396.5 360.5Q374 385 343 399Q312 413 275 413Q238 413 206.5 399Q175 385 152.5 360.5Q130 336 117.5 303Q105 270 105 232Z" glyph-name="ohungarumlaut" horiz-adv-x="549" unicode="ő" /><glyph d="M669 149Q630 74 556.5 30.5Q483 -13 391 -13Q318 -13 254 14.5Q190 42 142 90.5Q94 139 66.5 205.5Q39 272 39 350Q39 428 66.5 494.5Q94 561 141.5 609.5Q189 658 253 685.5Q317 713 390 713Q483 713 556.5 669.5Q630 626 669 551V683Q669 690 674 695Q679 700 686 700H1149Q1156 700 1161 695Q1166 690 1166 683V651Q1166 644 1161 639Q1156 634 1149 634H741V387H949Q966 387 966 370V339Q966 332 961.5 327Q957 322 949 322H741V66H1149Q1156 66 1161 61Q1166 56 1166 49V17Q1166 10 1161 5Q1156 0 1149 0H686Q679 0 674 5Q669 10 669 17ZM674 350Q674 413 653 467.5Q632 522 595 562Q558 602 506.5 625Q455 648 394 648Q333 648 281.5 625Q230 602 192.5 562Q155 522 134 467.5Q113 413 113 350Q113 287 134 232.5Q155 178 192.5 138Q230 98 281.5 75Q333 52 394 52Q455 52 506.5 75Q558 98 595 138Q632 178 653 232.5Q674 287 674 350Z" glyph-name="OE" horiz-adv-x="1195" unicode="Œ" /><glyph d="M877 74Q848 33 796.5 10Q745 -13 684 -13Q623 -13 566.5 14Q510 41 476 98Q444 47 391.5 17Q339 -13 275 -13Q225 -13 181.5 5.5Q138 24 105.5 56.5Q73 89 54 134Q35 179 35 232Q35 285 54 329.5Q73 374 105.5 406.5Q138 439 181.5 457.5Q225 476 275 476Q340 476 393.5 446Q447 416 477 365Q508 416 560.5 446.5Q613 477 680 477Q730 477 772.5 460Q815 443 846.5 412Q878 381 895.5 338Q913 295 913 243V230Q913 223 909 218Q905 213 897 213H513Q516 176 530 145.5Q544 115 567 94Q590 73 620 61.5Q650 50 684 50Q738 50 770.5 70Q803 90 825 112Q840 127 855 115L872 100Q880 93 880.5 86Q881 79 877 74ZM845 264Q837 336 791.5 377Q746 418 680 418Q646 418 617.5 406.5Q589 395 567.5 374Q546 353 532.5 325Q519 297 515 264ZM105 232Q105 194 117.5 161Q130 128 152.5 103.5Q175 79 206.5 65Q238 51 275 51Q312 51 343 65Q374 79 396.5 103.5Q419 128 431.5 161Q444 194 444 232Q444 270 431.5 303Q419 336 396.5 360.5Q374 385 343 399Q312 413 275 413Q238 413 206.5 399Q175 385 152.5 360.5Q130 336 117.5 303Q105 270 105 232Z" glyph-name="oe" horiz-adv-x="940" unicode="œ" /><glyph d="M446 928Q454 928 457.5 922Q461 916 457 910L382 776Q374 762 362 762H335Q327 762 323.5 766.5Q320 771 323 779L375 913Q380 928 397 928ZM583 0Q574 0 569 4Q564 8 559 16L395 298H160V17Q160 10 155 5Q150 0 143 0H105Q98 0 93 5Q88 10 88 17V683Q88 690 93 695Q98 700 105 700H389Q444 700 487.5 685.5Q531 671 561.5 645Q592 619 608.5 582.5Q625 546 625 502Q625 477 618 448Q611 419 593 392.5Q575 366 544.5 344.5Q514 323 467 311L640 17Q644 12 640.5 6Q637 0 629 0ZM391 359Q466 359 508.5 398Q551 437 551 499Q551 560 508.5 598Q466 636 391 636H160V359Z" glyph-name="Racute" horiz-adv-x="674" unicode="Ŕ" /><glyph d="M276 692Q284 692 287.5 686Q291 680 287 674L212 540Q204 526 192 526H165Q157 526 153.5 530.5Q150 535 153 543L205 677Q210 692 227 692ZM278 465Q284 465 289 460.5Q294 456 294 448V412Q294 404 289 400Q284 396 279 396H262Q235 396 212 387.5Q189 379 172 360.5Q155 342 145 311.5Q135 281 135 237V16Q135 9 130 4.5Q125 0 119 0H83Q76 0 71 5Q66 10 66 17V447Q66 454 71 459Q76 464 83 464H116Q122 464 127 459Q132 454 132 447V378Q145 411 178.5 438Q212 465 262 465Z" glyph-name="racute" horiz-adv-x="303" unicode="ŕ" /><glyph d="M583 0Q574 0 569 4Q564 8 559 16L395 298H160V17Q160 10 155 5Q150 0 143 0H105Q98 0 93 5Q88 10 88 17V683Q88 690 93 695Q98 700 105 700H389Q444 700 487.5 685.5Q531 671 561.5 645Q592 619 608.5 582.5Q625 546 625 502Q625 477 618 448Q611 419 593 392.5Q575 366 544.5 344.5Q514 323 467 311L640 17Q644 12 640.5 6Q637 0 629 0ZM391 359Q466 359 508.5 398Q551 437 551 499Q551 560 508.5 598Q466 636 391 636H160V359ZM322 -165Q304 -158 293 -143.5Q282 -129 282 -109Q282 -84 298.5 -67.5Q315 -51 341 -51Q364 -51 382 -68.5Q400 -86 400 -112Q400 -131 392.5 -150Q385 -169 374.5 -186.5Q364 -204 352 -219Q340 -234 330 -245Q323 -252 316.5 -256.5Q310 -261 302 -256L293 -251Q281 -243 286 -234Z" glyph-name="Rcommaaccent" horiz-adv-x="674" unicode="Ŗ" /><glyph d="M278 465Q284 465 289 460.5Q294 456 294 448V412Q294 404 289 400Q284 396 279 396H262Q235 396 212 387.5Q189 379 172 360.5Q155 342 145 311.5Q135 281 135 237V16Q135 9 130 4.5Q125 0 119 0H83Q76 0 71 5Q66 10 66 17V447Q66 454 71 459Q76 464 83 464H116Q122 464 127 459Q132 454 132 447V378Q145 411 178.5 438Q212 465 262 465ZM82 -165Q64 -158 53 -143.5Q42 -129 42 -109Q42 -84 58.5 -67.5Q75 -51 101 -51Q124 -51 142 -68.5Q160 -86 160 -112Q160 -131 152.5 -150Q145 -169 134.5 -186.5Q124 -204 112 -219Q100 -234 90 -245Q83 -252 76.5 -256.5Q70 -261 62 -256L53 -251Q41 -243 46 -234Z" glyph-name="rcommaaccent" horiz-adv-x="303" unicode="ŗ" /><glyph d="M322 762Q311 762 306 765.5Q301 769 296 777L206 911Q201 918 204.5 923Q208 928 215 928H249Q261 928 271 917L340 823L410 917Q418 928 432 928H466Q472 928 476 923Q480 918 475 911L385 777Q380 769 374.5 765.5Q369 762 360 762ZM583 0Q574 0 569 4Q564 8 559 16L395 298H160V17Q160 10 155 5Q150 0 143 0H105Q98 0 93 5Q88 10 88 17V683Q88 690 93 695Q98 700 105 700H389Q444 700 487.5 685.5Q531 671 561.5 645Q592 619 608.5 582.5Q625 546 625 502Q625 477 618 448Q611 419 593 392.5Q575 366 544.5 344.5Q514 323 467 311L640 17Q644 12 640.5 6Q637 0 629 0ZM391 359Q466 359 508.5 398Q551 437 551 499Q551 560 508.5 598Q466 636 391 636H160V359Z" glyph-name="Rcaron" horiz-adv-x="674" unicode="Ř" /><glyph d="M152 526Q141 526 136 529.5Q131 533 126 541L36 675Q31 682 34.5 687Q38 692 45 692H79Q91 692 101 681L170 587L240 681Q248 692 262 692H296Q302 692 306 687Q310 682 305 675L215 541Q210 533 204.5 529.5Q199 526 190 526ZM278 465Q284 465 289 460.5Q294 456 294 448V412Q294 404 289 400Q284 396 279 396H262Q235 396 212 387.5Q189 379 172 360.5Q155 342 145 311.5Q135 281 135 237V16Q135 9 130 4.5Q125 0 119 0H83Q76 0 71 5Q66 10 66 17V447Q66 454 71 459Q76 464 83 464H116Q122 464 127 459Q132 454 132 447V378Q145 411 178.5 438Q212 465 262 465Z" glyph-name="rcaron" horiz-adv-x="303" unicode="ř" /><glyph d="M403 928Q411 928 414.5 922Q418 916 414 910L339 776Q331 762 319 762H292Q284 762 280.5 766.5Q277 771 280 779L332 913Q337 928 354 928ZM301 713Q379 713 440 687Q501 661 540 618Q548 610 546.5 602.5Q545 595 539 590L518 572Q504 560 489 573Q450 611 404.5 631Q359 651 300 651Q266 651 234.5 642.5Q203 634 179 618Q155 602 141 578Q127 554 127 524Q127 506 132 489.5Q137 473 149.5 458.5Q162 444 184.5 431.5Q207 419 242 410L396 368Q484 345 523.5 300Q563 255 563 187Q563 150 547 114.5Q531 79 499 50.5Q467 22 417.5 4.5Q368 -13 300 -13Q247 -13 204.5 -2Q162 9 129 26Q96 43 72.5 63.5Q49 84 35 104Q29 111 29.5 119.5Q30 128 38 133L63 152Q80 162 93 146Q123 109 175 79.5Q227 50 303 50Q350 50 384.5 61.5Q419 73 442 91.5Q465 110 476.5 133.5Q488 157 488 182Q488 230 459 259Q430 288 367 305L213 346Q125 369 89 415.5Q53 462 53 520Q53 563 72 598.5Q91 634 124 659.5Q157 685 202.5 699Q248 713 301 713Z" glyph-name="Sacute" horiz-adv-x="600" unicode="Ś" /><glyph d="M333 692Q341 692 344.5 686Q348 680 344 674L269 540Q261 526 249 526H222Q214 526 210.5 530.5Q207 535 210 543L262 677Q267 692 284 692ZM223 477Q278 477 322 460.5Q366 444 392 419Q398 414 398.5 406Q399 398 393 393L376 376Q362 364 347 376Q289 420 218 420Q167 420 139.5 398Q112 376 112 345Q112 319 130 302.5Q148 286 190 278L277 261Q347 247 381.5 216.5Q416 186 416 129Q416 104 404.5 79Q393 54 370 33.5Q347 13 311 0Q275 -13 226 -13Q163 -13 117.5 6.5Q72 26 43 53Q32 64 31.5 73.5Q31 83 39 90L56 105Q64 112 71 109.5Q78 107 84 102Q113 76 148 60Q183 44 229 44Q286 44 315.5 69Q345 94 345 124Q345 157 321.5 175.5Q298 194 250 203L169 218Q106 229 73.5 260Q41 291 41 342Q41 372 55 397Q69 422 93.5 440Q118 458 151 467.5Q184 477 223 477Z" glyph-name="sacute" horiz-adv-x="446" unicode="ś" /><glyph d="M318 928Q333 928 343 913L433 780Q438 773 434 767.5Q430 762 424 762H390Q382 762 377.5 765Q373 768 368 774L298 868L229 774Q224 768 219.5 765Q215 762 207 762H173Q166 762 162.5 767.5Q159 773 164 780L254 913Q259 921 264 924.5Q269 928 280 928ZM301 713Q379 713 440 687Q501 661 540 618Q548 610 546.5 602.5Q545 595 539 590L518 572Q504 560 489 573Q450 611 404.5 631Q359 651 300 651Q266 651 234.5 642.5Q203 634 179 618Q155 602 141 578Q127 554 127 524Q127 506 132 489.5Q137 473 149.5 458.5Q162 444 184.5 431.5Q207 419 242 410L396 368Q484 345 523.5 300Q563 255 563 187Q563 150 547 114.5Q531 79 499 50.5Q467 22 417.5 4.5Q368 -13 300 -13Q247 -13 204.5 -2Q162 9 129 26Q96 43 72.5 63.5Q49 84 35 104Q29 111 29.5 119.5Q30 128 38 133L63 152Q80 162 93 146Q123 109 175 79.5Q227 50 303 50Q350 50 384.5 61.5Q419 73 442 91.5Q465 110 476.5 133.5Q488 157 488 182Q488 230 459 259Q430 288 367 305L213 346Q125 369 89 415.5Q53 462 53 520Q53 563 72 598.5Q91 634 124 659.5Q157 685 202.5 699Q248 713 301 713Z" glyph-name="Scircumflex" horiz-adv-x="600" unicode="Ŝ" /><glyph d="M248 692Q263 692 273 677L363 544Q368 537 364 531.5Q360 526 354 526H320Q312 526 307.5 529Q303 532 298 538L228 632L159 538Q154 532 149.5 529Q145 526 137 526H103Q96 526 92.5 531.5Q89 537 94 544L184 677Q189 685 194 688.5Q199 692 210 692ZM223 477Q278 477 322 460.5Q366 444 392 419Q398 414 398.5 406Q399 398 393 393L376 376Q362 364 347 376Q289 420 218 420Q167 420 139.5 398Q112 376 112 345Q112 319 130 302.5Q148 286 190 278L277 261Q347 247 381.5 216.5Q416 186 416 129Q416 104 404.5 79Q393 54 370 33.5Q347 13 311 0Q275 -13 226 -13Q163 -13 117.5 6.5Q72 26 43 53Q32 64 31.5 73.5Q31 83 39 90L56 105Q64 112 71 109.5Q78 107 84 102Q113 76 148 60Q183 44 229 44Q286 44 315.5 69Q345 94 345 124Q345 157 321.5 175.5Q298 194 250 203L169 218Q106 229 73.5 260Q41 291 41 342Q41 372 55 397Q69 422 93.5 440Q118 458 151 467.5Q184 477 223 477Z" glyph-name="scircumflex" horiz-adv-x="446" unicode="ŝ" /><glyph d="M271 -134Q265 -148 252 -148H221Q214 -148 210.5 -143.5Q207 -139 210 -130L257 -11Q214 -7 178.5 5Q143 17 115 33Q87 49 67 67.5Q47 86 35 104Q29 111 29.5 119.5Q30 128 38 133L63 152Q80 162 93 146Q123 109 175 79.5Q227 50 303 50Q350 50 384.5 61.5Q419 73 442 91.5Q465 110 476.5 133.5Q488 157 488 182Q488 230 459 259Q430 288 367 305L213 346Q125 369 89 415.5Q53 462 53 520Q53 563 72 598.5Q91 634 124 659.5Q157 685 202.5 699Q248 713 301 713Q379 713 440 687Q501 661 540 618Q548 610 546.5 602.5Q545 595 539 590L518 572Q504 560 489 573Q450 611 404.5 631Q359 651 300 651Q266 651 234.5 642.5Q203 634 179 618Q155 602 141 578Q127 554 127 524Q127 506 132 489.5Q137 473 149.5 458.5Q162 444 184.5 431.5Q207 419 242 410L396 368Q484 345 523.5 300Q563 255 563 187Q563 152 549 118Q535 84 505.5 56Q476 28 431.5 9.5Q387 -9 326 -12Z" glyph-name="Scedilla" horiz-adv-x="600" unicode="Ş" /><glyph d="M204 -134Q198 -148 185 -148H154Q147 -148 143.5 -143.5Q140 -139 143 -130L190 -11Q141 -6 104 12Q67 30 43 53Q32 64 31.5 73.5Q31 83 39 90L56 105Q64 112 71 109.5Q78 107 84 102Q113 76 148 60Q183 44 229 44Q286 44 315.5 69Q345 94 345 124Q345 157 321.5 175.5Q298 194 250 203L169 218Q106 229 73.5 260Q41 291 41 342Q41 372 55 397Q69 422 93.5 440Q118 458 151 467.5Q184 477 223 477Q278 477 322 460.5Q366 444 392 419Q398 414 398.5 406Q399 398 393 393L376 376Q362 364 347 376Q289 420 218 420Q167 420 139.5 398Q112 376 112 345Q112 319 130 302.5Q148 286 190 278L277 261Q347 247 381.5 216.5Q416 186 416 129Q416 107 406.5 84Q397 61 378 41.5Q359 22 329.5 7.5Q300 -7 259 -11Z" glyph-name="scedilla" horiz-adv-x="446" unicode="ş" /><glyph d="M280 762Q269 762 264 765.5Q259 769 254 777L164 911Q159 918 162.5 923Q166 928 173 928H207Q219 928 229 917L298 823L368 917Q376 928 390 928H424Q430 928 434 923Q438 918 433 911L343 777Q338 769 332.5 765.5Q327 762 318 762ZM301 713Q379 713 440 687Q501 661 540 618Q548 610 546.5 602.5Q545 595 539 590L518 572Q504 560 489 573Q450 611 404.5 631Q359 651 300 651Q266 651 234.5 642.5Q203 634 179 618Q155 602 141 578Q127 554 127 524Q127 506 132 489.5Q137 473 149.5 458.5Q162 444 184.5 431.5Q207 419 242 410L396 368Q484 345 523.5 300Q563 255 563 187Q563 150 547 114.5Q531 79 499 50.5Q467 22 417.5 4.5Q368 -13 300 -13Q247 -13 204.5 -2Q162 9 129 26Q96 43 72.5 63.5Q49 84 35 104Q29 111 29.5 119.5Q30 128 38 133L63 152Q80 162 93 146Q123 109 175 79.5Q227 50 303 50Q350 50 384.5 61.5Q419 73 442 91.5Q465 110 476.5 133.5Q488 157 488 182Q488 230 459 259Q430 288 367 305L213 346Q125 369 89 415.5Q53 462 53 520Q53 563 72 598.5Q91 634 124 659.5Q157 685 202.5 699Q248 713 301 713Z" glyph-name="Scaron" horiz-adv-x="600" unicode="Š" /><glyph d="M210 526Q199 526 194 529.5Q189 533 184 541L94 675Q89 682 92.5 687Q96 692 103 692H137Q149 692 159 681L228 587L298 681Q306 692 320 692H354Q360 692 364 687Q368 682 363 675L273 541Q268 533 262.5 529.5Q257 526 248 526ZM223 477Q278 477 322 460.5Q366 444 392 419Q398 414 398.5 406Q399 398 393 393L376 376Q362 364 347 376Q289 420 218 420Q167 420 139.5 398Q112 376 112 345Q112 319 130 302.5Q148 286 190 278L277 261Q347 247 381.5 216.5Q416 186 416 129Q416 104 404.5 79Q393 54 370 33.5Q347 13 311 0Q275 -13 226 -13Q163 -13 117.5 6.5Q72 26 43 53Q32 64 31.5 73.5Q31 83 39 90L56 105Q64 112 71 109.5Q78 107 84 102Q113 76 148 60Q183 44 229 44Q286 44 315.5 69Q345 94 345 124Q345 157 321.5 175.5Q298 194 250 203L169 218Q106 229 73.5 260Q41 291 41 342Q41 372 55 397Q69 422 93.5 440Q118 458 151 467.5Q184 477 223 477Z" glyph-name="scaron" horiz-adv-x="446" unicode="š" /><glyph d="M12 683Q12 690 16.5 695Q21 700 29 700H584Q591 700 596 695Q601 690 601 683V651Q601 644 596 639Q591 634 584 634H342V17Q342 10 337 5Q332 0 325 0H286Q279 0 274 5Q269 10 269 17V634H29Q21 634 16.5 639Q12 644 12 651ZM287 -165Q269 -158 258 -143.5Q247 -129 247 -109Q247 -84 263.5 -67.5Q280 -51 306 -51Q329 -51 347 -68.5Q365 -86 365 -112Q365 -131 357.5 -150Q350 -169 339.5 -186.5Q329 -204 317 -219Q305 -234 295 -245Q288 -252 281.5 -256.5Q275 -261 267 -256L258 -251Q246 -243 251 -234Z" glyph-name="Tcommaaccent" horiz-adv-x="613" unicode="Ţ" /><glyph d="M97 405 25 405Q18 405 13.5 410Q9 415 9 422V447Q9 454 13.5 459Q18 464 25 464H97V615Q97 622 102 627Q107 632 114 632H150Q157 632 161.5 627Q166 622 166 615V464H315Q322 464 326.5 459Q331 454 331 447V422Q331 415 326.5 410Q322 405 315 405H166V140Q166 98 188 77Q210 56 242 56Q255 56 269 59.5Q283 63 298 71Q317 84 327 69L340 49Q345 43 343.5 36.5Q342 30 337 26Q296 -7 232 -7Q207 -7 182.5 1Q158 9 139 25.5Q120 42 108.5 67.5Q97 93 97 129ZM179 -165Q161 -158 150 -143.5Q139 -129 139 -109Q139 -84 155.5 -67.5Q172 -51 198 -51Q221 -51 239 -68.5Q257 -86 257 -112Q257 -131 249.5 -150Q242 -169 231.5 -186.5Q221 -204 209 -219Q197 -234 187 -245Q180 -252 173.5 -256.5Q167 -261 159 -256L150 -251Q138 -243 143 -234Z" glyph-name="tcommaaccent" horiz-adv-x="349" unicode="ţ" /><glyph d="M289 762Q278 762 273 765.5Q268 769 263 777L173 911Q168 918 171.5 923Q175 928 182 928H216Q228 928 238 917L307 823L377 917Q385 928 399 928H433Q439 928 443 923Q447 918 442 911L352 777Q347 769 341.5 765.5Q336 762 327 762ZM12 683Q12 690 16.5 695Q21 700 29 700H584Q591 700 596 695Q601 690 601 683V651Q601 644 596 639Q591 634 584 634H342V17Q342 10 337 5Q332 0 325 0H286Q279 0 274 5Q269 10 269 17V634H29Q21 634 16.5 639Q12 644 12 651Z" glyph-name="Tcaron" horiz-adv-x="613" unicode="Ť" /><glyph d="M293 678Q276 685 264.5 699.5Q253 714 253 734Q253 759 270 775.5Q287 792 312 792Q336 792 353.5 774.5Q371 757 371 731Q371 712 363.5 693Q356 674 345.5 656.5Q335 639 323 624Q311 609 301 598Q294 591 288 586.5Q282 582 274 587L265 592Q251 599 257 609ZM97 405 25 405Q18 405 13.5 410Q9 415 9 422V447Q9 454 13.5 459Q18 464 25 464H97V615Q97 622 102 627Q107 632 114 632H150Q157 632 161.5 627Q166 622 166 615V464H315Q322 464 326.5 459Q331 454 331 447V422Q331 415 326.5 410Q322 405 315 405H166V140Q166 98 188 77Q210 56 242 56Q255 56 269 59.5Q283 63 298 71Q317 84 327 69L340 49Q345 43 343.5 36.5Q342 30 337 26Q296 -7 232 -7Q207 -7 182.5 1Q158 9 139 25.5Q120 42 108.5 67.5Q97 93 97 129Z" glyph-name="tcaron" horiz-adv-x="349" unicode="ť" /><glyph d="M342 17Q342 10 337 5Q332 0 325 0H286Q279 0 274 5Q269 10 269 17V337H151Q144 337 139 342Q134 347 134 354V380Q134 387 139 392Q144 397 151 397H269V634H29Q21 634 16.5 639Q12 644 12 651V683Q12 690 16.5 695Q21 700 29 700H584Q591 700 596 695Q601 690 601 683V651Q601 644 596 639Q591 634 584 634H342V397H461Q468 397 473 392Q478 387 478 380V354Q478 347 473 342Q468 337 461 337H342Z" glyph-name="Tbar" horiz-adv-x="613" unicode="Ŧ" /><glyph d="M342 26Q301 -7 237 -7Q212 -7 187.5 1Q163 9 143.5 25.5Q124 42 112.5 67.5Q101 93 101 129V257H30Q23 257 18 262Q13 267 13 274V290Q13 297 18 302Q23 307 30 307H101V405H30Q23 405 18 410Q13 415 13 422V447Q13 454 18 459Q23 464 30 464H101V615Q101 622 106 627Q111 632 118 632H154Q161 632 166 627Q171 622 171 615V464H319Q326 464 331 459Q336 454 336 447V422Q336 415 331 410Q326 405 319 405H171V307H319Q326 307 331 302Q336 297 336 290V274Q336 267 331 262Q326 257 319 257H171V140Q171 98 193 77Q215 56 247 56Q260 56 274 59.5Q288 63 303 71Q322 84 332 69L345 49Q349 43 348 36.5Q347 30 342 26Z" glyph-name="tbar" horiz-adv-x="356" unicode="ŧ" /><glyph d="M418 777Q404 777 385 782.5Q366 788 347.5 794Q329 800 313.5 805.5Q298 811 289 811Q275 811 267 805Q259 799 251 786Q244 773 228 784L215 793Q207 798 207 807Q207 816 213 828Q219 840 229.5 850Q240 860 254.5 867Q269 874 287 874Q301 874 319.5 868.5Q338 863 356.5 857Q375 851 391 845.5Q407 840 416 840Q430 840 437 845.5Q444 851 454 865Q463 878 477 867L490 858Q498 853 498 844Q498 835 492 823Q486 811 475.5 801Q465 791 450.5 784Q436 777 418 777ZM623 239Q623 179 602.5 132Q582 85 546 52.5Q510 20 460.5 3.5Q411 -13 352 -13Q294 -13 244 3.5Q194 20 157.5 52Q121 84 100.5 131Q80 178 80 238V683Q80 690 85 695Q90 700 97 700H134Q142 700 146.5 695Q151 690 151 683V238Q151 193 166.5 158.5Q182 124 209 100Q236 76 272.5 63.5Q309 51 352 51Q394 51 430.5 63.5Q467 76 494.5 100Q522 124 537.5 158.5Q553 193 553 238V683Q553 690 557.5 695Q562 700 570 700H606Q613 700 618 695Q623 690 623 683Z" glyph-name="Utilde" horiz-adv-x="703" unicode="Ũ" /><glyph d="M344 541Q330 541 311 546.5Q292 552 273.5 558Q255 564 239.5 569.5Q224 575 215 575Q201 575 193 569Q185 563 177 550Q170 537 154 548L141 557Q133 562 133 571Q133 580 139 592Q145 604 155.5 614Q166 624 180.5 631Q195 638 213 638Q227 638 245.5 632.5Q264 627 282.5 621Q301 615 317 609.5Q333 604 342 604Q356 604 363 609.5Q370 615 380 629Q389 642 403 631L416 622Q424 617 424 608Q424 599 418 587Q412 575 401.5 565Q391 555 376.5 548Q362 541 344 541ZM129 200Q129 129 165.5 88Q202 47 274 47Q345 47 385 90Q425 133 425 200V447Q425 454 430 459Q435 464 442 464H477Q484 464 489 459Q494 454 494 447V17Q494 10 489 5Q484 0 477 0H442Q435 0 430 4.5Q425 9 425 16V81Q405 39 361.5 13Q318 -13 257 -13Q211 -13 174.5 1.5Q138 16 112.5 42.5Q87 69 73.5 106Q60 143 60 188V447Q60 454 65 459Q70 464 76 464H112Q119 464 124 459Q129 454 129 447Z" glyph-name="utilde" horiz-adv-x="560" unicode="ũ" /><glyph d="M237 784Q230 784 225 789Q220 794 220 801V825Q220 832 225 837Q230 842 237 842H466Q473 842 478 837Q483 832 483 825V801Q483 794 478 789Q473 784 466 784ZM623 239Q623 179 602.5 132Q582 85 546 52.5Q510 20 460.5 3.5Q411 -13 352 -13Q294 -13 244 3.5Q194 20 157.5 52Q121 84 100.5 131Q80 178 80 238V683Q80 690 85 695Q90 700 97 700H134Q142 700 146.5 695Q151 690 151 683V238Q151 193 166.5 158.5Q182 124 209 100Q236 76 272.5 63.5Q309 51 352 51Q394 51 430.5 63.5Q467 76 494.5 100Q522 124 537.5 158.5Q553 193 553 238V683Q553 690 557.5 695Q562 700 570 700H606Q613 700 618 695Q623 690 623 683Z" glyph-name="Umacron" horiz-adv-x="703" unicode="Ū" /><glyph d="M163 548Q156 548 151 553Q146 558 146 565V589Q146 596 151 601Q156 606 163 606H392Q399 606 404 601Q409 596 409 589V565Q409 558 404 553Q399 548 392 548ZM129 200Q129 129 165.5 88Q202 47 274 47Q345 47 385 90Q425 133 425 200V447Q425 454 430 459Q435 464 442 464H477Q484 464 489 459Q494 454 494 447V17Q494 10 489 5Q484 0 477 0H442Q435 0 430 4.5Q425 9 425 16V81Q405 39 361.5 13Q318 -13 257 -13Q211 -13 174.5 1.5Q138 16 112.5 42.5Q87 69 73.5 106Q60 143 60 188V447Q60 454 65 459Q70 464 76 464H112Q119 464 124 459Q129 454 129 447Z" glyph-name="umacron" horiz-adv-x="560" unicode="ū" /><glyph d="M352 757Q296 757 264 786.5Q232 816 232 866V878Q232 888 242 888H283Q286 888 288.5 885Q291 882 291 880V871Q291 842 308.5 827.5Q326 813 352 813Q379 813 397 827.5Q415 842 415 871V880Q415 882 417.5 885Q420 888 424 888H464Q474 888 474 878V866Q474 816 441.5 786.5Q409 757 352 757ZM623 239Q623 179 602.5 132Q582 85 546 52.5Q510 20 460.5 3.5Q411 -13 352 -13Q294 -13 244 3.5Q194 20 157.5 52Q121 84 100.5 131Q80 178 80 238V683Q80 690 85 695Q90 700 97 700H134Q142 700 146.5 695Q151 690 151 683V238Q151 193 166.5 158.5Q182 124 209 100Q236 76 272.5 63.5Q309 51 352 51Q394 51 430.5 63.5Q467 76 494.5 100Q522 124 537.5 158.5Q553 193 553 238V683Q553 690 557.5 695Q562 700 570 700H606Q613 700 618 695Q623 690 623 683Z" glyph-name="Ubreve" horiz-adv-x="703" unicode="Ŭ" /><glyph d="M278 521Q222 521 190 550.5Q158 580 158 630V642Q158 652 168 652H209Q212 652 214.5 649Q217 646 217 644V635Q217 606 234.5 591.5Q252 577 278 577Q305 577 323 591.5Q341 606 341 635V644Q341 646 343.5 649Q346 652 350 652H390Q400 652 400 642V630Q400 580 367.5 550.5Q335 521 278 521ZM129 200Q129 129 165.5 88Q202 47 274 47Q345 47 385 90Q425 133 425 200V447Q425 454 430 459Q435 464 442 464H477Q484 464 489 459Q494 454 494 447V17Q494 10 489 5Q484 0 477 0H442Q435 0 430 4.5Q425 9 425 16V81Q405 39 361.5 13Q318 -13 257 -13Q211 -13 174.5 1.5Q138 16 112.5 42.5Q87 69 73.5 106Q60 143 60 188V447Q60 454 65 459Q70 464 76 464H112Q119 464 124 459Q129 454 129 447Z" glyph-name="ubreve" horiz-adv-x="560" unicode="ŭ" /><glyph d="M467 857Q467 833 457.5 813Q448 793 432.5 778Q417 763 396.5 755Q376 747 352 747Q329 747 308 755Q287 763 271.5 778Q256 793 247 813Q238 833 238 857Q238 881 247 901Q256 921 271.5 936Q287 951 308 959Q329 967 352 967Q376 967 396.5 959Q417 951 432.5 936Q448 921 457.5 901Q467 881 467 857ZM412 857Q412 883 395.5 901Q379 919 352 919Q325 919 308.5 901Q292 883 292 857Q292 831 308.5 813Q325 795 352 795Q379 795 395.5 813Q412 831 412 857ZM623 239Q623 179 602.5 132Q582 85 546 52.5Q510 20 460.5 3.5Q411 -13 352 -13Q294 -13 244 3.5Q194 20 157.5 52Q121 84 100.5 131Q80 178 80 238V683Q80 690 85 695Q90 700 97 700H134Q142 700 146.5 695Q151 690 151 683V238Q151 193 166.5 158.5Q182 124 209 100Q236 76 272.5 63.5Q309 51 352 51Q394 51 430.5 63.5Q467 76 494.5 100Q522 124 537.5 158.5Q553 193 553 238V683Q553 690 557.5 695Q562 700 570 700H606Q613 700 618 695Q623 690 623 683Z" glyph-name="Uring" horiz-adv-x="703" unicode="Ů" /><glyph d="M393 621Q393 597 383.5 577Q374 557 358.5 542Q343 527 322.5 519Q302 511 278 511Q255 511 234 519Q213 527 197.5 542Q182 557 173 577Q164 597 164 621Q164 645 173 665Q182 685 197.5 700Q213 715 234 723Q255 731 278 731Q302 731 322.5 723Q343 715 358.5 700Q374 685 383.5 665Q393 645 393 621ZM338 621Q338 647 321.5 665Q305 683 278 683Q251 683 234.5 665Q218 647 218 621Q218 595 234.5 577Q251 559 278 559Q305 559 321.5 577Q338 595 338 621ZM129 200Q129 129 165.5 88Q202 47 274 47Q345 47 385 90Q425 133 425 200V447Q425 454 430 459Q435 464 442 464H477Q484 464 489 459Q494 454 494 447V17Q494 10 489 5Q484 0 477 0H442Q435 0 430 4.5Q425 9 425 16V81Q405 39 361.5 13Q318 -13 257 -13Q211 -13 174.5 1.5Q138 16 112.5 42.5Q87 69 73.5 106Q60 143 60 188V447Q60 454 65 459Q70 464 76 464H112Q119 464 124 459Q129 454 129 447Z" glyph-name="uring" horiz-adv-x="560" unicode="ů" /><glyph d="M538 928Q546 928 549 922Q552 916 549 910L473 776Q467 762 454 762H427Q419 762 415.5 766.5Q412 771 414 779L466 913Q471 928 489 928ZM376 928Q384 928 387.5 922Q391 916 388 910L312 776Q308 769 304.5 765.5Q301 762 293 762H266Q248 762 253 779L305 913Q310 928 327 928ZM623 239Q623 179 602.5 132Q582 85 546 52.5Q510 20 460.5 3.5Q411 -13 352 -13Q294 -13 244 3.5Q194 20 157.5 52Q121 84 100.5 131Q80 178 80 238V683Q80 690 85 695Q90 700 97 700H134Q142 700 146.5 695Q151 690 151 683V238Q151 193 166.5 158.5Q182 124 209 100Q236 76 272.5 63.5Q309 51 352 51Q394 51 430.5 63.5Q467 76 494.5 100Q522 124 537.5 158.5Q553 193 553 238V683Q553 690 557.5 695Q562 700 570 700H606Q613 700 618 695Q623 690 623 683Z" glyph-name="Uhungarumlaut" horiz-adv-x="703" unicode="Ű" /><glyph d="M464 692Q472 692 475 686Q478 680 475 674L399 540Q393 526 380 526H353Q345 526 341.5 530.5Q338 535 340 543L392 677Q397 692 415 692ZM302 692Q310 692 313.5 686Q317 680 314 674L238 540Q234 533 230.5 529.5Q227 526 219 526H192Q174 526 179 543L231 677Q236 692 253 692ZM129 200Q129 129 165.5 88Q202 47 274 47Q345 47 385 90Q425 133 425 200V447Q425 454 430 459Q435 464 442 464H477Q484 464 489 459Q494 454 494 447V17Q494 10 489 5Q484 0 477 0H442Q435 0 430 4.5Q425 9 425 16V81Q405 39 361.5 13Q318 -13 257 -13Q211 -13 174.5 1.5Q138 16 112.5 42.5Q87 69 73.5 106Q60 143 60 188V447Q60 454 65 459Q70 464 76 464H112Q119 464 124 459Q129 454 129 447Z" glyph-name="uhungarumlaut" horiz-adv-x="560" unicode="ű" /><glyph d="M501 -155Q501 -161 495 -165.5Q489 -170 480 -172.5Q471 -175 461 -176Q451 -177 442 -177Q400 -177 377 -156.5Q354 -136 354 -102Q354 -76 367.5 -53Q381 -30 399 -10Q377 -13 352 -13Q294 -13 244 3.5Q194 20 157.5 52Q121 84 100.5 131Q80 178 80 238V683Q80 690 85 695Q90 700 97 700H134Q142 700 146.5 695Q151 690 151 683V238Q151 193 166.5 158.5Q182 124 209 100Q236 76 272.5 63.5Q309 51 352 51Q394 51 430.5 63.5Q467 76 494.5 100Q522 124 537.5 158.5Q553 193 553 238V683Q553 690 557.5 695Q562 700 570 700H606Q613 700 618 695Q623 690 623 683V239Q623 150 580.5 91Q538 32 466 6Q446 -20 432.5 -46Q419 -72 419 -90Q419 -127 461 -127Q475 -127 491 -124Q497 -122 501 -126Q505 -130 503 -138Z" glyph-name="Uogonek" horiz-adv-x="703" unicode="Ų" /><glyph d="M502 -177Q502 -183 496 -187.5Q490 -192 481 -194.5Q472 -197 462 -198Q452 -199 443 -199Q401 -199 378 -178.5Q355 -158 355 -124Q355 -105 363 -87Q371 -69 383 -53Q395 -37 409 -23Q423 -9 436 1Q425 5 425 16V81Q405 39 361.5 13Q318 -13 257 -13Q211 -13 174.5 1.5Q138 16 112.5 42.5Q87 69 73.5 106Q60 143 60 188V447Q60 454 65 459Q70 464 76 464H112Q119 464 124 459Q129 454 129 447V200Q129 129 165.5 88Q202 47 274 47Q345 47 385 90Q425 133 425 200V447Q425 454 430 459Q435 464 442 464H477Q484 464 489 459Q494 454 494 447V17Q494 10 489.5 5Q485 0 481 1Q457 -28 438.5 -59.5Q420 -91 420 -112Q420 -149 462 -149Q476 -149 492 -146Q498 -144 502 -148Q506 -152 504 -160Z" glyph-name="uogonek" horiz-adv-x="560" unicode="ų" /><glyph d="M528 928Q543 928 553 913L643 780Q648 773 644 767.5Q640 762 634 762H600Q592 762 587.5 765Q583 768 578 774L508 868L439 774Q434 768 429.5 765Q425 762 417 762H383Q376 762 372.5 767.5Q369 773 374 780L464 913Q469 921 474 924.5Q479 928 490 928ZM795 16Q793 8 786 4Q779 0 773 0H716Q700 0 694 16L508 484L323 16Q317 0 301 0H242Q235 0 228.5 4Q222 8 220 16L19 681Q17 689 21 694.5Q25 700 33 700H77Q90 700 95 684L273 81L465 564Q472 580 485 580H532Q545 580 552 564L744 85L921 684Q926 700 939 700H982Q1001 700 996 681Z" glyph-name="Wcircumflex" horiz-adv-x="1015" unicode="Ŵ" /><glyph d="M395 692Q410 692 420 677L510 544Q515 537 511 531.5Q507 526 501 526H467Q459 526 454.5 529Q450 532 445 538L375 632L306 538Q301 532 296.5 529Q292 526 284 526H250Q243 526 239.5 531.5Q236 537 241 544L331 677Q336 685 341 688.5Q346 692 357 692ZM262 16Q257 0 240 0H188Q171 0 166 16L21 445Q18 453 22 458.5Q26 464 34 464H77Q92 464 97 450L215 76L332 448Q337 464 351 464H401Q415 464 420 448L537 76L655 449Q660 464 675 464H716Q723 464 727 458.5Q731 453 728 445L584 16Q579 0 562 0H509Q492 0 487 16L375 378Z" glyph-name="wcircumflex" horiz-adv-x="749" unicode="ŵ" /><glyph d="M326 928Q341 928 351 913L441 780Q446 773 442 767.5Q438 762 432 762H398Q390 762 385.5 765Q381 768 376 774L306 868L237 774Q232 768 227.5 765Q223 762 215 762H181Q174 762 170.5 767.5Q167 773 172 780L262 913Q267 921 272 924.5Q277 928 288 928ZM271 299 16 682Q11 688 14.5 694Q18 700 24 700H78Q90 700 100 687L306 374H310L516 687Q521 693 525 696.5Q529 700 537 700H591Q597 700 600.5 694.5Q604 689 599 682L343 299V17Q343 10 338 5Q333 0 326 0H288Q281 0 276 5Q271 10 271 17Z" glyph-name="Ycircumflex" horiz-adv-x="615" unicode="Ŷ" /><glyph d="M256 692Q271 692 281 677L371 544Q376 537 372 531.5Q368 526 362 526H328Q320 526 315.5 529Q311 532 306 538L236 632L167 538Q162 532 157.5 529Q153 526 145 526H111Q104 526 100.5 531.5Q97 537 102 544L192 677Q197 685 202 688.5Q207 692 218 692ZM210 -118Q187 -173 157.5 -196.5Q128 -220 75 -220H63Q55 -220 49.5 -215.5Q44 -211 44 -202V-178Q44 -161 61 -161H75Q99 -161 116 -148Q133 -135 147 -104L208 40L24 445Q21 452 25 458Q29 464 37 464H76Q84 464 90 461.5Q96 459 101 448L246 124L379 448Q383 456 387.5 460Q392 464 402 464H440Q448 464 451.5 458.5Q455 453 452 445Z" glyph-name="ycircumflex" horiz-adv-x="471" unicode="ŷ" /><glyph d="M336 814Q336 836 352 852.5Q368 869 390 869Q413 869 429 852.5Q445 836 445 814Q445 792 429 776Q413 760 390 760Q368 760 352 776Q336 792 336 814ZM168 814Q168 836 184 852.5Q200 869 223 869Q245 869 261 852.5Q277 836 277 814Q277 792 261 776Q245 760 223 760Q200 760 184 776Q168 792 168 814ZM271 299 16 682Q11 688 14.5 694Q18 700 24 700H78Q90 700 100 687L306 374H310L516 687Q521 693 525 696.5Q529 700 537 700H591Q597 700 600.5 694.5Q604 689 599 682L343 299V17Q343 10 338 5Q333 0 326 0H288Q281 0 276 5Q271 10 271 17Z" glyph-name="Ydieresis" horiz-adv-x="615" unicode="Ÿ" /><glyph d="M408 928Q416 928 419.5 922Q423 916 419 910L344 776Q336 762 324 762H297Q289 762 285.5 766.5Q282 771 285 779L337 913Q342 928 359 928ZM32 0Q24 0 19.5 5Q15 10 15 17V42Q15 50 19.5 57.5Q24 65 29 70L461 635H61Q54 635 49 640Q44 645 44 652V683Q44 690 49 695Q54 700 61 700H537Q553 700 553 683V656Q553 647 548.5 638.5Q544 630 539 624L113 65H558Q565 65 569.5 60Q574 55 574 48V17Q574 10 569.5 5Q565 0 558 0Z" glyph-name="Zacute" horiz-adv-x="593" unicode="Ź" /><glyph d="M324 692Q332 692 335.5 686Q339 680 335 674L260 540Q252 526 240 526H213Q205 526 201.5 530.5Q198 535 201 543L253 677Q258 692 275 692ZM114 60 400 60Q407 60 411.5 55Q416 50 416 43V17Q416 10 411.5 5Q407 0 400 0H41Q34 0 29 5Q24 10 24 17V41Q24 49 26 53.5Q28 58 33 63L315 404H57Q50 404 45 409Q40 414 40 421V447Q40 454 45 459Q50 464 57 464H388Q395 464 400 459Q405 454 405 447V423Q405 415 403 411Q401 407 396 402Z" glyph-name="zacute" horiz-adv-x="442" unicode="ź" /><glyph d="M303 773Q279 773 261.5 790.5Q244 808 244 833Q244 857 261.5 874Q279 891 303 891Q327 891 344.5 874Q362 857 362 833Q362 808 344.5 790.5Q327 773 303 773ZM32 0Q24 0 19.5 5Q15 10 15 17V42Q15 50 19.5 57.5Q24 65 29 70L461 635H61Q54 635 49 640Q44 645 44 652V683Q44 690 49 695Q54 700 61 700H537Q553 700 553 683V656Q553 647 548.5 638.5Q544 630 539 624L113 65H558Q565 65 569.5 60Q574 55 574 48V17Q574 10 569.5 5Q565 0 558 0Z" glyph-name="Zdotaccent" horiz-adv-x="593" unicode="Ż" /><glyph d="M222 536Q198 536 180.5 553.5Q163 571 163 596Q163 620 180.5 637Q198 654 222 654Q246 654 263.5 637Q281 620 281 596Q281 571 263.5 553.5Q246 536 222 536ZM114 60 400 60Q407 60 411.5 55Q416 50 416 43V17Q416 10 411.5 5Q407 0 400 0H41Q34 0 29 5Q24 10 24 17V41Q24 49 26 53.5Q28 58 33 63L315 404H57Q50 404 45 409Q40 414 40 421V447Q40 454 45 459Q50 464 57 464H388Q395 464 400 459Q405 454 405 447V423Q405 415 403 411Q401 407 396 402Z" glyph-name="zdotaccent" horiz-adv-x="442" unicode="ż" /><glyph d="M285 762Q274 762 269 765.5Q264 769 259 777L169 911Q164 918 167.5 923Q171 928 178 928H212Q224 928 234 917L303 823L373 917Q381 928 395 928H429Q435 928 439 923Q443 918 438 911L348 777Q343 769 337.5 765.5Q332 762 323 762ZM32 0Q24 0 19.5 5Q15 10 15 17V42Q15 50 19.5 57.5Q24 65 29 70L461 635H61Q54 635 49 640Q44 645 44 652V683Q44 690 49 695Q54 700 61 700H537Q553 700 553 683V656Q553 647 548.5 638.5Q544 630 539 624L113 65H558Q565 65 569.5 60Q574 55 574 48V17Q574 10 569.5 5Q565 0 558 0Z" glyph-name="Zcaron" horiz-adv-x="593" unicode="Ž" /><glyph d="M201 526Q190 526 185 529.5Q180 533 175 541L85 675Q80 682 83.5 687Q87 692 94 692H128Q140 692 150 681L219 587L289 681Q297 692 311 692H345Q351 692 355 687Q359 682 354 675L264 541Q259 533 253.5 529.5Q248 526 239 526ZM114 60 400 60Q407 60 411.5 55Q416 50 416 43V17Q416 10 411.5 5Q407 0 400 0H41Q34 0 29 5Q24 10 24 17V41Q24 49 26 53.5Q28 58 33 63L315 404H57Q50 404 45 409Q40 414 40 421V447Q40 454 45 459Q50 464 57 464H388Q395 464 400 459Q405 454 405 447V423Q405 415 403 411Q401 407 396 402Z" glyph-name="zcaron" horiz-adv-x="442" unicode="ž" /><glyph d="M169 17Q169 10 164.5 5Q160 0 153 0H117Q110 0 105 5Q100 10 100 17V405H28Q21 405 16.5 410Q12 415 12 422V447Q12 454 16.5 459Q21 464 28 464H100V571Q100 608 112 635Q124 662 144 680Q164 698 189 706.5Q214 715 241 715Q268 715 295.5 707Q323 699 343 683Q348 679 349 672Q350 665 345 660L329 639Q322 632 314.5 632.5Q307 633 300 637Q285 646 270.5 649.5Q256 653 244 653Q212 653 190.5 630.5Q169 608 169 569Z" glyph-name="longs" horiz-adv-x="246" unicode="ſ" /><glyph d="M159 571Q159 608 171 635Q183 662 203 680Q223 698 248 706.5Q273 715 300 715Q327 715 354 707Q381 699 401 683Q406 679 407 672Q408 665 403 660L388 639Q381 631 373.5 632Q366 633 359 637Q344 646 329.5 649.5Q315 653 303 653Q270 653 249 630.5Q228 608 228 569V357H331Q338 357 342.5 352Q347 347 347 340V315Q347 308 342.5 303Q338 298 331 298H228V-44Q228 -81 216 -108Q204 -135 184 -153Q164 -171 138.5 -179.5Q113 -188 87 -188Q60 -188 32.5 -180Q5 -172 -15 -156Q-20 -152 -21 -145Q-22 -138 -17 -133L-1 -111Q6 -104 13.5 -105Q21 -106 27 -110Q43 -119 57.5 -122.5Q72 -126 83 -126Q116 -126 137.5 -103.5Q159 -81 159 -42V298H72Q65 298 60.5 303Q56 308 56 315V340Q56 347 60.5 352Q65 357 72 357H159Z" glyph-name="florin" horiz-adv-x="428" unicode="ƒ" /><glyph d="M301 713Q379 713 440 687Q501 661 540 618Q548 610 546.5 602.5Q545 595 539 590L518 572Q504 560 489 573Q450 611 404.5 631Q359 651 300 651Q266 651 234.5 642.5Q203 634 179 618Q155 602 141 578Q127 554 127 524Q127 506 132 489.5Q137 473 149.5 458.5Q162 444 184.5 431.5Q207 419 242 410L396 368Q484 345 523.5 300Q563 255 563 187Q563 150 547 114.5Q531 79 499 50.5Q467 22 417.5 4.5Q368 -13 300 -13Q247 -13 204.5 -2Q162 9 129 26Q96 43 72.5 63.5Q49 84 35 104Q29 111 29.5 119.5Q30 128 38 133L63 152Q80 162 93 146Q123 109 175 79.5Q227 50 303 50Q350 50 384.5 61.5Q419 73 442 91.5Q465 110 476.5 133.5Q488 157 488 182Q488 230 459 259Q430 288 367 305L213 346Q125 369 89 415.5Q53 462 53 520Q53 563 72 598.5Q91 634 124 659.5Q157 685 202.5 699Q248 713 301 713ZM277 -165Q259 -158 248 -143.5Q237 -129 237 -109Q237 -84 253.5 -67.5Q270 -51 296 -51Q319 -51 337 -68.5Q355 -86 355 -112Q355 -131 347.5 -150Q340 -169 329.5 -186.5Q319 -204 307 -219Q295 -234 285 -245Q278 -252 271.5 -256.5Q265 -261 257 -256L248 -251Q236 -243 241 -234Z" glyph-name="Scommaaccent" horiz-adv-x="600" unicode="Ș" /><glyph d="M223 477Q278 477 322 460.5Q366 444 392 419Q398 414 398.5 406Q399 398 393 393L376 376Q362 364 347 376Q289 420 218 420Q167 420 139.5 398Q112 376 112 345Q112 319 130 302.5Q148 286 190 278L277 261Q347 247 381.5 216.5Q416 186 416 129Q416 104 404.5 79Q393 54 370 33.5Q347 13 311 0Q275 -13 226 -13Q163 -13 117.5 6.5Q72 26 43 53Q32 64 31.5 73.5Q31 83 39 90L56 105Q64 112 71 109.5Q78 107 84 102Q113 76 148 60Q183 44 229 44Q286 44 315.5 69Q345 94 345 124Q345 157 321.5 175.5Q298 194 250 203L169 218Q106 229 73.5 260Q41 291 41 342Q41 372 55 397Q69 422 93.5 440Q118 458 151 467.5Q184 477 223 477ZM210 -165Q192 -158 181 -143.5Q170 -129 170 -109Q170 -84 186.5 -67.5Q203 -51 229 -51Q252 -51 270 -68.5Q288 -86 288 -112Q288 -131 280.5 -150Q273 -169 262.5 -186.5Q252 -204 240 -219Q228 -234 218 -245Q211 -252 204.5 -256.5Q198 -261 190 -256L181 -251Q169 -243 174 -234Z" glyph-name="scommaaccent" horiz-adv-x="446" unicode="ș" /><glyph d="M12 683Q12 690 16.5 695Q21 700 29 700H584Q591 700 596 695Q601 690 601 683V651Q601 644 596 639Q591 634 584 634H342V17Q342 10 337 5Q332 0 325 0H286Q279 0 274 5Q269 10 269 17V634H29Q21 634 16.5 639Q12 644 12 651ZM289 -165Q271 -158 260 -143.5Q249 -129 249 -109Q249 -84 265.5 -67.5Q282 -51 308 -51Q331 -51 349 -68.5Q367 -86 367 -112Q367 -131 359.5 -150Q352 -169 341.5 -186.5Q331 -204 319 -219Q307 -234 297 -245Q290 -252 283.5 -256.5Q277 -261 269 -256L260 -251Q248 -243 253 -234Z" glyph-name="uni021A" horiz-adv-x="613" unicode="Ț" /><glyph d="M97 405 25 405Q18 405 13.5 410Q9 415 9 422V447Q9 454 13.5 459Q18 464 25 464H97V615Q97 622 102 627Q107 632 114 632H150Q157 632 161.5 627Q166 622 166 615V464H315Q322 464 326.5 459Q331 454 331 447V422Q331 415 326.5 410Q322 405 315 405H166V140Q166 98 188 77Q210 56 242 56Q255 56 269 59.5Q283 63 298 71Q317 84 327 69L340 49Q345 43 343.5 36.5Q342 30 337 26Q296 -7 232 -7Q207 -7 182.5 1Q158 9 139 25.5Q120 42 108.5 67.5Q97 93 97 129ZM179 -165Q161 -158 150 -143.5Q139 -129 139 -109Q139 -84 155.5 -67.5Q172 -51 198 -51Q221 -51 239 -68.5Q257 -86 257 -112Q257 -131 249.5 -150Q242 -169 231.5 -186.5Q221 -204 209 -219Q197 -234 187 -245Q180 -252 173.5 -256.5Q167 -261 159 -256L150 -251Q138 -243 143 -234Z" glyph-name="uni021B" horiz-adv-x="349" unicode="ț" /><glyph d="M118 464Q125 464 130 459Q135 454 135 447V-73Q135 -111 123 -139Q111 -167 91.5 -185Q72 -203 46.5 -211.5Q21 -220 -5 -220Q-34 -220 -61 -212Q-88 -204 -106 -188Q-111 -184 -112 -177.5Q-113 -171 -108 -166L-94 -146Q-83 -131 -68 -141Q-54 -150 -37.5 -154.5Q-21 -159 -10 -159Q22 -159 44 -137.5Q66 -116 66 -74V447Q66 454 71 459Q76 464 83 464Z" glyph-name="dotlessj" horiz-adv-x="202" unicode="ȷ" /><glyph d="M252 584Q234 591 222.5 607.5Q211 624 211 646Q211 673 230 693Q249 713 278 713Q305 713 324.5 693Q344 673 344 643Q344 621 335.5 599Q327 577 314.5 556.5Q302 536 288 518Q274 500 263 488Q255 480 247 475.5Q239 471 231 476L220 482Q206 490 211 501Z" glyph-name="apostrophe" horiz-adv-x="535" unicode="ʼ" /><glyph d="M183 692Q198 692 208 677L298 544Q303 537 299 531.5Q295 526 289 526H255Q247 526 242.5 529Q238 532 233 538L163 632L94 538Q89 532 84.5 529Q80 526 72 526H38Q31 526 27.5 531.5Q24 537 29 544L119 677Q124 685 129 688.5Q134 692 145 692Z" glyph-name="circumflex" horiz-adv-x="328" unicode="ˆ" /><glyph d="M145 526Q134 526 129 529.5Q124 533 119 541L29 675Q24 682 27.5 687Q31 692 38 692H72Q84 692 94 681L163 587L233 681Q241 692 255 692H289Q295 692 299 687Q303 682 298 675L208 541Q203 533 197.5 529.5Q192 526 183 526Z" glyph-name="caron" horiz-adv-x="328" unicode="ˇ" /><glyph d="M149 521Q93 521 61 550.5Q29 580 29 630V642Q29 652 39 652H80Q83 652 85.5 649Q88 646 88 644V635Q88 606 105.5 591.5Q123 577 149 577Q176 577 194 591.5Q212 606 212 635V644Q212 646 214.5 649Q217 652 221 652H261Q271 652 271 642V630Q271 580 238.5 550.5Q206 521 149 521Z" glyph-name="breve" horiz-adv-x="300" unicode="˘" /><glyph d="M83 536Q59 536 41.5 553.5Q24 571 24 596Q24 620 41.5 637Q59 654 83 654Q107 654 124.5 637Q142 620 142 596Q142 571 124.5 553.5Q107 536 83 536Z" glyph-name="dotaccent" horiz-adv-x="166" unicode="˙" /><glyph d="M258 622Q258 598 248.5 578Q239 558 223.5 543Q208 528 187.5 520Q167 512 143 512Q120 512 99 520Q78 528 62.5 543Q47 558 38 578Q29 598 29 622Q29 646 38 666Q47 686 62.5 701Q78 716 99 724Q120 732 143 732Q167 732 187.5 724Q208 716 223.5 701Q239 686 248.5 666Q258 646 258 622ZM203 622Q203 648 186.5 666Q170 684 143 684Q116 684 99.5 666Q83 648 83 622Q83 596 99.5 578Q116 560 143 560Q170 560 186.5 578Q203 596 203 622Z" glyph-name="ring" horiz-adv-x="286" unicode="˚" /><glyph d="M50 -124Q50 -101 61 -79.5Q72 -58 88 -39.5Q104 -21 121.5 -7Q139 7 151 15L174 13L178 3Q153 -26 134 -58Q115 -90 115 -112Q115 -149 157 -149Q171 -149 187 -146Q193 -144 197 -148Q201 -152 199 -160L197 -177Q197 -183 191 -187.5Q185 -192 176 -194.5Q167 -197 157 -198Q147 -199 138 -199Q96 -199 73 -178.5Q50 -158 50 -124Z" glyph-name="ogonek" horiz-adv-x="252" unicode="˛" /></font>
</defs>
</svg>
